<svg id="Layer_1" data-name="Layer 1" xmlns="http://www.w3.org/2000/svg" xmlns:xlink="http://www.w3.org/1999/xlink" viewBox="0 0 2949.23 2010.67"><defs><style>.cls-1{fill:none;}.cls-2{fill:#f3f9ff;}.cls-3{fill:#ebf2f9;}.cls-4{fill:#d2e4ff;}.cls-5{fill:#e7f1fd;}.cls-6{fill:#163560;}.cls-7{fill:#e37970;}.cls-8{fill:#f1a34f;}.cls-9{fill:#c45446;}.cls-10{fill:#80bdcc;}.cls-11{fill:#5f9aa8;}.cls-12{clip-path:url(#clip-path);}.cls-13{fill:#a8d29f;}.cls-14{fill:#82b378;}.cls-15{fill:#202f4e;}.cls-16{fill:#2b478b;}.cls-17{fill:#ee9849;}.cls-18{clip-path:url(#clip-path-2);}.cls-19{fill:#aed3ff;}.cls-20{fill:#fff;}.cls-21{fill:#ffb27d;}.cls-22{fill:#d68d5d;}.cls-23{fill:#1c468a;}.cls-24{fill:#4a75cb;}.cls-25{fill:#739af0;}.cls-26{fill:#fca56b;}</style><clipPath id="clip-path" transform="translate(-25.38 102.51)"><rect class="cls-1" x="624.52" y="370.91" width="636.66" height="1039.1"/></clipPath><clipPath id="clip-path-2" transform="translate(-25.38 102.51)"><rect class="cls-2" x="1449.3" y="231.32" width="636.66" height="1039.1"/></clipPath></defs><path class="cls-3" d="M357.87,816.45C479,713.15,625,90.19,1125.08,414.65c258.38,167.63,694.08-143.92,1054.71-36.31,331.2,98.83,363.13,424.42,331.08,530.51-64.73,214.31,136.71,246.21,323.58,338.29,293.13,144.43,77.58,652-199.34,654.46s-1954.62,2.86-1954.62,2.86S278.27,1897.78,111,1675.75C-69,1436.83,45.08,1083.26,357.87,816.45Z" transform="translate(-25.38 102.51)"/><rect class="cls-4" x="522.08" y="396.7" width="790.76" height="1192.56"/><rect class="cls-2" x="599.13" y="472.35" width="636.66" height="1039.1"/><path class="cls-5" d="M1261.17,808.47s-89.43-85.64-173.92-85.64C938.7,722.83,859,1004,761.36,944.13S624.52,826.47,624.52,826.47v584.67h636.65Z" transform="translate(-25.38 102.51)"/><path class="cls-6" d="M888.62,741.14h0Z" transform="translate(-25.38 102.51)"/><path class="cls-6" d="M788.67,780.49h0q7.82-.3,16.27-.3s31.17-27.05,67.22-36.26C835.1,753.09,788.67,780.49,788.67,780.49Z" transform="translate(-25.38 102.51)"/><circle class="cls-6" cx="744.28" cy="831.25" r="32.79" transform="translate(-395.17 872.27) rotate(-45)"/><path class="cls-5" d="M764.6,831.25a20.32,20.32,0,1,1-20.32-20.32A20.32,20.32,0,0,1,764.6,831.25Z" transform="translate(-25.38 102.51)"/><circle class="cls-6" cx="1006.32" cy="831.25" r="32.79" transform="translate(-56.54 141.74) rotate(-2.2)"/><path class="cls-5" d="M1026.63,831.25a20.32,20.32,0,1,1-20.31-20.32A20.31,20.31,0,0,1,1026.63,831.25Z" transform="translate(-25.38 102.51)"/><path class="cls-7" d="M1071,800.8V770.93s-35-4-56.22-11.68c-49.06-18-75.42-18.35-120-18.35-33.82,0-68.07,22.65-82.61,33.55a29.36,29.36,0,0,1-17,5.85c-53.51,1.17-86.58,11.85-103,19.06a21.18,21.18,0,0,0-12.65,19.41v10.06h0a2,2,0,0,0-2,2v16.68a2,2,0,0,0,2,2h31.93a37.23,37.23,0,0,1-4.73-19.22,37.54,37.54,0,1,1,70.32,19.22H973.52a37.55,37.55,0,1,1,65.59,0H1047c27.14,0,31-27.76,31.24-41.37A7.21,7.21,0,0,0,1071,800.8Z" transform="translate(-25.38 102.51)"/><path class="cls-6" d="M877.6,746.29c-31,7.84-64.23,34.65-64.23,34.65l88-1.88a9,9,0,0,0,8-5.24l13.48-29.09H890.21A51.54,51.54,0,0,0,877.6,746.29Z" transform="translate(-25.38 102.51)"/><path class="cls-6" d="M928,745.4l-12.35,28.29a3.29,3.29,0,0,0,3,4.61c12.47,0,45.18-.45,64-5.17a6,6,0,0,0,2.68-10.06C977.7,755.73,961.06,745.4,928,745.4Z" transform="translate(-25.38 102.51)"/><path class="cls-8" d="M681.85,809.18H694.7s21-19.62,54.75-25.18C749.45,784,687.14,790.86,681.85,809.18Z" transform="translate(-25.38 102.51)"/><path class="cls-8" d="M1071,800.8h-3.4a5,5,0,0,1-4.46-2.82c-2-4.16-6.28-12.06-12.91-17.68a3.61,3.61,0,0,1,2.33-6.37H1071Z" transform="translate(-25.38 102.51)"/><path class="cls-6" d="M902.26,787.36h-17.1a1.71,1.71,0,0,1-1.71-1.71h0a1.72,1.72,0,0,1,1.71-1.71h17.1a1.72,1.72,0,0,1,1.71,1.71h0A1.71,1.71,0,0,1,902.26,787.36Z" transform="translate(-25.38 102.51)"/><path class="cls-6" d="M977.84,787.36h-17.1a1.71,1.71,0,0,1-1.71-1.71h0a1.72,1.72,0,0,1,1.71-1.71h17.1a1.71,1.71,0,0,1,1.71,1.71h0A1.7,1.7,0,0,1,977.84,787.36Z" transform="translate(-25.38 102.51)"/><path class="cls-9" d="M963.37,798.46H809.22a8.17,8.17,0,0,0-7,12.42l9.93,16.32a7.15,7.15,0,0,0,10.26,2.11C835.61,819.91,873.58,800.42,963.37,798.46Z" transform="translate(-25.38 102.51)"/><path class="cls-6" d="M888.62,495.92h0Z" transform="translate(-25.38 102.51)"/><path class="cls-6" d="M788.67,535.27h0c5.21-.19,10.63-.3,16.27-.3,0,0,31.17-27.05,67.22-36.25C835.1,507.87,788.67,535.27,788.67,535.27Z" transform="translate(-25.38 102.51)"/><path class="cls-6" d="M777.07,586a32.79,32.79,0,1,1-32.79-32.79A32.79,32.79,0,0,1,777.07,586Z" transform="translate(-25.38 102.51)"/><circle class="cls-5" cx="718.9" cy="688.54" r="20.32"/><path class="cls-6" d="M1039.11,586a32.79,32.79,0,1,1-32.79-32.79A32.79,32.79,0,0,1,1039.11,586Z" transform="translate(-25.38 102.51)"/><circle class="cls-5" cx="980.93" cy="688.54" r="20.32"/><path class="cls-10" d="M1071,555.58V525.71s-35-4-56.22-11.68c-49.06-18-75.42-18.35-120-18.35-33.82,0-68.07,22.65-82.61,33.56a29.42,29.42,0,0,1-17,5.84c-53.51,1.17-86.58,11.85-103,19.06a21.19,21.19,0,0,0-12.65,19.41v10.06h0a2,2,0,0,0-2,2v16.68a2,2,0,0,0,2,2h31.93a37.29,37.29,0,0,1-4.73-19.23,37.54,37.54,0,1,1,70.32,19.23H973.52a37.55,37.55,0,1,1,65.59,0H1047c27.14,0,31-27.76,31.24-41.38A7.21,7.21,0,0,0,1071,555.58Z" transform="translate(-25.38 102.51)"/><path class="cls-6" d="M877.6,501.07c-31,7.84-64.23,34.65-64.23,34.65l88-1.88a9,9,0,0,0,8-5.24l13.48-29.08H890.21A51.53,51.53,0,0,0,877.6,501.07Z" transform="translate(-25.38 102.51)"/><path class="cls-6" d="M928,500.18l-12.35,28.29a3.3,3.3,0,0,0,3,4.62c12.47,0,45.18-.46,64-5.18a6,6,0,0,0,2.68-10.06C977.7,510.51,961.06,500.18,928,500.18Z" transform="translate(-25.38 102.51)"/><path class="cls-8" d="M681.85,564H694.7s21-19.62,54.75-25.18C749.45,538.78,687.14,545.65,681.85,564Z" transform="translate(-25.38 102.51)"/><path class="cls-8" d="M1071,555.58h-3.4a5,5,0,0,1-4.46-2.82c-2-4.16-6.28-12.06-12.91-17.68a3.61,3.61,0,0,1,2.33-6.37H1071Z" transform="translate(-25.38 102.51)"/><path class="cls-6" d="M902.26,542.15h-17.1a1.72,1.72,0,0,1-1.71-1.71h0a1.71,1.71,0,0,1,1.71-1.71h17.1a1.71,1.71,0,0,1,1.71,1.71h0A1.72,1.72,0,0,1,902.26,542.15Z" transform="translate(-25.38 102.51)"/><path class="cls-6" d="M977.84,542.15h-17.1a1.72,1.72,0,0,1-1.71-1.71h0a1.71,1.71,0,0,1,1.71-1.71h17.1a1.7,1.7,0,0,1,1.71,1.71h0A1.71,1.71,0,0,1,977.84,542.15Z" transform="translate(-25.38 102.51)"/><path class="cls-11" d="M963.37,553.24H809.22a8.17,8.17,0,0,0-7,12.42L812.17,582a7.15,7.15,0,0,0,10.26,2.11C835.61,574.69,873.58,555.2,963.37,553.24Z" transform="translate(-25.38 102.51)"/><polygon class="cls-8" points="624.92 601.03 636.25 601.03 636.25 575.87 692.2 575.87 692.2 564.68 624.92 564.68 624.92 601.03"/><polygon class="cls-8" points="1024.55 564.68 1024.55 575.87 1068.75 575.87 1068.75 601.03 1080.08 601.03 1080.08 564.68 1024.55 564.68"/><polygon class="cls-8" points="1068.75 743.65 1024.55 743.65 1024.55 754.84 1080.08 754.84 1080.08 716.25 1068.75 716.25 1068.75 743.65"/><polygon class="cls-8" points="636.25 716.25 624.92 716.25 624.92 754.84 692.2 754.84 692.2 743.65 636.25 743.65 636.25 716.25"/><polygon class="cls-8" points="624.92 846.25 636.25 846.25 636.25 821.09 692.2 821.09 692.2 809.9 624.92 809.9 624.92 846.25"/><polygon class="cls-8" points="1024.55 809.9 1024.55 821.09 1068.75 821.09 1068.75 846.25 1080.08 846.25 1080.08 809.9 1024.55 809.9"/><polygon class="cls-8" points="1068.75 988.87 1024.55 988.87 1024.55 1000.05 1080.08 1000.05 1080.08 961.47 1068.75 961.47 1068.75 988.87"/><polygon class="cls-8" points="636.25 961.47 624.92 961.47 624.92 1000.05 692.2 1000.05 692.2 988.87 636.25 988.87 636.25 961.47"/><g class="cls-12"><path class="cls-6" d="M1205.88,984.81h0Z" transform="translate(-25.38 102.51)"/><path class="cls-6" d="M948.17,1086.27h0q20.18-.75,42-.77s80.37-69.75,173.34-93.49C1067.87,1015.62,948.17,1086.27,948.17,1086.27Z" transform="translate(-25.38 102.51)"/><circle class="cls-6" cx="833.71" cy="1217.15" r="84.55" transform="translate(-645.09 1572.88) rotate(-65.47)"/><path class="cls-5" d="M886.09,1217.15a52.38,52.38,0,1,1-52.38-52.38A52.39,52.39,0,0,1,886.09,1217.15Z" transform="translate(-25.38 102.51)"/><circle class="cls-6" cx="1509.35" cy="1217.15" r="84.55" transform="translate(-443.96 1526.28) rotate(-45)"/><path class="cls-5" d="M1561.73,1217.15a52.38,52.38,0,1,1-52.38-52.38A52.39,52.39,0,0,1,1561.73,1217.15Z" transform="translate(-25.38 102.51)"/><path class="cls-13" d="M1676.09,1138.63v-77s-90.34-10.33-145-30.11c-126.48-46.47-194.45-47.33-309.32-47.33-87.21,0-175.54,58.4-213,86.53A75.67,75.67,0,0,1,965,1085.77c-137.95,3-223.23,30.56-265.59,49.15A54.65,54.65,0,0,0,666.82,1185v25.92h0a5.16,5.16,0,0,0-5.16,5.16v43a5.16,5.16,0,0,0,5.16,5.16h82.32a96.5,96.5,0,0,1-12.2-49.58c1.29-51.34,43.23-93.15,94.58-94.29a96.78,96.78,0,0,1,86.75,143.87h506.52a96.41,96.41,0,0,1-12.21-49.58c1.29-51.34,43.23-93.15,94.58-94.29a96.78,96.78,0,0,1,86.75,143.87h20.23c70,0,79.91-71.58,80.57-106.68A18.61,18.61,0,0,0,1676.09,1138.63Z" transform="translate(-25.38 102.51)"/><path class="cls-6" d="M1177.45,998.09c-79.92,20.22-165.6,89.34-165.6,89.34l226.81-4.85a23.31,23.31,0,0,0,20.65-13.5l34.76-75H1210A132.44,132.44,0,0,0,1177.45,998.09Z" transform="translate(-25.38 102.51)"/><path class="cls-6" d="M1307.4,995.8l-31.84,73a8.48,8.48,0,0,0,7.78,11.88c32.13,0,116.5-1.17,165.06-13.34a15.35,15.35,0,0,0,6.9-25.93C1435.57,1022.43,1392.66,995.8,1307.4,995.8Z" transform="translate(-25.38 102.51)"/><path class="cls-8" d="M672.72,1160.24h33.14s54.19-50.59,141.16-64.92C847,1095.32,686.36,1113,672.72,1160.24Z" transform="translate(-25.38 102.51)"/><path class="cls-8" d="M1676.09,1138.63h-8.77a12.71,12.71,0,0,1-11.5-7.26c-5.07-10.73-16.21-31.11-33.29-45.59a9.31,9.31,0,0,1,6-16.42h47.55Z" transform="translate(-25.38 102.51)"/><path class="cls-6" d="M1241,1104H1197a4.41,4.41,0,0,1-4.41-4.41h0a4.4,4.4,0,0,1,4.41-4.41H1241a4.4,4.4,0,0,1,4.41,4.41h0A4.41,4.41,0,0,1,1241,1104Z" transform="translate(-25.38 102.51)"/><path class="cls-6" d="M1435.93,1104h-44.09a4.42,4.42,0,0,1-4.41-4.41h0a4.41,4.41,0,0,1,4.41-4.41h44.09a4.41,4.41,0,0,1,4.41,4.41h0A4.42,4.42,0,0,1,1435.93,1104Z" transform="translate(-25.38 102.51)"/><path class="cls-14" d="M1398.61,1132.6H1001.16a21.08,21.08,0,0,0-18,32l25.6,42.07a18.44,18.44,0,0,0,26.46,5.45C1069.19,1187.92,1167.08,1137.65,1398.61,1132.6Z" transform="translate(-25.38 102.51)"/></g><path class="cls-15" d="M1261.17,1306.67H696.33a2.58,2.58,0,0,1-2.58-2.58h0a2.59,2.59,0,0,1,2.58-2.58h564.84Z" transform="translate(-25.38 102.51)"/><path class="cls-4" d="M1206.78,678.14a20,20,0,1,1-20-20A20,20,0,0,1,1206.78,678.14Z" transform="translate(-25.38 102.51)"/><path class="cls-4" d="M1151,638.11h0a4.85,4.85,0,0,0,6.85,0L1186,609.89l29,29a4.83,4.83,0,0,0,6.84,0l.76-.76a4.83,4.83,0,0,0,0-6.84l-35.82-35.83L1151,631.27A4.83,4.83,0,0,0,1151,638.11Z" transform="translate(-25.38 102.51)"/><path class="cls-4" d="M1151,713.23h0a4.85,4.85,0,0,1,6.85,0L1186,741.44l29-29a4.83,4.83,0,0,1,6.84,0l.76.76a4.83,4.83,0,0,1,0,6.84l-35.82,35.82L1151,720.07A4.83,4.83,0,0,1,1151,713.23Z" transform="translate(-25.38 102.51)"/><path class="cls-16" d="M1992.56,1847.22v-52.33H2075a4.05,4.05,0,0,0,4-4v-8.39a4.05,4.05,0,0,0-4-4h-82.39V1480.53a15.24,15.24,0,0,0-15.2-15.19h-16.3a15.24,15.24,0,0,0-15.2,15.19v297.89h-82.38a4.06,4.06,0,0,0-4,4v8.39a4.06,4.06,0,0,0,4,4h82.38v52.33c-59.61,4.5-107.36,26-120.76,53.69h288.23C2099.93,1873.18,2052.17,1851.72,1992.56,1847.22Z" transform="translate(-25.38 102.51)"/><rect class="cls-17" x="1737" y="1545.84" width="413.66" height="105.17" rx="14.02"/><rect class="cls-4" x="1346.86" y="257.1" width="790.76" height="1192.56"/><rect class="cls-2" x="1423.92" y="333.83" width="636.66" height="1039.1"/><g class="cls-18"><rect class="cls-4" x="1784.94" y="364.29" width="134.8" height="134.8" transform="translate(211.91 1538.75) rotate(-45)"/><rect class="cls-4" x="1577.76" y="36.76" width="134.8" height="375.51" transform="translate(297.72 1331.58) rotate(-45)"/><rect class="cls-4" x="1752.27" y="-121.4" width="173.61" height="548.14" transform="translate(405.32 1447.65) rotate(-45)"/><rect class="cls-4" x="1725.39" y="871.21" width="108.64" height="381.69" transform="translate(-255.1 1672.02) rotate(-45)"/><rect class="cls-19" x="1669.4" y="240.13" width="85.53" height="1177.56" transform="translate(-110.03 1555.98) rotate(-45)"/><rect class="cls-19" x="1503.8" y="405.73" width="85.53" height="1177.56" transform="translate(-275.63 1487.38) rotate(-45)"/><rect class="cls-19" x="1592.93" y="99.38" width="85.53" height="632.21" transform="translate(159.92 1380.83) rotate(-45)"/><rect class="cls-19" x="2035.53" y="414.77" width="85.53" height="450.14" transform="translate(-80.52 321.4) rotate(-5.95)"/><polygon class="cls-19" points="2563.24 881.97 2469.54 977.73 1782.32 1049.35 1773.45 964.28 2563.24 881.97"/><rect class="cls-19" x="1711.71" y="174.32" width="85.53" height="1105.79" transform="translate(1002.71 -925.09) rotate(45)"/><rect class="cls-19" x="1177.83" y="143.15" width="85.53" height="689.34" transform="translate(677.06 -617.7) rotate(45)"/><rect class="cls-19" x="1914.66" y="1095.72" width="85.53" height="297.08" transform="translate(1427.76 -917.16) rotate(45)"/><polygon class="cls-14" points="1746.04 902.59 1787.08 945.91 2009.28 922.75 1982.26 660.5 1746.04 902.59"/><rect class="cls-14" x="1436.42" y="1081.9" width="160.88" height="151.71" transform="translate(-399.77 1514.19) rotate(-45)"/><rect class="cls-4" x="1644.32" y="1167.87" width="160.88" height="395.58" transform="translate(-485.88 1722.09) rotate(-45)"/><rect class="cls-4" x="1620.7" y="576.59" width="113.36" height="103.86" transform="translate(21.48 1472.69) rotate(-45)"/><rect class="cls-4" x="1526.32" y="482.22" width="113.36" height="103.86" transform="translate(60.57 1378.31) rotate(-45)"/><rect class="cls-4" x="1422.75" y="362.51" width="113.36" height="136.13" transform="translate(103.47 1274.74) rotate(-45)"/><rect class="cls-4" x="1242.63" y="898.04" width="150.55" height="136.13" transform="translate(-322.52 1317.38) rotate(-45)"/><rect class="cls-4" x="1091.27" y="693.56" width="150.55" height="242.37" transform="translate(-259.82 1166.02) rotate(-45)"/><rect class="cls-4" x="1350.66" y="489.38" width="113.36" height="400.6" transform="translate(-100.86 1299.65) rotate(-45)"/><polygon class="cls-4" points="2155.53 1291.73 1932.79 1068.98 2423.43 1023.84 2155.53 1291.73"/><polygon class="cls-4" points="2141.27 903.51 2100.34 548.66 2165.14 483.86 2539.43 858.15 2141.27 903.51"/></g><path class="cls-8" d="M1474.59,91.84A125.57,125.57,0,0,0,1349,217.41c0,69.35,125.57,194,125.57,194s125.57-124.62,125.57-194A125.57,125.57,0,0,0,1474.59,91.84Zm0,199.9a85.2,85.2,0,1,1,85.2-85.2A85.2,85.2,0,0,1,1474.59,291.74Z" transform="translate(-25.38 102.51)"/><path class="cls-7" d="M2055.31,710.24a125.57,125.57,0,0,0-125.57,125.57c0,69.35,125.57,194,125.57,194s125.57-124.63,125.57-194A125.57,125.57,0,0,0,2055.31,710.24Zm0,199.9a85.2,85.2,0,1,1,85.2-85.2A85.2,85.2,0,0,1,2055.31,910.14Z" transform="translate(-25.38 102.51)"/><path class="cls-20" d="M1582.32,373.41a6.43,6.43,0,0,1-4.56-1.89l-5.48-5.48a6.45,6.45,0,0,1,9.13-9.12l5.47,5.47a6.46,6.46,0,0,1-4.56,11Z" transform="translate(-25.38 102.51)"/><path class="cls-20" d="M1589.11,380.2a6.43,6.43,0,0,1-4.56-1.89l-6.79-6.79a6.45,6.45,0,0,1,9.12-9.13l6.8,6.79a6.46,6.46,0,0,1-4.57,11Z" transform="translate(-25.38 102.51)"/><path class="cls-20" d="M1818.32,609.41a6.43,6.43,0,0,1-4.56-1.89l-17-17a6.45,6.45,0,0,1,9.12-9.13l17,17a6.46,6.46,0,0,1-4.56,11Zm-38.2-38.2a6.43,6.43,0,0,1-4.56-1.89l-17-17a6.45,6.45,0,1,1,9.12-9.13l17,17a6.46,6.46,0,0,1-4.56,11ZM1741.92,533a6.45,6.45,0,0,1-4.57-1.89l-17-17a6.45,6.45,0,0,1,9.12-9.13l17,17a6.45,6.45,0,0,1-4.56,11Zm-38.2-38.2a6.43,6.43,0,0,1-4.57-1.89l-17-17a6.45,6.45,0,0,1,9.13-9.12l17,17a6.45,6.45,0,0,1-4.56,11Zm-38.21-38.2a6.43,6.43,0,0,1-4.56-1.89l-17-17a6.45,6.45,0,1,1,9.13-9.12l17,17a6.45,6.45,0,0,1-4.57,11Zm-38.2-38.2a6.43,6.43,0,0,1-4.56-1.89l-17-17a6.45,6.45,0,0,1,9.13-9.12l17,17a6.46,6.46,0,0,1-4.57,11Z" transform="translate(-25.38 102.51)"/><path class="cls-20" d="M1839.54,641.58a6.46,6.46,0,0,1-4.56-11l.91-.91-.91-.91a6.45,6.45,0,1,1,9.12-9.13l5.48,5.48a6.46,6.46,0,0,1,0,9.13l-5.48,5.47A6.41,6.41,0,0,1,1839.54,641.58Z" transform="translate(-25.38 102.51)"/><path class="cls-20" d="M1832.42,648.71a6.46,6.46,0,0,1-4.57-11l7.13-7.13a6.45,6.45,0,0,1,9.12,9.13l-7.12,7.13A6.43,6.43,0,0,1,1832.42,648.71Z" transform="translate(-25.38 102.51)"/><path class="cls-20" d="M1712.18,768.94a6.45,6.45,0,0,1-4.56-11l17.81-17.82a6.46,6.46,0,0,1,9.13,9.13l-17.82,17.81A6.43,6.43,0,0,1,1712.18,768.94Zm40.08-40.08a6.45,6.45,0,0,1-4.56-11L1765.51,700a6.46,6.46,0,0,1,9.13,9.13L1764,719.85h0l-7.13,7.12A6.43,6.43,0,0,1,1752.26,728.86Zm40.08-40.08a6.45,6.45,0,0,1-4.56-11L1805.59,660a6.45,6.45,0,1,1,9.12,9.12l-17.81,17.81A6.43,6.43,0,0,1,1792.34,688.78Z" transform="translate(-25.38 102.51)"/><path class="cls-20" d="M1689.92,802.16a6.43,6.43,0,0,1-4.57-1.89l-5.47-5.48a6.45,6.45,0,0,1,0-9.12l5.47-5.48a6.46,6.46,0,0,1,9.13,9.13l-.91.91.91.91a6.46,6.46,0,0,1-4.56,11Z" transform="translate(-25.38 102.51)"/><path class="cls-20" d="M1697.32,809.57a6.43,6.43,0,0,1-4.56-1.89l-7.41-7.41a6.46,6.46,0,1,1,9.13-9.13l7.41,7.41a6.46,6.46,0,0,1-4.57,11Z" transform="translate(-25.38 102.51)"/><path class="cls-20" d="M1989.08,1101.32a6.43,6.43,0,0,1-4.56-1.89L1966,1080.91a6.46,6.46,0,1,1,9.13-9.13l18.52,18.53a6.45,6.45,0,0,1-4.56,11Zm-41.68-41.68a6.43,6.43,0,0,1-4.56-1.89l-18.53-18.52a6.46,6.46,0,0,1,9.13-9.13l18.52,18.53a6.45,6.45,0,0,1-4.56,11ZM1905.72,1018a6.43,6.43,0,0,1-4.56-1.89l-18.53-18.52a6.46,6.46,0,0,1,9.13-9.13l18.52,18.53a6.45,6.45,0,0,1-4.56,11ZM1864,976.28a6.43,6.43,0,0,1-4.56-1.89L1841,955.87a6.46,6.46,0,1,1,9.13-9.13l18.52,18.53a6.45,6.45,0,0,1-4.56,11Zm-41.68-41.67a6.43,6.43,0,0,1-4.56-1.89l-18.52-18.53a6.45,6.45,0,0,1,9.12-9.12l18.53,18.52a6.46,6.46,0,0,1-4.57,11Zm-41.68-41.68a6.43,6.43,0,0,1-4.56-1.89l-18.52-18.53a6.45,6.45,0,1,1,9.12-9.12l18.53,18.52a6.46,6.46,0,0,1-4.57,11ZM1739,851.25a6.43,6.43,0,0,1-4.56-1.89l-18.52-18.53a6.45,6.45,0,1,1,9.12-9.12l18.53,18.52a6.46,6.46,0,0,1-4.57,11Z" transform="translate(-25.38 102.51)"/><polygon class="cls-21" points="2414.24 1866.37 2395.69 1944.53 2367.89 1944.38 2366.87 1866.37 2414.24 1866.37"/><polygon class="cls-21" points="2180.43 1869.7 2127.63 1944.53 2107.05 1918.11 2138.83 1859.42 2180.43 1869.7"/><path class="cls-6" d="M2343.09,736.78c9.6-5.46,21.1-6,29.14-5.58-2.07-2.13-6.14-2.91-6.14-2.91,5-.74,16.12,4.2,16.12,4.2,69.38-26.73,80.28,75.43,78.82,99.16s23.32,31.48,59.42,50.18c68.87,35.68,74.92,83.46,74.92,83.46-.54.32-1.1.68-1.69,1.09-3.42-5.79-10.46-16.66-16.39-18.3.23.52,7,15,9.54,23.24-20.31,15.45-58.32,49.7-84.82,74,.12-4.74-.07-11.48-1.8-15l-3.27,19.71c-14.18,13-24,22.2-24,22.2,1.75-19.18-86.75-120.39-132.91-150.7-11.24-16.55-15.24-45.78-15.54-48.08,1.94,23.17,5.91,36.18,9.45,43.5C2294.9,880.9,2317.66,751.23,2343.09,736.78Z" transform="translate(-25.38 102.51)"/><path class="cls-21" d="M2342.81,923c-.23.11,22.29,11.8,39.23,7.17,15.94-4.35,26.35-25,26.13-25-6.75-1.35-8.69-10.62-8.55-50.47l-3,.6-51.3,10.16s1.17,16.14,1.2,31.35C2346.51,909.5,2345.73,921.61,2342.81,923Z" transform="translate(-25.38 102.51)"/><path class="cls-13" d="M2400.82,753.51s-25.31-26.94-57.08-1.38C2343.74,752.13,2362.23,748.93,2400.82,753.51Z" transform="translate(-25.38 102.51)"/><path class="cls-22" d="M2345.27,865.38s1.17,16.14,1.2,31.35c28.71-.81,43.88-27,50.1-41.51Z" transform="translate(-25.38 102.51)"/><path class="cls-6" d="M2401.87,849.64s15-23.77,18.65-44.1c2.58-14.51-4.81-68.3-58.86-60.55a73.53,73.53,0,0,0-30.46,11.51c-11.73,7.93-28.67,25-9.73,72l4.92,15.85Z" transform="translate(-25.38 102.51)"/><path class="cls-23" d="M2140.81,1795.09l27.19.83,29.43.9s68-75.69,106.13-197c.89-2.82,1.82-5.68,2.81-8.57,20.88-60.85,64.14-137.24,86.94-206.38,3.63-11,6.89-21.38,9.81-31.19q1.41-4.71,2.72-9.27c16.8-58.38,21.67-96.71,26.15-137.67L2267.35,1208S2240.77,1487.69,2140.81,1795.09Z" transform="translate(-25.38 102.51)"/><path class="cls-5" d="M2290.4,1113.42c.41,78.35-11.49,112-11.49,112s70.49,35.82,154.27,9.46c1-.31,69.37-15.92,69.37-15.92-1.4-3.17-13.87-56-15.23-58.88-17.69-38-31.12-54.65-33.22-66.32-3.89-21.81-4-44.36-2-65.64A526.28,526.28,0,0,1,2472.38,925c-22.83-5.2-44.8-14.08-68.56-23-5.47,6.8-21.58,13.68-36.08,13.36-16.68-.37-21.9-7.43-21.28-15.38-17.79,9.9-31.93,19.31-31.93,19.31-15.11,26.26-45.77,51.75-48,92C2266,1021.23,2290.39,1111.23,2290.4,1113.42Z" transform="translate(-25.38 102.51)"/><path class="cls-11" d="M2432,1122.16c7.2,10.18,21,72.1,55.33,79.88-17.69-44.13-31.12-63.47-33.22-77-3.89-25.32-4-51.53-2-76.25-11.49-20.14-20.07-34-20.07-34-.9-3.25-18.26-56.93-23.82-8.95S2424,1110.76,2432,1122.16Z" transform="translate(-25.38 102.51)"/><path class="cls-21" d="M2335.68,879.78s67.92,1.12,68-41.19,8.84-70.65-34.52-73.15-51.8,13.62-55.25,27.74S2318,878.4,2335.68,879.78Z" transform="translate(-25.38 102.51)"/><path class="cls-6" d="M2315.89,769.66c10.49-12.7,18.41-9.94,22.86-6.13,14.68-21.93,61.07,9.79,61.07,9.79,4.54,30.35,26.43,47.74,26.43,47.74s-12.38,7.65-40.92.31c-22.46-5.78-38.76-37.74-44.68-51.1-4,3.59-12.56,11.89-15.12,20-3.38,10.78-4.91,33-11.37,32.2C2314.16,822.48,2300.15,788.74,2315.89,769.66Z" transform="translate(-25.38 102.51)"/><path class="cls-21" d="M2422,1837.65a75.32,75.32,0,0,0,3.54,32s4.55,20.73-15.87,21.11-25.42-1.54-23.11-14.25,6.71-34.7,6.71-34.7Z" transform="translate(-25.38 102.51)"/><path class="cls-14" d="M2384.64,1901l.07,0H2427l.07,0c2.3-10.84-1.47-31.26-1.47-31.26-23.12,22.1-37.59-.56-37.59-.56C2384.21,1878.61,2384.64,1901,2384.64,1901Z" transform="translate(-25.38 102.51)"/><path class="cls-21" d="M2083.23,1879.6s37.64-42.74,49.2-64l28,14.34-62.57,58.75-14.63-1.92Z" transform="translate(-25.38 102.51)"/><path class="cls-14" d="M2060.15,1900.91h52.22c4.6-4.14,9-12.49,14.36-23.44,3.07-6.28,10-9.73,17-11.63v35.07h10.81l10-37.29c6.67-12.49,1.66-23.95-3-33.82-5.46,0-21.27,3.93-49.08,35.88-9.14,10.49-19.22,14.23-29.25,13.92a2.05,2.05,0,0,1-.41.22C2067,1887.09,2061.82,1896,2060.15,1900.91Z" transform="translate(-25.38 102.51)"/><path class="cls-13" d="M2062.68,950s44.58,24.93,60.51,32.12c5.66,2.55,15.92,7.32,26.4,12.22,6.33,3,12.74,6,18.28,8.57A23,23,0,0,0,2195.1,997c24.14-28.19,86.61-89.28,151.13-96.94l.23-.1,0,.07h.08l-.36.7c-3.62,9-39,97.39-40.09,116-1.16,19.64-4.62,321.26-4.62,321.26s2.31,13.87-24.27,8.09-33.51-11.56-33.51-11.56,25.42-186,18.49-250.77c-1.36-12.7-.14-27,2.7-41.71-39.29,23.81-85.62,34.39-85.62,34.39s-17.28-7.54-44.13-24.17c-11.27-7-24.34-18.15-37.21-29.94-15.55-14.26-42.3-48.68-42.3-48.68Z" transform="translate(-25.38 102.51)"/><path class="cls-6" d="M2168,1795.92l29.43.9s68-75.69,106.13-197c.89-2.82,1.82-5.68,2.81-8.57,20.88-60.85,64.14-137.24,86.94-206.38,3.63-11,6.89-21.38,9.81-31.19q1.41-4.71,2.72-9.27l-24.25-18.4s-72.79,117.88-95.32,228.81C2266.69,1651.14,2188.29,1767.08,2168,1795.92Z" transform="translate(-25.38 102.51)"/><path class="cls-23" d="M2379.06,1565.12c-.41,53.94,2.32,178,9.34,229.31h26.07c14.41,0,21.6-.21,21.6-.21,17.62-89.27,30.16-163.14,39.29-226.79,7.49-52.24,14.15-97,19.27-135.57,5.15-38.79,8.73-71.28,10-98.72.19-4.33.34-8.53.42-12.61s.11-8.09.07-12l-142.26-13.87C2364.68,1389.22,2379.29,1533.76,2379.06,1565.12Z" transform="translate(-25.38 102.51)"/><path class="cls-6" d="M2414.47,1794.43c14.41,0,21.6-.21,21.6-.21,17.62-89.27,30.16-163.14,39.29-226.79,7.49-52.24,14.15-97,19.27-135.57,5.15-38.79,8.73-71.28,10-98.72l-52.2,30.7s33.31,11.76,20.6,100.74S2432.16,1781.83,2414.47,1794.43Z" transform="translate(-25.38 102.51)"/><path class="cls-13" d="M2407.75,1332.26s10,36.21,44.69,31.58,84-25.42,84-25.42-14.82-46.81-33.24-108.32c-22.3-74.45-49.91-170.44-62.92-231-3.65-17-6.15-31.13-7.07-41.28L2403.82,902s-42.29,96.28-44.6,120.54S2407.75,1332.26,2407.75,1332.26Z" transform="translate(-25.38 102.51)"/><path class="cls-21" d="M2283.94,1049.64c16.68,2.19,23.08,11.06,25.14,23,1.11,6.45,4.44,12.83,7.27,17.34,16.62.89,56.2,3,89.46,5.15l2.74,43.62c-27.32-3.4-60.89-10.33-99.53-23.56-3-.51-6.68-2.35-11.32-6.16-23.94-19.6-37.53-52.44-37.58-57.14S2267.25,1047.45,2283.94,1049.64Z" transform="translate(-25.38 102.51)"/><path class="cls-14" d="M2409.29,1073.4c1.55,39.29,10.79,115.56,93.23,156.39.21.11.43.22.65.31-22.3-74.45-49.91-170.44-62.92-231C2425.11,1021.74,2408.45,1051.77,2409.29,1073.4Z" transform="translate(-25.38 102.51)"/><path class="cls-13" d="M2403.82,902s70.51,5,87.46,42.75,22.34,163.33.77,200.31c0,0-29.7,8.46-82.23-1.37l-1.94-.37s-16.76-41-1.73-49.11c0,0,44.3,2.31,39.67-12.33S2403.82,902,2403.82,902Z" transform="translate(-25.38 102.51)"/><path class="cls-21" d="M2014.88,920.36c37.93-4.87,47.51,29.63,47.51,29.63l-7.09,23.7c-11.69,1.62-21.92-1.43-31.35-14.92s-12-8.31-18-18.35C1997.8,926.8,2010.52,921.73,2014.88,920.36Z" transform="translate(-25.38 102.51)"/><path class="cls-21" d="M2123.19,982.11c5.66,2.55,15.92,7.32,26.4,12.22-5.61,10-12.62,28.06-14.49,58-11.27-7-25.86-18.64-38.32-30.87-20-19.62-41.19-47.75-41.19-47.75l7.09-23.7S2107.26,974.92,2123.19,982.11Z" transform="translate(-25.38 102.51)"/><path class="cls-24" d="M556.07,858.85s-92.5,95.49-96.94,131.49,44,92.34,44,92.34Z" transform="translate(-25.38 102.51)"/><path class="cls-6" d="M595.62,1849.44s3.15,50.77,13,51.49c1.3.1,49.81.1,49.81.1h61.92s-.4-15.28-18.5-18.43-48.4-15.88-59.36-39.8C630.92,1817.63,595.62,1849.44,595.62,1849.44Z" transform="translate(-25.38 102.51)"/><path class="cls-6" d="M457.7,1849.44s3.15,50.77,13,51.49c1.31.1,49.81.1,49.81.1l62.11-.22s-.59-15.06-18.69-18.21-48.4-15.88-59.36-39.8C493,1817.63,457.7,1849.44,457.7,1849.44Z" transform="translate(-25.38 102.51)"/><path class="cls-11" d="M664.19,1305.07s-16.19,103.58-76.6,287.44S518.94,1856,518.94,1856a266,266,0,0,1-33.6,2.37c-10.92,0-31.21-4.18-31.21-4.18s-.55-200.94,27.29-293.4,6-333.33,6-333.33Z" transform="translate(-25.38 102.51)"/><path class="cls-10" d="M695.73,1233.13S698,1389.21,671,1580.85s-17.85,273-17.85,273-22.23,4-30,4.24c-8.36.27-34.64-2.1-34.64-2.1s-38.65-191.71-27.57-287.63S508,1239.21,508,1239.21Z" transform="translate(-25.38 102.51)"/><path class="cls-21" d="M570.52,867.87,601,890.47l44.09-9.29c-.61-4-3.52-20.68-6.17-35.77-.16-.89-.32-1.78-.47-2.65-2.27-12.85-4.23-23.88-4.23-23.88l-41.18-20.52-15.36-7.65c0,.27,1.2,14.25,1.36,16.29C582,843.25,570.52,867.87,570.52,867.87Z" transform="translate(-25.38 102.51)"/><path class="cls-24" d="M642,856.47c-1-.41-60-17.82-66.38-15.7s-10.21,14.52-10.21,14.52L662,877.11S654.36,861.66,642,856.47Z" transform="translate(-25.38 102.51)"/><path class="cls-25" d="M483.14,1252.4c10,45.62,176.46,51,219.37,9.62,4.88-4.72,5.12-26.69,3.28-56.3-3.6-57.86-15.16-144.9-15.61-189.37-.22-21.47-3.17-43.44-7.1-63.38A515.63,515.63,0,0,0,662,877.1s-81.3-26.28-96.52-21.81C492.15,876.82,473.13,1206.77,483.14,1252.4Z" transform="translate(-25.38 102.51)"/><path class="cls-24" d="M705.79,1205.72c-3.6-57.86-15.16-144.9-15.61-189.37-.22-21.47-3.17-43.44-7.1-63.38l-48.91-8.63S586.35,1139.65,705.79,1205.72Z" transform="translate(-25.38 102.51)"/><path class="cls-21" d="M679.3,1125.07s-3.33,8,3.67,13.32,11.54,14,9.94,20.35-17,16.67-22.28,15-16.16-10-15-13.35-7.28-29.32,5.69-39.33S679.3,1125.07,679.3,1125.07Z" transform="translate(-25.38 102.51)"/><path class="cls-25" d="M624.61,865.4s47.7,8.92,85.71,64.93,63,97.66,56,117.84-70.82,90.2-81.82,90.2-28.76-8-29.76-26c0,0,44.93-67.34,36.08-77.43-3.78-4.31-58.33-48.6-66.12-28.59C611.83,1039.45,624.61,865.4,624.61,865.4Z" transform="translate(-25.38 102.51)"/><path class="cls-26" d="M582.16,807.64c9,17.3,42.73,32.27,56.79,37.77-.16-.89-.32-1.78-.47-2.65-2.27-12.85-4.23-23.88-4.23-23.88l-41.18-20.52C584,798.22,578.43,800.52,582.16,807.64Z" transform="translate(-25.38 102.51)"/><path class="cls-21" d="M647.51,819.82s-61,19-72.21-19.13S548.59,739.31,587,725.56s50.33-1.44,57.19,10.38S663.08,813.89,647.51,819.82Z" transform="translate(-25.38 102.51)"/><path class="cls-6" d="M641.83,732.26s-3.89,44.39-13.06,42.46-17.51-3.35-16.16,10,14.07,28.83-14.22,31.19-69-70.59-61.19-84.4C559.63,691.69,674.24,683.64,641.83,732.26Z" transform="translate(-25.38 102.51)"/><path class="cls-15" d="M2789.81,1908.16H210.19a3.7,3.7,0,0,1-3.7-3.7h0a3.71,3.71,0,0,1,3.7-3.7H2789.81a3.71,3.71,0,0,1,3.7,3.7h0A3.7,3.7,0,0,1,2789.81,1908.16Z" transform="translate(-25.38 102.51)"/></svg>