<svg xmlns="http://www.w3.org/2000/svg" viewBox="0 0 750 399.15"><defs><style>.cls-1{fill:#e0e0e0;}.cls-2{fill:#e6e6e6;}.cls-3{fill:#ebebeb;}.cls-4{fill:#fafafa;}.cls-5{fill:#f5f5f5;}.cls-6{fill:#263238;}.cls-16,.cls-17,.cls-20,.cls-21,.cls-26,.cls-29,.cls-7,.cls-9{fill:#fff;}.cls-8{fill:#407bff;}.cls-9{font-size:17.07px;}.cls-21,.cls-9{font-family:Montserrat-SemiBold, Montserrat SemiBold;font-weight:600;}.cls-10{letter-spacing:-0.01em;}.cls-11{letter-spacing:0em;}.cls-12{letter-spacing:0em;}.cls-13{letter-spacing:0em;}.cls-14{opacity:0.5;}.cls-14,.cls-16,.cls-17,.cls-18,.cls-26,.cls-28,.cls-29{isolation:isolate;}.cls-15,.cls-18,.cls-32{opacity:0.3;}.cls-16,.cls-33,.cls-36{opacity:0.2;}.cls-17{opacity:0.4;}.cls-19,.cls-27,.cls-30,.cls-32,.cls-36{fill:none;stroke-linecap:round;stroke-linejoin:round;}.cls-19,.cls-30,.cls-32,.cls-36{stroke:#000;}.cls-19,.cls-32{stroke-width:0.25px;}.cls-19,.cls-30{opacity:0.6;}.cls-20{opacity:0.7;}.cls-21{font-size:14.08px;}.cls-22{letter-spacing:-0.01em;}.cls-23{letter-spacing:-0.04em;}.cls-24{letter-spacing:-0.07em;}.cls-25{letter-spacing:0em;}.cls-27{stroke:#407bff;}.cls-27,.cls-30,.cls-36{stroke-width:0.5px;}.cls-29{opacity:0.8;}.cls-31{fill:#e1715b;}.cls-34{fill:#fd504e;}.cls-35{fill:#fb504e;}</style></defs><g id="Background_complete" data-name="Background complete"><path class="cls-1" d="M673.73,333.61H493a5.87,5.87,0,0,1-5.86-5.86V64.47A5.87,5.87,0,0,1,493,58.61H673.73a5.87,5.87,0,0,1,5.87,5.86V327.75A5.87,5.87,0,0,1,673.73,333.61ZM493,58.86a5.61,5.61,0,0,0-5.61,5.61V327.75a5.61,5.61,0,0,0,5.61,5.61H673.73a5.62,5.62,0,0,0,5.62-5.61V64.47a5.62,5.62,0,0,0-5.62-5.61Z" transform="translate(0 -58.61)"/><path class="cls-1" d="M465.31,333.61H284.56a5.87,5.87,0,0,1-5.86-5.86V64.47a5.87,5.87,0,0,1,5.86-5.86H465.31a5.87,5.87,0,0,1,5.86,5.86V327.75A5.87,5.87,0,0,1,465.31,333.61ZM284.56,58.86A5.62,5.62,0,0,0,279,64.47V327.75a5.62,5.62,0,0,0,5.61,5.61H465.31a5.62,5.62,0,0,0,5.61-5.61V64.47a5.62,5.62,0,0,0-5.61-5.61Z" transform="translate(0 -58.61)"/><path class="cls-1" d="M257,333.61H76.27a5.87,5.87,0,0,1-5.87-5.86V64.47a5.87,5.87,0,0,1,5.87-5.86H257a5.87,5.87,0,0,1,5.86,5.86V327.75A5.87,5.87,0,0,1,257,333.61ZM76.27,58.86a5.62,5.62,0,0,0-5.62,5.61V327.75a5.62,5.62,0,0,0,5.62,5.61H257a5.61,5.61,0,0,0,5.61-5.61V64.47A5.61,5.61,0,0,0,257,58.86Z" transform="translate(0 -58.61)"/><rect class="cls-1" y="336.07" width="750" height="0.12"/><path class="cls-2" d="M247.43,121.58a24.94,24.94,0,0,1,35.27,35.27l-14.09,14.09a5,5,0,0,1-7.08,0l-14.1-14.1A24.94,24.94,0,0,1,247.43,121.58Zm17.64,29.23a11.58,11.58,0,1,0-11.58-11.58h0a11.58,11.58,0,0,0,11.58,11.56Z" transform="translate(0 -58.61)"/><g id="freepik--background-complete--inject-481"><polygon class="cls-3" points="662.58 184.04 662.58 136.53 633.17 136.53 633.17 147.37 613.57 147.37 613.57 28.7 575.87 28.7 575.87 75.41 564.56 75.41 564.56 52.08 535.15 52.08 535.15 165.83 493.67 165.83 493.67 125.64 467.67 125.64 467.67 38.51 435.57 38.51 435.57 96.6 405.41 96.6 405.41 221.73 382.04 221.73 382.04 160.8 357.91 160.8 357.91 121.59 332.27 121.59 332.27 91.48 303.67 106.57 303.67 187.11 273.51 187.11 273.51 170.5 233.21 170.5 233.21 287.23 702.22 287.46 702.22 184.04 662.58 184.04"/><path class="cls-2" d="M359.87,345.91V172.23h-32V346.07C338,345.82,359.87,345.91,359.87,345.91Z" transform="translate(0 -58.61)"/><path class="cls-4" d="M330.69,346.07V250.55H264.74v95.31Z" transform="translate(0 -58.61)"/><path class="cls-1" d="M410.82,345.93V205.7H373.46V345.91Z" transform="translate(0 -58.61)"/><rect class="cls-4" x="376.3" y="152.59" width="4.53" height="9.34"/><rect class="cls-4" x="385.35" y="152.59" width="4.53" height="9.34"/><rect class="cls-4" x="394.41" y="152.59" width="4.53" height="9.34"/><rect class="cls-4" x="403.47" y="152.59" width="4.53" height="9.34"/><rect class="cls-4" x="376.3" y="168.26" width="4.53" height="9.34"/><rect class="cls-4" x="385.35" y="168.26" width="4.53" height="9.34"/><rect class="cls-4" x="394.41" y="168.26" width="4.53" height="9.34"/><rect class="cls-4" x="403.47" y="168.26" width="4.53" height="9.34"/><rect class="cls-4" x="376.3" y="183.92" width="4.53" height="9.34"/><rect class="cls-4" x="385.35" y="183.92" width="4.53" height="9.34"/><rect class="cls-4" x="394.41" y="183.92" width="4.53" height="9.34"/><rect class="cls-4" x="403.47" y="183.92" width="4.53" height="9.34"/><rect class="cls-4" x="376.3" y="199.58" width="4.53" height="9.34"/><rect class="cls-4" x="385.35" y="199.58" width="4.53" height="9.34"/><rect class="cls-4" x="394.41" y="199.58" width="4.53" height="9.34"/><rect class="cls-4" x="403.47" y="199.58" width="4.53" height="9.34"/><rect class="cls-4" x="376.3" y="215.24" width="4.53" height="9.34"/><rect class="cls-4" x="385.35" y="215.24" width="4.53" height="9.34"/><rect class="cls-4" x="394.41" y="215.24" width="4.53" height="9.34"/><rect class="cls-4" x="403.47" y="215.24" width="4.53" height="9.34"/><rect class="cls-4" x="376.3" y="230.9" width="4.53" height="9.34"/><rect class="cls-4" x="385.35" y="230.9" width="4.53" height="9.34"/><rect class="cls-4" x="394.41" y="230.9" width="4.53" height="9.34"/><rect class="cls-4" x="403.47" y="230.9" width="4.53" height="9.34"/><rect class="cls-4" x="376.3" y="246.56" width="4.53" height="9.34"/><rect class="cls-4" x="385.35" y="246.56" width="4.53" height="9.34"/><rect class="cls-4" x="394.41" y="246.56" width="4.53" height="9.34"/><rect class="cls-4" x="403.47" y="246.56" width="4.53" height="9.34"/><rect class="cls-4" x="376.3" y="262.23" width="4.53" height="9.34"/><rect class="cls-4" x="385.35" y="262.23" width="4.53" height="9.34"/><rect class="cls-4" x="394.41" y="262.23" width="4.53" height="9.34"/><rect class="cls-4" x="403.47" y="262.23" width="4.53" height="9.34"/><path class="cls-5" d="M540.65,346V185.73H463.19V346.05S540.06,346.07,540.65,346Z" transform="translate(0 -58.61)"/><rect class="cls-2" x="469" y="133.51" width="9.39" height="10.76"/><rect class="cls-2" x="487.8" y="133.51" width="9.39" height="10.76"/><rect class="cls-2" x="506.58" y="133.51" width="9.39" height="10.76"/><rect class="cls-2" x="525.37" y="133.51" width="9.39" height="10.76"/><rect class="cls-2" x="469" y="151.56" width="9.39" height="10.76"/><rect class="cls-2" x="487.8" y="151.56" width="9.39" height="10.76"/><rect class="cls-2" x="506.58" y="151.56" width="9.39" height="10.76"/><rect class="cls-2" x="525.37" y="151.56" width="9.39" height="10.76"/><rect class="cls-2" x="469" y="169.6" width="9.39" height="10.76"/><rect class="cls-2" x="487.8" y="169.6" width="9.39" height="10.76"/><rect class="cls-2" x="506.58" y="169.6" width="9.39" height="10.76"/><rect class="cls-2" x="525.37" y="169.6" width="9.39" height="10.76"/><rect class="cls-2" x="469" y="187.65" width="9.39" height="10.76"/><rect class="cls-2" x="487.8" y="187.65" width="9.39" height="10.76"/><rect class="cls-2" x="506.58" y="187.65" width="9.39" height="10.76"/><rect class="cls-2" x="525.37" y="187.65" width="9.39" height="10.76"/><rect class="cls-2" x="469" y="205.7" width="9.39" height="10.76"/><rect class="cls-2" x="487.8" y="205.7" width="9.39" height="10.76"/><rect class="cls-2" x="506.58" y="205.7" width="9.39" height="10.76"/><rect class="cls-2" x="525.37" y="205.7" width="9.39" height="10.76"/><rect class="cls-2" x="469" y="223.75" width="9.39" height="10.76"/><rect class="cls-2" x="487.8" y="223.75" width="9.39" height="10.76"/><rect class="cls-2" x="506.58" y="223.75" width="9.39" height="10.76"/><rect class="cls-2" x="525.37" y="223.75" width="9.39" height="10.76"/><rect class="cls-2" x="469" y="241.8" width="9.39" height="10.76"/><rect class="cls-2" x="487.8" y="241.8" width="9.39" height="10.76"/><rect class="cls-2" x="506.58" y="241.8" width="9.39" height="10.76"/><rect class="cls-2" x="525.37" y="241.8" width="9.39" height="10.76"/><rect class="cls-2" x="469" y="259.84" width="9.39" height="10.76"/><rect class="cls-2" x="487.8" y="259.84" width="9.39" height="10.76"/><rect class="cls-2" x="506.58" y="259.84" width="9.39" height="10.76"/><rect class="cls-2" x="525.37" y="259.84" width="9.39" height="10.76"/><rect class="cls-4" x="333.74" y="125.42" width="8.65" height="9.92"/><rect class="cls-4" x="333.74" y="142.05" width="8.65" height="9.92"/><rect class="cls-4" x="333.74" y="158.68" width="8.65" height="9.92"/><rect class="cls-4" x="333.74" y="175.31" width="8.65" height="9.92"/><rect class="cls-4" x="333.74" y="191.94" width="8.65" height="9.92"/><rect class="cls-4" x="333.74" y="208.58" width="8.65" height="9.92"/><rect class="cls-4" x="333.74" y="225.2" width="8.65" height="9.92"/><rect class="cls-4" x="333.74" y="241.84" width="8.65" height="9.92"/><rect class="cls-4" x="345.31" y="125.42" width="8.65" height="9.92"/><rect class="cls-4" x="345.31" y="142.05" width="8.65" height="9.92"/><rect class="cls-4" x="345.31" y="158.68" width="8.65" height="9.92"/><rect class="cls-4" x="345.31" y="175.31" width="8.65" height="9.92"/><rect class="cls-4" x="345.31" y="191.94" width="8.65" height="9.92"/><rect class="cls-4" x="345.31" y="208.58" width="8.65" height="9.92"/><rect class="cls-4" x="345.31" y="225.2" width="8.65" height="9.92"/><rect class="cls-4" x="345.31" y="241.84" width="8.65" height="9.92"/><rect class="cls-4" x="442.92" y="50.04" width="9.39" height="10.76"/><rect class="cls-4" x="442.92" y="68.08" width="9.39" height="10.76"/><rect class="cls-4" x="442.92" y="84.89" width="9.39" height="10.76"/><rect class="cls-4" x="442.92" y="102.94" width="9.39" height="10.76"/><rect class="cls-4" x="442.92" y="120.98" width="9.39" height="10.76"/><rect class="cls-4" x="442.92" y="139.04" width="9.39" height="10.76"/><rect class="cls-4" x="442.92" y="157.08" width="9.39" height="10.76"/><rect class="cls-4" x="442.92" y="175.13" width="9.39" height="10.76"/><rect class="cls-4" x="583.99" y="34.39" width="9.39" height="10.76"/><rect class="cls-4" x="583.99" y="52.43" width="9.39" height="10.76"/><rect class="cls-4" x="583.99" y="70.48" width="9.39" height="10.76"/><rect class="cls-4" x="583.99" y="88.53" width="9.39" height="10.76"/><rect class="cls-4" x="583.99" y="106.58" width="9.39" height="10.76"/><rect class="cls-4" x="583.99" y="124.63" width="9.39" height="10.76"/><rect class="cls-4" x="583.99" y="142.68" width="9.39" height="10.76"/><rect class="cls-4" x="583.99" y="160.73" width="9.39" height="10.76"/><rect class="cls-2" x="604.1" y="117.3" width="56.56" height="170.16"/><rect class="cls-4" x="612.47" y="125.69" width="16.58" height="10.76"/><rect class="cls-4" x="612.47" y="143.74" width="16.58" height="10.76"/><rect class="cls-4" x="612.47" y="161.79" width="16.58" height="10.76"/><rect class="cls-4" x="612.47" y="179.84" width="16.58" height="10.76"/><rect class="cls-4" x="612.47" y="197.88" width="16.58" height="10.76"/><rect class="cls-4" x="612.47" y="215.93" width="16.58" height="10.76"/><rect class="cls-4" x="612.47" y="233.98" width="16.58" height="10.76"/><rect class="cls-4" x="612.47" y="252.03" width="16.58" height="10.76"/><rect class="cls-4" x="634.65" y="125.69" width="16.58" height="10.76"/><rect class="cls-4" x="634.65" y="143.74" width="16.58" height="10.76"/><rect class="cls-4" x="634.65" y="161.79" width="16.58" height="10.76"/><rect class="cls-4" x="634.65" y="179.84" width="16.58" height="10.76"/><rect class="cls-4" x="634.65" y="197.88" width="16.58" height="10.76"/><rect class="cls-4" x="634.65" y="215.93" width="16.58" height="10.76"/><rect class="cls-4" x="634.65" y="233.98" width="16.58" height="10.76"/><rect class="cls-4" x="634.65" y="252.03" width="16.58" height="10.76"/><path class="cls-1" d="M573.26,346V228.22H548.59V346Z" transform="translate(0 -58.61)"/><rect class="cls-4" x="550.46" y="174.37" width="2.99" height="8.02"/><rect class="cls-4" x="556.44" y="174.37" width="2.99" height="8.02"/><rect class="cls-4" x="562.41" y="174.37" width="2.99" height="8.02"/><rect class="cls-4" x="568.4" y="174.37" width="2.99" height="8.02"/><rect class="cls-4" x="550.46" y="187.83" width="2.99" height="8.02"/><rect class="cls-4" x="556.44" y="187.83" width="2.99" height="8.02"/><rect class="cls-4" x="562.41" y="187.83" width="2.99" height="8.02"/><rect class="cls-4" x="568.4" y="187.83" width="2.99" height="8.02"/><rect class="cls-4" x="550.46" y="201.28" width="2.99" height="8.02"/><rect class="cls-4" x="556.44" y="201.28" width="2.99" height="8.02"/><rect class="cls-4" x="562.41" y="201.28" width="2.99" height="8.02"/><rect class="cls-4" x="568.4" y="201.28" width="2.99" height="8.02"/><rect class="cls-4" x="550.46" y="214.74" width="2.99" height="8.02"/><rect class="cls-4" x="556.44" y="214.74" width="2.99" height="8.02"/><rect class="cls-4" x="562.41" y="214.74" width="2.99" height="8.02"/><rect class="cls-4" x="568.4" y="214.74" width="2.99" height="8.02"/><rect class="cls-4" x="550.46" y="228.2" width="2.99" height="8.02"/><rect class="cls-4" x="556.44" y="228.2" width="2.99" height="8.02"/><rect class="cls-4" x="562.41" y="228.2" width="2.99" height="8.02"/><rect class="cls-4" x="568.4" y="228.2" width="2.99" height="8.02"/><rect class="cls-4" x="550.46" y="241.66" width="2.99" height="8.02"/><rect class="cls-4" x="556.44" y="241.66" width="2.99" height="8.02"/><rect class="cls-4" x="562.41" y="241.66" width="2.99" height="8.02"/><rect class="cls-4" x="568.4" y="241.66" width="2.99" height="8.02"/><rect class="cls-4" x="550.46" y="255.11" width="2.99" height="8.02"/><rect class="cls-4" x="556.44" y="255.11" width="2.99" height="8.02"/><rect class="cls-4" x="562.41" y="255.11" width="2.99" height="8.02"/><rect class="cls-4" x="568.4" y="255.11" width="2.99" height="8.02"/><rect class="cls-4" x="550.46" y="268.57" width="2.99" height="8.02"/><rect class="cls-4" x="556.44" y="268.57" width="2.99" height="8.02"/><rect class="cls-4" x="562.41" y="268.57" width="2.99" height="8.02"/><rect class="cls-4" x="568.4" y="268.57" width="2.99" height="8.02"/><rect class="cls-2" x="269.73" y="195.93" width="8" height="6.73"/><rect class="cls-2" x="285.72" y="195.93" width="8" height="6.73"/><rect class="cls-2" x="301.7" y="195.93" width="8" height="6.73"/><rect class="cls-2" x="317.7" y="195.93" width="8" height="6.73"/><rect class="cls-2" x="269.73" y="207.22" width="8" height="6.73"/><rect class="cls-2" x="285.72" y="207.22" width="8" height="6.73"/><rect class="cls-2" x="301.7" y="207.22" width="8" height="6.73"/><rect class="cls-2" x="317.7" y="207.22" width="8" height="6.73"/><rect class="cls-2" x="269.73" y="218.5" width="8" height="6.73"/><rect class="cls-2" x="285.72" y="218.5" width="8" height="6.73"/><rect class="cls-2" x="301.7" y="218.5" width="8" height="6.73"/><rect class="cls-2" x="317.7" y="218.5" width="8" height="6.73"/><rect class="cls-2" x="269.73" y="229.79" width="8" height="6.73"/><rect class="cls-2" x="285.72" y="229.79" width="8" height="6.73"/><rect class="cls-2" x="301.7" y="229.79" width="8" height="6.73"/><rect class="cls-2" x="317.7" y="229.79" width="8" height="6.73"/><rect class="cls-2" x="269.73" y="241.06" width="8" height="6.73"/><rect class="cls-2" x="285.72" y="241.06" width="8" height="6.73"/><rect class="cls-2" x="301.7" y="241.06" width="8" height="6.73"/><rect class="cls-2" x="317.7" y="241.06" width="8" height="6.73"/><rect class="cls-2" x="269.73" y="252.35" width="8" height="6.73"/><rect class="cls-2" x="285.72" y="252.35" width="8" height="6.73"/><rect class="cls-2" x="301.7" y="252.35" width="8" height="6.73"/><rect class="cls-2" x="317.7" y="252.35" width="8" height="6.73"/><rect class="cls-2" x="269.73" y="263.63" width="8" height="6.73"/><rect class="cls-2" x="285.72" y="263.63" width="8" height="6.73"/><rect class="cls-2" x="301.7" y="263.63" width="8" height="6.73"/><rect class="cls-2" x="317.7" y="263.63" width="8" height="6.73"/></g><rect class="cls-3" x="653.63" y="365.44" width="55.73" height="0.42"/><rect class="cls-3" x="495.04" y="370.01" width="14.63" height="0.42"/><rect class="cls-3" x="40.64" y="352.65" width="72.67" height="0.42"/><rect class="cls-3" x="128.3" y="352.65" width="10.66" height="0.42"/><rect class="cls-3" x="173.59" y="359.75" width="157.61" height="0.42"/></g><g id="Shadow"><path class="cls-5" d="M657,451.63c0,3.39-117.57,6.13-262.6,6.13s-262.6-2.74-262.6-6.13,117.57-6.13,262.6-6.13S657,448.25,657,451.63Z" transform="translate(0 -58.61)"/></g><g id="Device"><path class="cls-6" d="M57.79,25.3H198.14a13.14,13.14,0,0,1,13.14,13.14V330.33a17,17,0,0,1-17,17H61.68a17,17,0,0,1-17-17V38.44A13.14,13.14,0,0,1,57.79,25.3Z"/><path class="cls-7" d="M162.51,91.14l-2.67,5.27H94.64l-3.88-5.27H59.94A8.88,8.88,0,0,0,51,100v284.1a13.41,13.41,0,0,0,13.5,13.33H191.43a13.41,13.41,0,0,0,13.49-13.33V100A8.88,8.88,0,0,0,196,91.14Z" transform="translate(0 -58.61)"/><path class="cls-7" d="M127.89,90.64A2.68,2.68,0,1,1,125.21,88,2.68,2.68,0,0,1,127.89,90.64Z" transform="translate(0 -58.61)"/><path class="cls-7" d="M131.85,90.64a1.34,1.34,0,1,1-1.34-1.34A1.34,1.34,0,0,1,131.85,90.64Z" transform="translate(0 -58.61)"/><path class="cls-8" d="M196,91.14H162.51l-2.67,5.27H94.64l-3.88-5.27H59.94A8.88,8.88,0,0,0,51,100v72.69H204.92V100A8.88,8.88,0,0,0,196,91.14Z" transform="translate(0 -58.61)"/><text class="cls-9" transform="translate(90.68 93.14)"><tspan class="cls-10">C</tspan><tspan x="9.78" y="0">ar </tspan><tspan class="cls-11" x="27.2" y="0">R</tspan><tspan class="cls-12" x="36.45" y="0">e</tspan><tspan class="cls-13" x="45" y="0">n</tspan><tspan x="54.4" y="0">tal</tspan></text><path class="cls-7" d="M144.57,128.38v-5.29A1.39,1.39,0,0,0,144,122h0l-.12-.07-3.75-2h0l0,0a.16.16,0,0,1-.06-.08.2.2,0,0,1,.12-.26l.45-.16a.14.14,0,0,0,.08-.09.12.12,0,0,0-.1-.12c-1.78-.25-8.71-1.15-12.35-.71A10.06,10.06,0,0,0,126,119h0a19.58,19.58,0,0,0-5.54,3.2l-.55.45a17.58,17.58,0,0,0-7.22,1.5,1.59,1.59,0,0,0-.85.93l-.42,1.26a1.43,1.43,0,0,0-.09.5v2.66a1.29,1.29,0,0,0,.92,1.24l.21.07a1.52,1.52,0,0,0,.42.06h0l1.43,0,0-.12h.62a3.13,3.13,0,0,0,.77,1.29,3,3,0,0,0,5.08-1.43l.62,0,0,.14h0l14.25-.34H136s0-.09,0-.13h.6a3,3,0,0,0,6-.14l.6,0v0h0l.06,0,.28-.13h0l.21-.09a1.37,1.37,0,0,0,.81-1.25v-.14Z" transform="translate(0 -58.61)"/><polygon class="cls-6" points="182.89 215.19 67.05 217.9 67.05 198.09 184 198.09 182.89 215.19"/><polygon class="cls-14" points="182.89 215.19 67.05 217.9 67.05 198.09 184 198.09 182.89 215.19"/><g id="freepik--Car--inject-7"><path class="cls-8" d="M62.59,261.78v10.05a4.89,4.89,0,0,0,3.46,4.69l.82.25a4.83,4.83,0,0,0,1.56.22l5.41-.13a13.71,13.71,0,1,1,26.52-.63l55.05-1.31a14,14,0,0,1-.13-1.94,13.71,13.71,0,1,1,27.41.12c0,.27,0,.53,0,.79l.22-.09,1.88-.84a5.19,5.19,0,0,0,3-4.73V247.77a5.17,5.17,0,0,0-2.77-4.59l-14.15-7.44a.8.8,0,0,1-.35-.4.75.75,0,0,1,.45-1l1.73-.62a.42.42,0,0,0,.27-.33.4.4,0,0,0-.35-.45c-6.72-.94-32.87-4.36-46.62-2.68C110.18,232.24,95,246,95,246c-11.67-.44-22.56,3.63-27.25,5.66a5.83,5.83,0,0,0-3.2,3.5l-1.61,4.75A6,6,0,0,0,62.59,261.78Z" transform="translate(0 -58.61)"/><path class="cls-6" d="M155.42,274.92a13.79,13.79,0,0,1-.12-1.82c0-.31,0-.62,0-.92l-10-4.08a4.27,4.27,0,0,0-1.84-.3l-34.63,2.28a4,4,0,0,0-1.62.44l-6.58,3.39a13.94,13.94,0,0,1-.33,2.32Z" transform="translate(0 -58.61)"/><path class="cls-6" d="M187.83,268.23v-.52l-5.63,1.72a14.23,14.23,0,0,1,.49,3.67c0,.27,0,.53,0,.79l.22-.09,1.89-.84A5.2,5.2,0,0,0,187.83,268.23Z" transform="translate(0 -58.61)"/><path class="cls-6" d="M64.19,275.44a4.79,4.79,0,0,0,1.88,1.08l.82.25a4.83,4.83,0,0,0,1.56.22l5.41-.13a13.36,13.36,0,0,1-.43-2.09Z" transform="translate(0 -58.61)"/><path class="cls-6" d="M169,258.1a14.52,14.52,0,0,0-1.86.12,15,15,0,0,0-13,16.73l1.3,0a14,14,0,0,1-.13-1.94,13.71,13.71,0,1,1,27.41.12c0,.27,0,.53,0,.79l.22-.09,1.08-.49v-.21a15,15,0,0,0-15-15Z" transform="translate(0 -58.61)"/><path class="cls-6" d="M87,258.1a15.17,15.17,0,0,0-3.8.49,15,15,0,0,0-10.72,18.3l1.34,0a13.71,13.71,0,1,1,26.52-.63l1.32,0a14.73,14.73,0,0,0,.33-3.11,15,15,0,0,0-15-15Z" transform="translate(0 -58.61)"/><path class="cls-6" d="M100.17,245.76a.81.81,0,0,0-.31.48.86.86,0,0,0,.64,1l5.75,1.32a4.81,4.81,0,0,0,1.56.08l42.33-5.26a4.52,4.52,0,0,0,2.7-1.36l5.45-5.77a1.16,1.16,0,0,0,.32-.7,1.18,1.18,0,0,0-1.06-1.29c-10.18-1-23.05-1.91-31.14-.92C115.8,234.67,105.24,241.84,100.17,245.76Z" transform="translate(0 -58.61)"/><g class="cls-15"><path d="M128,250.62a.52.52,0,0,1-.31-.67h0a.86.86,0,0,1,.79-.58l5.05-.21a.36.36,0,0,1,.2,0,.53.53,0,0,1,.32.67h0a.88.88,0,0,1-.8.58l-5.05.21A.69.69,0,0,1,128,250.62Z" transform="translate(0 -58.61)"/></g><path class="cls-6" d="M165.54,236.15a1.1,1.1,0,0,0-.09,1.53l1.2,1.3a1.12,1.12,0,0,0,.51.31l14.67,4.07a2.88,2.88,0,0,0,.78.1h2.91a5.3,5.3,0,0,0-.47-.28l-14.15-7.45h0a.71.71,0,0,1-.32-1l-4.6,1.15A1.1,1.1,0,0,0,165.54,236.15Z" transform="translate(0 -58.61)"/><path class="cls-6" d="M95,246l.8.23a2,2,0,0,0,1.78-.38c4.64-3.93,12.7-10,21.4-12.75a.14.14,0,0,0,.09-.08.16.16,0,0,0-.06-.22l-1.08-.55C105.36,236.59,95,246,95,246Z" transform="translate(0 -58.61)"/><path class="cls-16" d="M142.56,251.29l-42.18,3,.79,5.2A10.9,10.9,0,0,0,102.9,264l3.53,5.27,36-4.86,17-13.08Z" transform="translate(0 -58.61)"/><circle class="cls-6" cx="169.01" cy="214.48" r="11.42"/><circle class="cls-17" cx="169.01" cy="214.48" r="7"/><g class="cls-15"><rect class="cls-7" x="168.45" y="208.19" width="1.12" height="4.71" rx="0.56"/></g><g class="cls-15"><rect class="cls-7" x="168.45" y="216.08" width="1.12" height="4.71" rx="0.56"/></g><g class="cls-15"><path class="cls-7" d="M171.15,272.51a.57.57,0,0,1-.77-.21h0a.56.56,0,0,1,.21-.76l3.11-1.81a.56.56,0,0,1,.76.21h0a.55.55,0,0,1-.2.76l-3.11,1.81Z" transform="translate(0 -58.61)"/></g><g class="cls-15"><path class="cls-7" d="M164.32,276.44a.57.57,0,0,1-.77-.21h0a.56.56,0,0,1,.21-.76l3.1-1.81h0a.57.57,0,0,1,.77.21h0a.58.58,0,0,1-.2.77l-3.11,1.8Z" transform="translate(0 -58.61)"/></g><g class="cls-15"><path class="cls-7" d="M173.7,276.45l-3.11-1.8a.57.57,0,0,1-.21-.77h0a.56.56,0,0,1,.77-.2l3.11,1.8a.57.57,0,0,1,.2.77h0A.55.55,0,0,1,173.7,276.45Z" transform="translate(0 -58.61)"/></g><g class="cls-15"><path class="cls-7" d="M167.63,272.3a.57.57,0,0,1-.77.21l-3.1-1.81h0a.56.56,0,0,1-.21-.76h0a.57.57,0,0,1,.77-.21l3.11,1.81h0a.56.56,0,0,1,.2.76Z" transform="translate(0 -58.61)"/></g><path class="cls-6" d="M168.07,273.09a.94.94,0,0,1,.94-.93h0a.94.94,0,1,1-.94.94Z" transform="translate(0 -58.61)"/><circle class="cls-6" cx="87.03" cy="214.49" r="11.42"/><circle class="cls-17" cx="87.03" cy="214.49" r="7"/><g class="cls-15"><rect class="cls-7" x="86.47" y="208.19" width="1.12" height="4.71" rx="0.56"/></g><g class="cls-15"><rect class="cls-7" x="86.47" y="216.08" width="1.12" height="4.71" rx="0.56"/></g><g class="cls-15"><path class="cls-7" d="M89.17,272.51a.56.56,0,0,1-.76-.21h0a.56.56,0,0,1,.2-.76l3.11-1.81h0a.56.56,0,0,1,.76.21h0a.56.56,0,0,1-.21.76l-3.1,1.81Z" transform="translate(0 -58.61)"/></g><g class="cls-15"><path class="cls-7" d="M81.58,276.23h0a.55.55,0,0,1,.2-.76l3.11-1.81a.57.57,0,0,1,.77.21h0a.57.57,0,0,1-.21.77l-3.1,1.8A.57.57,0,0,1,81.58,276.23Z" transform="translate(0 -58.61)"/></g><g class="cls-15"><path class="cls-7" d="M92.49,276.25a.56.56,0,0,1-.77.2l-3.11-1.8a.58.58,0,0,1-.2-.77h0a.56.56,0,0,1,.77-.2l3.1,1.8h0a.57.57,0,0,1,.21.77Z" transform="translate(0 -58.61)"/></g><g class="cls-15"><path class="cls-7" d="M85.65,272.31a.56.56,0,0,1-.76.2l-3.11-1.81h0a.55.55,0,0,1-.2-.76h0a.57.57,0,0,1,.77-.21l3.1,1.81h0a.56.56,0,0,1,.21.76h0Z" transform="translate(0 -58.61)"/></g><path class="cls-6" d="M87,272.16h0a.94.94,0,1,1-1,.94A.94.94,0,0,1,87,272.16Z" transform="translate(0 -58.61)"/><path class="cls-18" d="M186.63,251.56a.73.73,0,0,0,.47-.91c-.13-2.4-.64-4.54-2.11-6a.71.71,0,0,0-.75-.51l-8.7.82a.73.73,0,0,0-.41.18.72.72,0,0,0,0,1l2.49,2.69a.83.83,0,0,0,.32.2l8.33,2.52A.72.72,0,0,0,186.63,251.56Z" transform="translate(0 -58.61)"/><path d="M99.86,246.24a.84.84,0,0,0,.64,1l5.75,1.32a4.31,4.31,0,0,0,1.56.08l1.54-.19,1.84-9.88a80.58,80.58,0,0,0-11,7.16A.83.83,0,0,0,99.86,246.24Z" transform="translate(0 -58.61)"/><path d="M136.88,233l-3.4,12.52,4.81-.59L140.14,233Z" transform="translate(0 -58.61)"/><path d="M158.62,235.57a1.19,1.19,0,0,0-1.06-1.29c-1.36-.14-2.8-.27-4.25-.4l-.54,8.24.07-.07,5.45-5.77A1.23,1.23,0,0,0,158.62,235.57Z" transform="translate(0 -58.61)"/><path class="cls-8" d="M109.18,246.68a2.06,2.06,0,0,1-2.07-2.07h0a2.07,2.07,0,0,1,1.62-2l2.77-.61.65,4.63-2.92.07Z" transform="translate(0 -58.61)"/><polygon class="cls-18" points="111.34 188.02 112.15 187.99 111.5 183.36 110.71 183.54 111.34 188.02"/></g><path class="cls-19" d="M137.89,244.13s.39,6.1,0,8.05-3.43,16.22-3.43,16.22" transform="translate(0 -58.61)"/><path class="cls-19" d="M99.86,246.63s.78,13.18,2.17,15.67,5.26,8.22,5.26,8.22" transform="translate(0 -58.61)"/><path class="cls-19" d="M96.56,246.29S86.84,248.7,84,249.16A121,121,0,0,0,69.2,253" transform="translate(0 -58.61)"/><rect class="cls-6" x="97.04" y="139.71" width="67.64" height="6.71"/><rect class="cls-20" x="97.04" y="139.71" width="67.64" height="6.71"/><rect class="cls-6" x="103.36" y="243.92" width="60.23" height="6.71"/><rect class="cls-20" x="103.36" y="243.92" width="60.23" height="6.71"/><rect class="cls-6" x="103.36" y="257.82" width="18.12" height="6.71"/><rect class="cls-20" x="103.36" y="257.82" width="18.12" height="6.71"/><rect class="cls-8" x="77.51" y="284.3" width="104.81" height="32.88"/><rect class="cls-18" x="172.43" y="284.3" width="9.89" height="32.88"/><text class="cls-21" transform="translate(94.04 305.17)"><tspan class="cls-22">C</tspan><tspan x="8.07" y="0">all</tspan><tspan class="cls-23" x="21.5" y="0"> </tspan><tspan class="cls-24" x="23.9" y="0">T</tspan><tspan x="29.9" y="0">o </tspan><tspan class="cls-25" x="40.62" y="0">B</tspan><tspan x="48.3" y="0">ook</tspan></text><path class="cls-6" d="M81.39,301.27a8.06,8.06,0,0,1,11.39,11.39l-4.55,4.55a1.62,1.62,0,0,1-2.29,0l-4.55-4.55A8.06,8.06,0,0,1,81.39,301.27Zm5.7,9.44A3.74,3.74,0,1,0,83.35,307h0a3.73,3.73,0,0,0,3.74,3.73Z" transform="translate(0 -58.61)"/><path class="cls-20" d="M81.39,301.27a8.06,8.06,0,0,1,11.39,11.39l-4.55,4.55a1.62,1.62,0,0,1-2.29,0l-4.55-4.55A8.06,8.06,0,0,1,81.39,301.27Zm5.7,9.44A3.74,3.74,0,1,0,83.35,307h0a3.73,3.73,0,0,0,3.74,3.73Z" transform="translate(0 -58.61)"/><path class="cls-26" d="M74.2,253.58l-5-.55-2.88,1.18a2.09,2.09,0,0,0-1.22,1.4h0a1.46,1.46,0,0,0,.15,1.08l0,.09a1.58,1.58,0,0,0,1.58.77l2.89-.4a1.69,1.69,0,0,0,.77-.32l3.33-2.52Z" transform="translate(0 -58.61)"/></g><g id="Speech_Bubble" data-name="Speech Bubble"><circle class="cls-8" cx="371.15" cy="194.23" r="21.21" transform="translate(145.05 488.25) rotate(-84.96)"/><polygon class="cls-8" points="379.48 150 378.01 155.25 384.09 158.49 384.83 151.76 379.48 150"/><path class="cls-27" d="M388.38,175.32A21,21,0,0,1,397,193.21" transform="translate(0 -58.61)"/><path class="cls-27" d="M396.66,196.36a7.74,7.74,0,0,1-.58,3.08" transform="translate(0 -58.61)"/><g class="cls-28"><polygon class="cls-7" points="370.76 144.55 360.08 137.41 362.57 133.68 369.73 138.47 378.64 126.68 382.22 129.38 370.76 144.55"/></g></g><g id="Character"><polygon class="cls-6" points="695.14 343.58 200.53 355.18 200.53 270.58 699.9 270.58 695.14 343.58"/><polygon class="cls-14" points="695.14 343.58 200.53 355.18 200.53 270.58 699.9 270.58 695.14 343.58"/><g id="freepik--Car--inject-7-2" data-name="freepik--Car--inject-7"><path class="cls-8" d="M181.51,350.9v42.9a20.94,20.94,0,0,0,14.77,20l3.49,1.06a20.87,20.87,0,0,0,6.66.93l23.1-.54a58.52,58.52,0,1,1,113.23-2.7l235-5.59a57.3,57.3,0,0,1-.55-8.28,58.52,58.52,0,1,1,117,.51c0,1.14-.1,2.26-.1,3.39.31-.13.63-.25.94-.4l8-3.59a22.15,22.15,0,0,0,13-20.18V291.05a22.1,22.1,0,0,0-11.83-19.58L644,239.7a3.19,3.19,0,0,1,.4-5.81l7.39-2.65a1.72,1.72,0,0,0-.34-3.34c-28.7-4-140.35-18.6-199-11.43-67.7,8.29-132.58,67-132.58,67C270,281.64,223.47,299,203.45,307.69a25,25,0,0,0-13.69,14.92l-6.85,20.3A25,25,0,0,0,181.51,350.9Z" transform="translate(0 -58.61)"/><path class="cls-6" d="M577.87,407a59.29,59.29,0,0,1-.51-7.77c0-1.33,0-2.64.13-3.94L535,377.88a17.87,17.87,0,0,0-7.85-1.28l-147.84,9.7a17.63,17.63,0,0,0-6.93,1.91l-28.09,14.45a60.23,60.23,0,0,1-1.43,9.91Z" transform="translate(0 -58.61)"/><path class="cls-6" d="M716.22,378.43V376.2l-24,7.36a59.1,59.1,0,0,1,2.11,15.65c0,1.14-.1,2.26-.1,3.39.31-.13.63-.25.94-.4l8.06-3.59A22.15,22.15,0,0,0,716.22,378.43Z" transform="translate(0 -58.61)"/><path class="cls-6" d="M188.33,409.2a21,21,0,0,0,8,4.62l3.5,1.06a20.81,20.81,0,0,0,6.65.93l23.1-.54a57.54,57.54,0,0,1-1.8-8.92Z" transform="translate(0 -58.61)"/><path class="cls-6" d="M635.93,335.19a64,64,0,0,0-63.53,71.93L578,407a57.3,57.3,0,0,1-.55-8.28,58.52,58.52,0,1,1,117,.51c0,1.14-.09,2.26-.09,3.39.31-.13.63-.25.94-.4l4.62-2.1v-.89a64.09,64.09,0,0,0-64-64Z" transform="translate(0 -58.61)"/><path class="cls-6" d="M285.87,335.19a64,64,0,0,0-62,80.2l5.68-.12a58.52,58.52,0,1,1,113.24-2.7l5.67-.13a64,64,0,0,0-62.64-77.25Z" transform="translate(0 -58.61)"/><path class="cls-8" d="M341.58,286a4.25,4.25,0,0,0-1.37,2.35,4.2,4.2,0,0,0,2.66,5l24.43,6.85a16.7,16.7,0,0,0,6.63.5L555.1,278.25a18.49,18.49,0,0,0,11.63-6.45l23.76-27.69a6,6,0,0,0,1.43-3.38c.32-3.15-1.65-6-4.42-6.35-43.38-5.75-98.23-11-132.86-6.75C409.25,233.17,363.54,267.29,341.58,286Z" transform="translate(0 -58.61)"/><path class="cls-29" d="M342.4,286a4.26,4.26,0,0,0-1.38,2.35,4.21,4.21,0,0,0,2.67,5l24.43,6.85a16.7,16.7,0,0,0,6.63.5l177.11-12.14c4.41-.56,11.22-8.67,16-15.24l23.41-29.21a6.18,6.18,0,0,0,1.43-3.38c.32-3.15-1.66-6-4.42-6.35-43.38-5.75-98.23-11-132.87-6.75C410.06,233.17,364.36,267.29,342.4,286Z" transform="translate(0 -58.61)"/><g class="cls-15"><path d="M460.74,303.23a2.23,2.23,0,0,1-1.34-2.86h0a3.73,3.73,0,0,1,3.37-2.48l21.56-.91a2.28,2.28,0,0,1,.86.13,2.25,2.25,0,0,1,1.36,2.88h0a3.79,3.79,0,0,1-3.39,2.48l-21.56.89A2.31,2.31,0,0,1,460.74,303.23Z" transform="translate(0 -58.61)"/></g><path class="cls-8" d="M621.08,241.46a4.61,4.61,0,0,0-.38,6.52l5.11,5.56a4.73,4.73,0,0,0,2.16,1.31l62.63,17.37a13.44,13.44,0,0,0,3.34.45h12.44a20,20,0,0,0-2-1.2L644,239.66h0a3.07,3.07,0,0,1-1.39-4.12L623,240.45A4.67,4.67,0,0,0,621.08,241.46Z" transform="translate(0 -58.61)"/><path class="cls-26" d="M231.07,315.86l-21.37-2.33-12.27,5a8.8,8.8,0,0,0-5.2,6h0a6.17,6.17,0,0,0,.63,4.62l.22.37a6.73,6.73,0,0,0,6.74,3.3l12.32-1.7a7.18,7.18,0,0,0,3.31-1.37L229.67,319Z" transform="translate(0 -58.61)"/><path class="cls-8" d="M319.85,283.48l3.4,1a8.28,8.28,0,0,0,7.59-1.63c19.81-16.76,54.24-42.46,91.4-54.44a.73.73,0,0,0,.39-.32.69.69,0,0,0-.27-.95l-4.62-2.37C364.14,243.33,319.85,283.48,319.85,283.48Z" transform="translate(0 -58.61)"/><path class="cls-29" d="M319.85,283.48l3.4,1a8.28,8.28,0,0,0,7.59-1.63c19.81-16.76,54.24-42.46,91.4-54.44a.73.73,0,0,0,.39-.32.69.69,0,0,0-.27-.95l-4.62-2.37C364.14,243.33,319.85,283.48,319.85,283.48Z" transform="translate(0 -58.61)"/><path class="cls-16" d="M522.94,306.1,342.84,319l3.39,22.21a46.9,46.9,0,0,0,7.39,19l15.05,22.5,153.72-20.79,72.67-55.82Z" transform="translate(0 -58.61)"/><circle class="cls-6" cx="635.87" cy="340.59" r="48.76"/><circle class="cls-17" cx="635.87" cy="340.59" r="29.89"/><g class="cls-15"><rect class="cls-7" x="633.48" y="313.71" width="4.79" height="20.1" rx="2.39"/></g><g class="cls-15"><rect class="cls-7" x="633.48" y="347.39" width="4.79" height="20.1" rx="2.39"/></g><g class="cls-15"><path class="cls-7" d="M645,396.7a2.39,2.39,0,0,1-3.26-.9h0a2.39,2.39,0,0,1,.88-3.26l13.26-7.7a2.4,2.4,0,0,1,3.28.88h0a2.4,2.4,0,0,1-.88,3.26L645,396.68Z" transform="translate(0 -58.61)"/></g><g class="cls-15"><path class="cls-7" d="M615.84,413.47a2.39,2.39,0,0,1-3.26-.88h0a2.38,2.38,0,0,1,.88-3.25l13.26-7.7h0a2.4,2.4,0,0,1,3.27.87h0a2.41,2.41,0,0,1-.87,3.28l-13.27,7.7Z" transform="translate(0 -58.61)"/></g><g class="cls-15"><path class="cls-7" d="M655.89,413.53l-13.26-7.7a2.4,2.4,0,0,1-.88-3.28h0a2.4,2.4,0,0,1,3.28-.86l13.26,7.7a2.4,2.4,0,0,1,.88,3.26h0A2.4,2.4,0,0,1,655.89,413.53Z" transform="translate(0 -58.61)"/></g><g class="cls-15"><path class="cls-7" d="M630,395.81a2.39,2.39,0,0,1-3.26.87L613.46,389h0a2.39,2.39,0,0,1-.87-3.26h0a2.39,2.39,0,0,1,3.26-.87l13.27,7.7h0a2.39,2.39,0,0,1,.87,3.26h0Z" transform="translate(0 -58.61)"/></g><path class="cls-6" d="M631.86,399.19a4,4,0,0,1,4-4h0a4,4,0,1,1-4,4Z" transform="translate(0 -58.61)"/><circle class="cls-6" cx="285.87" cy="340.6" r="48.76"/><circle class="cls-17" cx="285.87" cy="340.6" r="29.89"/><g class="cls-15"><rect class="cls-7" x="283.47" y="313.71" width="4.79" height="20.1" rx="2.39"/></g><g class="cls-15"><rect class="cls-7" x="283.47" y="347.39" width="4.79" height="20.1" rx="2.39"/></g><g class="cls-15"><path class="cls-7" d="M295,396.7a2.36,2.36,0,0,1-3.23-.9h0a2.37,2.37,0,0,1,.86-3.26l13.27-7.7h0a2.38,2.38,0,0,1,3.26.88h0a2.38,2.38,0,0,1-.88,3.26L295,396.68Z" transform="translate(0 -58.61)"/></g><g class="cls-15"><path class="cls-7" d="M262.57,412.59h0a2.38,2.38,0,0,1,.88-3.25l13.26-7.7a2.4,2.4,0,0,1,3.28.86h0a2.4,2.4,0,0,1-.88,3.28l-13.26,7.7A2.41,2.41,0,0,1,262.57,412.59Z" transform="translate(0 -58.61)"/></g><g class="cls-15"><path class="cls-7" d="M309.15,412.66a2.39,2.39,0,0,1-3.26.87l-13.27-7.7a2.4,2.4,0,0,1-.86-3.28h0a2.37,2.37,0,0,1,3.26-.86l13.26,7.7h0a2.39,2.39,0,0,1,.87,3.26h0Z" transform="translate(0 -58.61)"/></g><g class="cls-15"><path class="cls-7" d="M280,395.83a2.39,2.39,0,0,1-3.27.85L263.45,389h0a2.38,2.38,0,0,1-.88-3.26h0a2.41,2.41,0,0,1,3.28-.88l13.26,7.7h0a2.39,2.39,0,0,1,.87,3.26h0Z" transform="translate(0 -58.61)"/></g><path class="cls-6" d="M285.87,395.19h0a4,4,0,1,1-4,4A4,4,0,0,1,285.87,395.19Z" transform="translate(0 -58.61)"/><path class="cls-18" d="M711.11,307.23a3.08,3.08,0,0,0,2-3.86c-.56-10.26-2.74-19.4-9-25.69a3.07,3.07,0,0,0-3.18-2.17L663.75,279a3.08,3.08,0,0,0-2,5.13l10.64,11.47a3.08,3.08,0,0,0,1.36.85l35.57,10.78A3.16,3.16,0,0,0,711.11,307.23Z" transform="translate(0 -58.61)"/><path class="cls-6" d="M340.21,288.3a4.2,4.2,0,0,0,2.66,5l24.44,6.85a27.08,27.08,0,0,0,6.79,1.16l7.69-.51-7.26-39.2c-16.75,11-17.9,11.51-32.95,24.32A4.25,4.25,0,0,0,340.21,288.3Z" transform="translate(0 -58.61)"/><path class="cls-6" d="M499.37,226.37,484,293.3l20.08-1.45L513.27,227Q506.22,226.58,499.37,226.37Z" transform="translate(0 -58.61)"/><path class="cls-6" d="M563.08,279.34l28.2-35.23a6.12,6.12,0,0,0,1.46-3.43c.31-3.15-1.67-6-4.43-6.33-5.78-.79-11.93-1.54-18.08-2.28" transform="translate(0 -58.61)"/><path class="cls-8" d="M362.43,295.11a8.83,8.83,0,0,1-8.94-8.74h0a8.85,8.85,0,0,1,6.84-8.72l11.78-2.76,3,19.74-12.44.47Z" transform="translate(0 -58.61)"/><polygon class="cls-18" points="371.65 236.15 375.1 236.01 372.11 216.28 368.74 217.07 371.65 236.15"/></g><path class="cls-30" d="M503.68,291.86c.15,6.94.07,14.27-.68,18-1.66,8.33-14.65,69.27-14.65,69.27" transform="translate(0 -58.61)"/><path class="cls-30" d="M340.1,289.77s3.88,52.69,9.79,63.35c5.76,10.39,22.47,35.09,22.47,35.09" transform="translate(0 -58.61)"/><path class="cls-30" d="M326.54,284.76S285,295,272.8,297c-10,1.61-50.82,11.53-63.1,16.55" transform="translate(0 -58.61)"/><path class="cls-29" d="M621.08,241.46a4.61,4.61,0,0,0-.38,6.52l5.11,5.56a4.73,4.73,0,0,0,2.16,1.31l62.63,17.37a13.44,13.44,0,0,0,3.34.45h12.44a20,20,0,0,0-2-1.2L644,239.66h0a3.07,3.07,0,0,1-1.39-4.12L623,240.45A4.67,4.67,0,0,0,621.08,241.46Z" transform="translate(0 -58.61)"/><path class="cls-31" d="M413.65,268s7.48,26.32,11.12,27.25c6.58,1.7,28.84-2.12,28.4-2.86l-1.83-9.27s-22.72-1.63-23.19-1.45l-7.21-16.5Z" transform="translate(0 -58.61)"/><path class="cls-31" d="M421,269.8s2.27-2.11,2.33-4.68.79-4.59.71-6.5-1.68.12-2.31,1.37-1.36,2.66-2.23,2-4.6-9-5.9-9.71-1.11.81-1.11.81-1-2-1.86-1.84c-.23,0-.71.52-.41,1.5.67,2.21,2.31,6.78,2.31,6.78-.09-.26-2.52-5.76-3-6.53-.61-1-1.42-1.18-2-.8-.81.53,2,7.44,1.87,7.82,0,0-1.46-4-2.71-4.23s-.46,2.4.66,4.55c1,2,2.54,6.11,3.78,8,1.53,2.34,3.09,3.57,5.68,3.17A8.86,8.86,0,0,0,421,269.8Z" transform="translate(0 -58.61)"/><path class="cls-32" d="M412.66,253.36q1.09,2.43,2,5" transform="translate(0 -58.61)"/><path class="cls-32" d="M409.92,261.63A11.84,11.84,0,0,1,416.2,259" transform="translate(0 -58.61)"/><path class="cls-32" d="M418.93,263a4.07,4.07,0,0,0-1.57,5" transform="translate(0 -58.61)"/><path class="cls-6" d="M472.31,259.23s8.33-7,8-9.38-1.7-1.63-1.7-1.63,2.89-5.67.05-6.65-3,0-3,0,1.13-4.63-1.13-6c-1.71-1.07-2.44,1.06-2.44,1.06s-3.27-5.08-7.18-5c-1.93.15-2.89,1.39-2.61,2.88a1.42,1.42,0,0,0,0,.2s-7.9-3.45-11.57-1.28,1.12,4.52,1.12,4.52-7.7-.8-9.2,2.3c-1.2,2.46,2.22,4.11,2.22,4.11a7.47,7.47,0,0,0-2.25,1.35,3,3,0,0,0,1.89,5.28h.07c.41,0,1.14.1,1.44-.18,0,0-1.33,2.78,1.52,3.68s4.21-2.41,4.21-2.41Z" transform="translate(0 -58.61)"/><path class="cls-31" d="M469.69,277.34s-.46-4,2.39-13.77l-.51-.25c.39-1.36.81-2.62,1.21-3.71a.18.18,0,0,0,0-.05l-13.38,8.22c.31,3.13-.83,9.16-1.5,11.7l3.46,5.87Z" transform="translate(0 -58.61)"/><path class="cls-33" d="M459.17,272.17l7.69-1.71c-.7,2.39-2.83,5.21-8.17,5.43A23.19,23.19,0,0,0,459.17,272.17Z" transform="translate(0 -58.61)"/><path class="cls-6" d="M450.24,244.69c-1.58,3.08-2.15,9.88,2.77,8.47S453,239.38,450.24,244.69Z" transform="translate(0 -58.61)"/><path class="cls-31" d="M472.9,253.08c-.92,8.46-1.27,13.25-5.77,17.37-6.76,6.19-16.83,1.91-18.46-6.68-1.47-7.74.28-20.28,8.77-23.18A11.73,11.73,0,0,1,472.9,253.08Z" transform="translate(0 -58.61)"/><path class="cls-6" d="M460.64,255c0,.86-.53,1.54-1.1,1.51s-1-.76-1-1.63.54-1.55,1.1-1.52S460.68,254.09,460.64,255Z" transform="translate(0 -58.61)"/><path class="cls-6" d="M452.11,254.72c0,.87-.53,1.55-1.1,1.52s-1-.77-.95-1.63.53-1.55,1.1-1.52S452.15,253.85,452.11,254.72Z" transform="translate(0 -58.61)"/><path class="cls-34" d="M454.91,254.37s-3,4.19-3.92,5.9c1.16,1.15,3.26.75,3.26.75Z" transform="translate(0 -58.61)"/><path class="cls-6" d="M462.74,250.29a.39.39,0,0,1-.39-.11,3.3,3.3,0,0,0-2.77-1,.41.41,0,0,1-.16-.8,4.1,4.1,0,0,1,3.51,1.27.41.41,0,0,1,0,.57A.32.32,0,0,1,462.74,250.29Z" transform="translate(0 -58.61)"/><path class="cls-6" d="M448.49,250.8a.42.42,0,0,1-.14-.71,4,4,0,0,1,3.61-.82.41.41,0,0,1,.26.51.4.4,0,0,1-.51.26,3.14,3.14,0,0,0-2.84.69A.41.41,0,0,1,448.49,250.8Z" transform="translate(0 -58.61)"/><path class="cls-6" d="M456.72,266.69c.08,0,0,0,0,0Z" transform="translate(0 -58.61)"/><path class="cls-6" d="M455.4,263.41c1.37-.43,3.88-1.35,5.1-2.63a3.75,3.75,0,0,1,.35.94,3.67,3.67,0,0,1,0,1.75c-.3,1.17-1.33,2.44-4.08,3.2l-.06,0h0s-1.49.38-2.24-3C454.46,263.68,454.83,263.59,455.4,263.41Z" transform="translate(0 -58.61)"/><path class="cls-7" d="M455.4,263.41l.53.91c2.59-.72,4.32-1.58,4.92-2.6a3.75,3.75,0,0,0-.35-.94C459.28,262.06,456.77,263,455.4,263.41Z" transform="translate(0 -58.61)"/><path class="cls-35" d="M456.78,266.67c2.75-.76,3.78-2,4.08-3.2a9.16,9.16,0,0,0-2.89,1.46A3.48,3.48,0,0,0,456.78,266.67Z" transform="translate(0 -58.61)"/><path class="cls-6" d="M470.36,259.63a4.38,4.38,0,0,1-1.9-1.57,4,4,0,0,1-.28-2.27,21.33,21.33,0,0,1,.34-2.4c-.75.38-1.67-.22-2.08-1a6.54,6.54,0,0,1-.49-3.7,2.78,2.78,0,0,1-2.68-.83,2.14,2.14,0,0,1,0-2.71,24.31,24.31,0,0,1-9.38-.58c.21.39,0,.86-.31,1.21a7.38,7.38,0,0,1-4.48,2.74c-.26.05-.58.06-.73-.16a.71.71,0,0,1-.06-.41,6.57,6.57,0,0,1,2.39-4.43,14.94,14.94,0,0,1,4.49-2.48,28.47,28.47,0,0,1,8.3-2,16.88,16.88,0,0,1,8.36,1.45,4.28,4.28,0,0,1,1.51,1.07,4.48,4.48,0,0,1,.75,1.61,29.3,29.3,0,0,1,1.18,10.69" transform="translate(0 -58.61)"/><path class="cls-31" d="M475.92,260.31a8,8,0,0,1-4.21,4.49c-2.59,1.14-4.31-1.09-3.94-3.75.33-2.4,2.07-5.88,4.84-5.89S476.82,257.85,475.92,260.31Z" transform="translate(0 -58.61)"/><path class="cls-36" d="M474.1,257.87a1.55,1.55,0,0,0-1.61-.62,2.68,2.68,0,0,0-1.5,1,4.33,4.33,0,0,0-.89,2" transform="translate(0 -58.61)"/><path class="cls-31" d="M457.27,291.15s-24.87,7.27-33.9,7.59-29-3.9-29-3.9l1.13-9.18,29.34,1.5,31.9-10.65Z" transform="translate(0 -58.61)"/><path class="cls-6" d="M448.38,296.76l4.89-20.21,12.42-2.17c.55-.08,10.63-.91,13.66,10.16l.67,8.79Z" transform="translate(0 -58.61)"/><path class="cls-6" d="M460.08,294.74c-.69,0-20,3.53-20,3.53l-4-15.74a162.35,162.35,0,0,1,17.22-6c9.2-2.49,17.82-3.26,19.8,1C476.83,285.71,460.08,294.74,460.08,294.74Z" transform="translate(0 -58.61)"/><path class="cls-18" d="M420,287.06l4.83.25,12.55-4.3s2.6-1.12,1.94-.89-5.86-.32-6.21-.26S420,287.06,420,287.06Z" transform="translate(0 -58.61)"/><path class="cls-6" d="M385.85,281.49c-.57.34-7.22,7.21-7.22,7.21l1.3,8.52,8.36-8.63Z" transform="translate(0 -58.61)"/><path class="cls-6" d="M395.86,299.26h0a3,3,0,0,1-4-1.35L378.62,271a3,3,0,0,1,1.35-4h0a3,3,0,0,1,4,1.35l13.27,26.88A3,3,0,0,1,395.86,299.26Z" transform="translate(0 -58.61)"/><path class="cls-31" d="M405.41,286.4l-10.92-1.47-3.15-3.82s-5.55-.5-6.74.49-2.39,4.14-2.39,4.14-1.45,2.59,1,3.94c0,0-1.57,2.3,1.23,3.92,0,0-2.06,1.17.89,2.38a9.15,9.15,0,0,0,7.11-.14,15.2,15.2,0,0,1,5-.37l9.93,1.75Z" transform="translate(0 -58.61)"/></g></svg>