<?xml version="1.0" encoding="utf-8"?>
<!-- Generator: Adobe Illustrator 25.2.0, SVG Export Plug-In . SVG Version: 6.00 Build 0)  -->
<svg version="1.1" xmlns="http://www.w3.org/2000/svg" xmlns:xlink="http://www.w3.org/1999/xlink" x="0px" y="0px"
	 viewBox="0 0 4500 3000" style="enable-background:new 0 0 4500 3000;" xml:space="preserve">
<style type="text/css">
	.st0{fill:#58595B;}
	.st1{fill:#231F20;}
	.st2{fill:#939598;}
	.st3{enable-background:new    ;}
	.st4{clip-path:url(#SVGID_2_);enable-background:new    ;}
	.st5{fill:#414042;}
	.st6{fill:#E6E7E8;}
	.st7{fill:#D1D3D4;}
	.st8{fill:#FFFFFF;}
	.st9{clip-path:url(#SVGID_4_);enable-background:new    ;}
	.st10{fill:#FFDE17;}
	.st11{fill:#FFC300;}
	.st12{fill:#FFE545;}
	.st13{fill:#FFF2A2;}
	.st14{fill:#BE1E2D;}
	.st15{fill:#ED1C24;}
	.st16{opacity:0.5;fill:#FFFFFF;}
	.st17{fill:#709AA3;}
	.st18{fill:#6D6E71;}
	.st19{fill:#808285;}
	.st20{fill:#FBB040;}
	.st21{fill:#85E5E3;}
	.st22{opacity:0.7;}
	.st23{clip-path:url(#SVGID_6_);}
	.st24{clip-path:url(#SVGID_8_);enable-background:new    ;}
	.st25{clip-path:url(#SVGID_10_);enable-background:new    ;}
	.st26{opacity:0.3;fill:#FFFFFF;}
	.st27{fill:#223452;}
	.st28{fill:#4368A3;}
	.st29{fill:#324E7A;}
	.st30{fill:#6986B5;}
	.st31{fill:#584836;}
	.st32{fill:#B0906B;}
	.st33{fill:#846C50;}
	.st34{fill:#C0A689;}
	.st35{fill:#006838;}
	.st36{fill:#39B54A;}
	.st37{fill:#A7A9AC;}
	.st38{opacity:0.5;}
	.st39{fill:#B2151B;}
	.st40{fill:#BCBEC0;}
	.st41{fill:#F1F2F2;}
</style>
<g id="BG">
</g>
<g id="shadow">
	<ellipse class="st0" cx="2250.19" cy="2527.39" rx="1861.26" ry="12.04"/>
</g>
<g id="taxi">
	<g>
		<g>
			<g>
				<path class="st1" d="M2792.94,2375.79c0-83.68-58.75-151.56-131.25-151.56h75.91c72.51,0,131.26,67.88,131.26,151.56
					c0,83.72-58.75,151.6-131.26,151.6h-75.91C2734.19,2527.39,2792.94,2459.51,2792.94,2375.79z"/>
				<g>
					<path class="st2" d="M2664.63,2224.23c-74.13,0-134.2,67.87-134.2,151.56c0,83.72,60.07,151.6,134.2,151.6
						c74.13,0,134.2-67.87,134.2-151.6C2798.84,2292.11,2738.77,2224.23,2664.63,2224.23z"/>
				</g>
				<g>
					<path d="M2661.69,2224.23c-72.51,0-131.25,67.87-131.25,151.56c0,83.72,58.75,151.6,131.25,151.6
						c72.51,0,131.25-67.87,131.25-151.6C2792.94,2292.11,2734.19,2224.23,2661.69,2224.23z"/>
				</g>
			</g>
			<g>
				<path class="st1" d="M3944.77,2375.79c0-83.68-58.75-151.56-131.25-151.56h75.91c72.51,0,131.26,67.88,131.26,151.56
					c0,83.72-58.75,151.6-131.26,151.6h-75.91C3886.02,2527.39,3944.77,2459.51,3944.77,2375.79z"/>
				<g>
					<path class="st2" d="M3816.47,2224.23c-74.13,0-134.2,67.87-134.2,151.56c0,83.72,60.07,151.6,134.2,151.6
						c74.13,0,134.2-67.87,134.2-151.6C3950.67,2292.11,3890.6,2224.23,3816.47,2224.23z"/>
				</g>
				<g>
					<path d="M3813.52,2224.23c-72.51,0-131.25,67.87-131.25,151.56c0,83.72,58.75,151.6,131.25,151.6s131.25-67.87,131.25-151.6
						C3944.77,2292.11,3886.02,2224.23,3813.52,2224.23z"/>
				</g>
			</g>
		</g>
		<path d="M2348.06,2131.52h969.67h608.43c71.64,0,129.7,58.28,129.7,130.18v114.11c0,10.99-13.27,54.59-51.91,54.59H3427.6h-887.22
			h-608.43c-18.44,0-36.73-3.24-54.05-9.56l-72.23-29.34c-39.92-16.21-66.04-55.11-66.04-98.34v-161.64H2348.06z"/>
		<g>
			<g class="st3">
				<defs>
					<path id="SVGID_1_" class="st3" d="M3214.41,2527.39h75.92c72.51,0,131.25-67.87,131.25-151.6
						c0-83.68-58.75-151.56-131.25-151.56h-75.92c72.51,0,131.25,67.87,131.25,151.56
						C3345.67,2459.51,3286.92,2527.39,3214.41,2527.39z"/>
				</defs>
				<use xlink:href="#SVGID_1_"  style="overflow:visible;"/>
				<clipPath id="SVGID_2_">
					<use xlink:href="#SVGID_1_"  style="overflow:visible;"/>
				</clipPath>
				<g class="st4">
					<path d="M3345.67,2375.79c0-8.15-0.59-16.14-1.66-23.95h75.92c1.07,7.81,1.66,15.8,1.66,23.95
						c0,83.72-58.75,151.6-131.25,151.6h-75.92C3286.92,2527.39,3345.67,2459.51,3345.67,2375.79z"/>
					<path d="M3390.24,2277.5c9.72,13.16,17.53,28.27,22.92,44.75c3.09,9.45,5.35,19.35,6.76,29.59H3344
						c-1.41-10.24-3.67-20.14-6.76-29.59l0,0c-5.39-16.48-13.19-31.59-22.92-44.75H3390.24z"/>
					<path d="M3364.89,2251.06c9.41,7.52,17.94,16.41,25.35,26.44h-75.91c-7.41-10.03-15.94-18.92-25.35-26.44H3364.89z"/>
					<path d="M3214.41,2224.23h75.92c27.7,0,53.39,9.92,74.56,26.83h-75.91C3267.8,2234.15,3242.12,2224.23,3214.41,2224.23z"/>
				</g>
			</g>
			<g>
				<path class="st2" d="M3217.36,2224.23c-74.13,0-134.2,67.87-134.2,151.56c0,83.72,60.07,151.6,134.2,151.6
					s134.2-67.87,134.2-151.6C3351.57,2292.11,3291.5,2224.23,3217.36,2224.23z"/>
			</g>
			<g>
				<path class="st5" d="M3214.41,2224.23c-72.51,0-131.25,67.87-131.25,151.56c0,83.72,58.75,151.6,131.25,151.6
					s131.25-67.87,131.25-151.6C3345.67,2292.11,3286.92,2224.23,3214.41,2224.23z"/>
			</g>
			<g>
				<path class="st1" d="M3214.41,2263.08c-53.92,0-97.62,50.48-97.62,112.72c0,62.27,43.69,112.74,97.62,112.74
					s97.62-50.48,97.62-112.74C3312.03,2313.56,3268.34,2263.08,3214.41,2263.08z"/>
			</g>
			<g>
				<path d="M3214.41,2279.5c-46.07,0-83.4,43.13-83.4,96.3c0,53.2,37.33,96.32,83.4,96.32s83.4-43.13,83.4-96.32
					C3297.81,2322.63,3260.48,2279.5,3214.41,2279.5z"/>
			</g>
			<path class="st6" d="M3121.28,2375.88c0,59.41,41.69,107.57,93.14,107.57c51.45,0,93.13-48.16,93.13-107.57
				c0-59.39-41.69-107.55-93.13-107.55C3162.96,2268.33,3121.28,2316.49,3121.28,2375.88z M3151.05,2443.55
				c-8.19-10.23-14.56-22.41-18.48-35.92l67.54-20.97L3151.05,2443.55z M3199.22,2366.91l-67.25-20.88
				c3.7-13.62,9.91-25.91,17.93-36.32L3199.22,2366.91z M3214.42,2276.12c5.87,0,11.61,0.69,17.15,1.98l-18.05,78.03l-17.94-77.57
				C3201.65,2277.01,3207.94,2276.12,3214.42,2276.12z M3229.62,2384.88l67.24,20.88c-3.69,13.62-9.91,25.91-17.92,36.32
				L3229.62,2384.88z M3228.73,2365.12l49.05-56.89c8.19,10.23,14.56,22.41,18.48,35.92L3228.73,2365.12z M3214.42,2475.66
				c-5.88,0-11.61-0.69-17.16-1.98l18.05-78.03l17.94,77.57C3227.17,2474.77,3220.89,2475.66,3214.42,2475.66z"/>
			<path class="st7" d="M3214.41,2372.43c-31.67,0-61.06,6.36-85.39,17.23c-0.55-4.54-0.93-9.15-0.93-13.86
				c0-55.04,38.64-99.68,86.32-99.68c47.68,0,86.32,44.64,86.32,99.68c0,4.72-0.38,9.32-0.93,13.86
				C3275.47,2378.79,3246.08,2372.43,3214.41,2372.43z"/>
			<path class="st8" d="M3121.28,2375.82c0,59.38,41.65,107.52,93.04,107.52s93.04-48.14,93.04-107.52
				c0-59.35-41.65-107.49-93.04-107.49S3121.28,2316.47,3121.28,2375.82z M3127.82,2375.82c0-55.18,38.72-99.93,86.5-99.93
				s86.5,44.75,86.5,99.93c0,55.2-38.71,99.96-86.5,99.96S3127.82,2431.02,3127.82,2375.82z"/>
			<g>
				<path class="st2" d="M3226.56,2342.93c-15.73,0-28.48,14.73-28.48,32.88c0,18.16,12.75,62.02,28.48,62.02
					s28.48-43.85,28.48-62.02C3255.04,2357.65,3242.29,2342.93,3226.56,2342.93z"/>
			</g>
			<g>
				<g>
					<path d="M3226.56,2342.93c-15.73,0-28.48,14.73-28.48,32.88c0,18.16,12.75,32.89,28.48,32.89s28.48-14.73,28.48-32.89
						C3255.04,2357.65,3242.29,2342.93,3226.56,2342.93z"/>
				</g>
				<g>
					<path class="st8" d="M3214.41,2342.93c-15.73,0-28.48,14.73-28.48,32.88c0,18.16,12.75,32.89,28.48,32.89
						c15.73,0,28.48-14.73,28.48-32.89C3242.89,2357.65,3230.15,2342.93,3214.41,2342.93z"/>
				</g>
			</g>
		</g>
		<g>
			<g class="st3">
				<defs>
					<path id="SVGID_3_" class="st3" d="M2062.58,2527.39h75.91c72.51,0,131.25-67.87,131.25-151.6
						c0-83.68-58.75-151.56-131.25-151.56h-75.91c72.51,0,131.25,67.87,131.25,151.56
						C2193.84,2459.51,2135.09,2527.39,2062.58,2527.39z"/>
				</defs>
				<use xlink:href="#SVGID_3_"  style="overflow:visible;"/>
				<clipPath id="SVGID_4_">
					<use xlink:href="#SVGID_3_"  style="overflow:visible;"/>
				</clipPath>
				<g class="st9">
					<path d="M2193.84,2375.79c0-8.15-0.59-16.14-1.66-23.95h75.92c1.07,7.81,1.66,15.8,1.66,23.95
						c0,83.72-58.75,151.6-131.25,151.6h-75.92C2135.09,2527.39,2193.84,2459.51,2193.84,2375.79z"/>
					<path d="M2238.41,2277.5c9.72,13.16,17.53,28.27,22.92,44.75c3.09,9.45,5.35,19.35,6.76,29.59h-75.92
						c-1.41-10.24-3.67-20.14-6.76-29.59l0,0c-5.39-16.48-13.19-31.59-22.92-44.75H2238.41z"/>
					<path d="M2213.06,2251.06c9.41,7.52,17.94,16.41,25.35,26.44h-75.91c-7.41-10.03-15.94-18.92-25.35-26.44H2213.06z"/>
					<path d="M2062.58,2224.23h75.92c27.7,0,53.39,9.92,74.56,26.83h-75.91C2115.97,2234.15,2090.29,2224.23,2062.58,2224.23z"/>
				</g>
			</g>
			<g>
				<path class="st2" d="M2065.53,2224.23c-74.13,0-134.2,67.87-134.2,151.56c0,83.72,60.07,151.6,134.2,151.6
					c74.13,0,134.2-67.87,134.2-151.6C2199.73,2292.11,2139.67,2224.23,2065.53,2224.23z"/>
			</g>
			<g>
				<path class="st5" d="M2062.58,2224.23c-72.51,0-131.25,67.87-131.25,151.56c0,83.72,58.75,151.6,131.25,151.6
					c72.51,0,131.25-67.87,131.25-151.6C2193.84,2292.11,2135.09,2224.23,2062.58,2224.23z"/>
			</g>
			<g>
				<path class="st1" d="M2062.58,2263.08c-53.92,0-97.62,50.48-97.62,112.72c0,62.27,43.69,112.74,97.62,112.74
					c53.92,0,97.62-50.48,97.62-112.74C2160.2,2313.56,2116.51,2263.08,2062.58,2263.08z"/>
			</g>
			<g>
				<path d="M2062.58,2279.5c-46.07,0-83.4,43.13-83.4,96.3c0,53.2,37.33,96.32,83.4,96.32c46.07,0,83.4-43.13,83.4-96.32
					C2145.98,2322.63,2108.65,2279.5,2062.58,2279.5z"/>
			</g>
			<path class="st6" d="M1969.45,2375.88c0,59.41,41.69,107.57,93.14,107.57c51.45,0,93.13-48.16,93.13-107.57
				c0-59.39-41.69-107.55-93.13-107.55C2011.13,2268.33,1969.45,2316.49,1969.45,2375.88z M1999.22,2443.55
				c-8.19-10.23-14.56-22.41-18.48-35.92l67.54-20.97L1999.22,2443.55z M2047.39,2366.91l-67.25-20.88
				c3.7-13.62,9.91-25.91,17.93-36.32L2047.39,2366.91z M2062.59,2276.12c5.87,0,11.61,0.69,17.15,1.98l-18.05,78.03l-17.94-77.57
				C2049.82,2277.01,2056.11,2276.12,2062.59,2276.12z M2077.79,2384.88l67.24,20.88c-3.69,13.62-9.91,25.91-17.92,36.32
				L2077.79,2384.88z M2076.9,2365.12l49.05-56.89c8.19,10.23,14.56,22.41,18.48,35.92L2076.9,2365.12z M2062.59,2475.66
				c-5.88,0-11.61-0.69-17.16-1.98l18.05-78.03l17.94,77.57C2075.34,2474.77,2069.06,2475.66,2062.59,2475.66z"/>
			<path class="st7" d="M2062.58,2372.43c-31.67,0-61.06,6.36-85.39,17.23c-0.55-4.54-0.93-9.15-0.93-13.86
				c0-55.04,38.64-99.68,86.32-99.68c47.68,0,86.32,44.64,86.32,99.68c0,4.72-0.38,9.32-0.93,13.86
				C2123.64,2378.79,2094.25,2372.43,2062.58,2372.43z"/>
			<path class="st8" d="M1969.45,2375.82c0,59.38,41.65,107.52,93.04,107.52c51.4,0,93.04-48.14,93.04-107.52
				c0-59.35-41.65-107.49-93.04-107.49C2011.09,2268.33,1969.45,2316.47,1969.45,2375.82z M1975.99,2375.82
				c0-55.18,38.72-99.93,86.5-99.93c47.78,0,86.5,44.75,86.5,99.93c0,55.2-38.71,99.96-86.5,99.96
				C2014.71,2475.78,1975.99,2431.02,1975.99,2375.82z"/>
			<g>
				<path class="st2" d="M2074.73,2342.93c-15.73,0-28.48,14.73-28.48,32.88c0,18.16,12.75,62.02,28.48,62.02
					c15.73,0,28.48-43.85,28.48-62.02C2103.21,2357.65,2090.46,2342.93,2074.73,2342.93z"/>
			</g>
			<g>
				<g>
					<path d="M2074.73,2342.93c-15.73,0-28.48,14.73-28.48,32.88c0,18.16,12.75,32.89,28.48,32.89c15.73,0,28.48-14.73,28.48-32.89
						C2103.21,2357.65,2090.46,2342.93,2074.73,2342.93z"/>
				</g>
				<g>
					<path class="st8" d="M2062.58,2342.93c-15.73,0-28.48,14.73-28.48,32.88c0,18.16,12.75,32.89,28.48,32.89
						c15.73,0,28.48-14.73,28.48-32.89C2091.06,2357.65,2078.31,2342.93,2062.58,2342.93z"/>
				</g>
			</g>
		</g>
		<path class="st10" d="M2504.4,1948.31c-300.95-1.59-297.79-153.38-180.1-195.46c0,0,14.97-7.82,289.18-7.82
			c538.91,0,690.41,32.52,707.19,38.49c160.68,57.18,366.69,200.72,366.69,200.72s323.57,55.27,375.39,223.55
			c4.58,14.87,31.44,10.41,31.44,21.69c1.45,65.43-22.93,183.81-58.1,183.81c0,0-391.89,0.17-630.28,0
			c0.63-9.08-39.07-166.29-39.07-175.51C3366.73,2099.93,2504.4,1948.31,2504.4,1948.31z"/>
		<g>
			<path class="st11" d="M4036.08,2413.3c0,0-391.89,0.17-630.29,0c0.29-4.21-8.11-40.37-17.2-78.82h693.17
				C4071.45,2377.54,4055.4,2413.3,4036.08,2413.3z"/>
			<path class="st11" d="M1786.07,1948.31h88.09c153.58-84.37,250.55-142.24,368.24-184.33c0,0,33.7-12.36,138.03-12.36
				c184.67,0,299.9,13.79,313.22,17.07c163.97,40.46,363.47,215.55,363.47,215.55s142.64,12.92,331,98.21
				c67.46,30.55,92.19,75.36,121.3,125.33c7.83,13.44,31.44,10.41,31.44,21.69c1.45,65.43-17.25,183.81-28.07,183.81
				c0,0-52.65-0.04-138.89-0.11c0.67-9.36,1.05-18.8,1.05-28.31c0-137.86-72.23-207.74-161.32-207.74
				c-89.1,0-161.32,69.88-161.32,207.74c0,9.43,0.37,18.79,1.03,28.07c-265.41-0.2-592.81-0.45-831.2-0.61
				c0.63-9.08,0.98-18.24,0.98-27.46c0-137.86-72.23-207.74-161.32-207.74c-89.1,0-161.32,69.88-161.32,207.74
				c0,9.1,0.33,18.14,0.95,27.09l-169.34-37.71c-31.09-6.03-56.94-28.15-66.7-58.28c-10.19-31.48-13.48-69.17-14.04-106.47
				c-0.3-19.99,6.59-34.85,14.27-45.16c12.15-16.31,21.2-36.25,21.2-57.82C1686.81,2006.91,1678.39,1948.31,1786.07,1948.31z"/>
		</g>
		<path class="st10" d="M1676.11,2243.54h178.59c28.55,0,56.1-12.49,77.31-35.15c34.61-36.97,80.43-59.49,130.71-59.49
			c50.27,0,96.09,22.51,130.7,59.49c21.21,22.66,48.76,35.15,77.31,35.15h736.83c28.55,0,56.1-12.49,77.31-35.15
			c34.61-36.97,80.43-59.49,130.71-59.49c50.27,0,96.09,22.52,130.7,59.49c21.21,22.66,48.76,35.15,77.31,35.15h622.01
			c44.17,0,30.77,127.7-47.19,127.7c-3.86,0-574.78,0.01-574.78,0.01c-9.46,0-12.73,6.03-12.73,9.08c0,11.19-0.82,22.13-2.12,32.89
			c-10.93-0.01-22.52-0.02-34.89-0.03c0.67-9.36,1.04-18.8,1.04-28.31c0-137.86-72.22-207.74-161.32-207.74
			c-89.1,0-161.32,69.88-161.32,207.74c0,9.43,0.37,18.79,1.03,28.07c-10.17-0.01-20.46-0.02-30.8-0.02
			c-0.72-20.73,2.26-84.07,2.26-84.07c0.01-17.54-276.07-31.9-290.88-31.9h-180.6c-14.8,0-300.07,14.35-300.06,31.9
			c0,0,5.65,47.1,2.71,83.5c-11.44-0.01-22.76-0.02-33.83-0.02c0.63-9.08,0.98-18.24,0.98-27.46
			c0-137.86-72.22-207.74-161.32-207.74c-89.1,0-161.32,69.88-161.32,207.74c0,9.1,0.33,18.14,0.95,27.09l-34.32-7.64
			c-2.94-14.3-10.18-33.08-30.35-33.08c0,0-71.42-4.07-126.46-31.99c-27.45-13.92-36.91-41.92-45.91-75.66
			C1661.74,2253.66,1667.31,2243.54,1676.11,2243.54z"/>
		<g>
			<path class="st12" d="M1686.07,2040.7c1.22-59.07-7.95-92.39,100-92.39h54.25c21.58,0,42.59-6.45,60.57-18.37
				c103.81-68.84,233.33-127.26,341.52-165.95c0,0,33.7-12.36,138.03-12.36c184.67,0,299.89,13.79,313.22,17.07
				c163.97,40.46,363.46,215.55,363.46,215.55s142.64,12.92,331.01,98.21c59.31,26.86,85.59,64.75,110.85,107.47
				C3253.16,2097.31,2623.12,2044.67,1686.07,2040.7z"/>
			<g>
				<path class="st12" d="M4045.98,2170.88c6.98,11.67,12.76,23.91,16.76,36.91c3.92,12.72,24.11,11.32,29.86,17.72h-422.22
					c-188.91,0-271.69-22.76-298.83-54.63H4045.98z"/>
				<path class="st12" d="M1665.61,2164.35c12.15-16.31,21.2-36.25,21.2-57.82c0-23.18-1.01-44.11-0.79-62.63h108.02
					c0,32.53-61.74,122.56-138.77,140.08C1657.94,2176.19,1661.66,2169.66,1665.61,2164.35z"/>
			</g>
		</g>
		<g>
			<path class="st13" d="M3057.12,1984.24c0,0-199.49-175.08-363.46-215.55c-13.33-3.29-128.55-17.07-313.22-17.07
				c-104.33,0-138.03,12.36-138.03,12.36c-94.99,33.97-206.41,83.17-302.45,141.26c447.31,17.14,1185.04,70.03,1501.75,211.01
				c-14.47-12.55-31.78-23.92-53.58-33.79C3199.76,1997.16,3057.12,1984.24,3057.12,1984.24z M3687.35,1984.24
				c0,0-1.78-1.24-4.85-3.34h-232.99c166.27,110.86,550.17,135.34,550.17,135.34C3889.33,2018.76,3687.35,1984.24,3687.35,1984.24z"
				/>
		</g>
		<g>
			<g>
				
					<rect x="2957" y="2179.51" transform="matrix(-1 -1.224647e-16 1.224647e-16 -1 5937.4644 4386.6001)" width="23.46" height="27.58"/>
				
					<rect x="2910.08" y="2179.51" transform="matrix(-1 -1.224647e-16 1.224647e-16 -1 5843.6152 4386.6001)" width="23.46" height="27.58"/>
				
					<rect x="2863.15" y="2179.51" transform="matrix(-1 -1.224647e-16 1.224647e-16 -1 5749.7661 4386.6001)" width="23.46" height="27.58"/>
				
					<rect x="2816.23" y="2179.51" transform="matrix(-1 -1.224647e-16 1.224647e-16 -1 5655.9165 4386.6001)" width="23.46" height="27.58"/>
				
					<rect x="2769.3" y="2179.51" transform="matrix(-1 -1.224647e-16 1.224647e-16 -1 5562.0674 4386.6001)" width="23.46" height="27.58"/>
				
					<rect x="2980.46" y="2151.93" transform="matrix(-1 -1.224647e-16 1.224647e-16 -1 5984.3887 4331.436)" width="23.46" height="27.58"/>
				
					<rect x="2933.54" y="2151.93" transform="matrix(-1 -1.224647e-16 1.224647e-16 -1 5890.5396 4331.436)" width="23.46" height="27.58"/>
				
					<rect x="2886.61" y="2151.93" transform="matrix(-1 -1.224647e-16 1.224647e-16 -1 5796.6904 4331.436)" width="23.46" height="27.58"/>
				
					<rect x="2839.69" y="2151.93" transform="matrix(-1 -1.224647e-16 1.224647e-16 -1 5702.8413 4331.436)" width="23.46" height="27.58"/>
				
					<rect x="2792.76" y="2151.93" transform="matrix(-1 -1.224647e-16 1.224647e-16 -1 5608.9917 4331.436)" width="23.46" height="27.58"/>
				
					<rect x="2745.84" y="2151.93" transform="matrix(-1 -1.224647e-16 1.224647e-16 -1 5515.1426 4331.436)" width="23.46" height="27.58"/>
			</g>
			<g>
				
					<rect x="2722.38" y="2179.51" transform="matrix(-1 -1.224647e-16 1.224647e-16 -1 5468.2183 4386.6001)" width="23.46" height="27.58"/>
				
					<rect x="2675.45" y="2179.51" transform="matrix(-1 -1.224647e-16 1.224647e-16 -1 5374.3691 4386.6001)" width="23.46" height="27.58"/>
				
					<rect x="2628.53" y="2179.51" transform="matrix(-1 -1.224647e-16 1.224647e-16 -1 5280.5195 4386.6001)" width="23.46" height="27.58"/>
				
					<rect x="2581.6" y="2179.51" transform="matrix(-1 -1.224647e-16 1.224647e-16 -1 5186.6704 4386.6001)" width="23.46" height="27.58"/>
				
					<rect x="2534.68" y="2179.51" transform="matrix(-1 -1.224647e-16 1.224647e-16 -1 5092.8213 4386.6001)" width="23.46" height="27.58"/>
				
					<rect x="2487.75" y="2179.51" transform="matrix(-1 -1.224647e-16 1.224647e-16 -1 4998.9717 4386.6001)" width="23.46" height="27.58"/>
				
					<rect x="2698.92" y="2151.93" transform="matrix(-1 -1.224647e-16 1.224647e-16 -1 5421.2935 4331.436)" width="23.46" height="27.58"/>
				
					<rect x="2651.99" y="2151.93" transform="matrix(-1 -1.224647e-16 1.224647e-16 -1 5327.4443 4331.436)" width="23.46" height="27.58"/>
				
					<rect x="2605.07" y="2151.93" transform="matrix(-1 -1.224647e-16 1.224647e-16 -1 5233.5952 4331.436)" width="23.46" height="27.58"/>
				
					<rect x="2558.14" y="2151.93" transform="matrix(-1 -1.224647e-16 1.224647e-16 -1 5139.7456 4331.436)" width="23.46" height="27.58"/>
				
					<rect x="2511.22" y="2151.93" transform="matrix(-1 -1.224647e-16 1.224647e-16 -1 5045.8965 4331.436)" width="23.46" height="27.58"/>
				
					<rect x="2464.29" y="2151.93" transform="matrix(-1 -1.224647e-16 1.224647e-16 -1 4952.0474 4331.436)" width="23.46" height="27.58"/>
			</g>
			<g>
				
					<rect x="2440.83" y="2179.51" transform="matrix(-1 -1.224647e-16 1.224647e-16 -1 4905.1226 4386.6001)" width="23.46" height="27.58"/>
				
					<rect x="2393.91" y="2179.51" transform="matrix(-1 -1.224647e-16 1.224647e-16 -1 4811.2734 4386.6001)" width="23.46" height="27.58"/>
				
					<rect x="2346.98" y="2179.51" transform="matrix(-1 -1.224647e-16 1.224647e-16 -1 4717.4243 4386.6001)" width="23.46" height="27.58"/>
				
					<rect x="2300.06" y="2179.51" transform="matrix(-1 -1.224647e-16 1.224647e-16 -1 4623.5747 4386.6001)" width="23.46" height="27.58"/>
				
					<rect x="2253.13" y="2179.51" transform="matrix(-1 -1.224647e-16 1.224647e-16 -1 4529.7256 4386.6001)" width="23.46" height="27.58"/>
				
					<rect x="2206.21" y="2179.51" transform="matrix(-1 -1.224647e-16 1.224647e-16 -1 4435.8765 4386.6001)" width="23.46" height="27.58"/>
				
					<rect x="2417.37" y="2151.93" transform="matrix(-1 -1.224647e-16 1.224647e-16 -1 4858.1982 4331.436)" width="23.46" height="27.58"/>
				
					<rect x="2370.44" y="2151.93" transform="matrix(-1 -1.224647e-16 1.224647e-16 -1 4764.3486 4331.436)" width="23.46" height="27.58"/>
				
					<rect x="2323.52" y="2151.93" transform="matrix(-1 -1.224647e-16 1.224647e-16 -1 4670.4995 4331.436)" width="23.46" height="27.58"/>
				
					<rect x="2276.59" y="2151.93" transform="matrix(-1 -1.224647e-16 1.224647e-16 -1 4576.6504 4331.436)" width="23.46" height="27.58"/>
				
					<rect x="2229.67" y="2151.93" transform="matrix(-1 -1.224647e-16 1.224647e-16 -1 4482.8013 4331.436)" width="23.46" height="27.58"/>
				
					<rect x="2182.74" y="2151.93" transform="matrix(-1 -1.224647e-16 1.224647e-16 -1 4388.9517 4331.436)" width="23.46" height="27.58"/>
			</g>
		</g>
		<path d="M3360.47,2126.93h160.48c88.63,0,143.37,15.45,176.99,32.94c8.07,4.2,16.93,6.63,26.03,6.63h257.35
			c4.6-6.46,8.35-13.87,10.53-22.41c2.38-9.33,10.01-16.23,19.43-17c23.71,23.42,42.07,50.2,51.46,80.71
			c0.13,0.43,0.34,0.79,0.51,1.18h-553.28c-29.92,0-121.67-20.3-158.15-50.99C3340.2,2148.22,3346.13,2126.93,3360.47,2126.93z"/>
		<g>
			<path class="st6" d="M3647.1,2204.05c-32.7,0-95.39,0-121.6,0c-71.06,0-146.56-25.79-171.3-47.55
				c-9.81-8.63-4.34-27.56,7.78-27.56h135.44C3629.27,2128.93,3713.7,2204.05,3647.1,2204.05z"/>
			<path class="st7" d="M3546.12,2198.3c-97.74,2.49-123.52-17.19-158.62-37.45c-11.77-6.8-5.21-21.71,9.34-21.71h30.26
				c82.49,0,115.45,32.37,127.1,49.46C3557.37,2193.25,3552.76,2198.13,3546.12,2198.3z"/>
			<path class="st8" d="M3607.07,2183.85c-39.3-2.62-118.17-15.07-151.75-32.82c-11.26-5.95-4.99-19.02,8.93-19.02h28.95
				c78.92,0,110.45,28.37,121.59,43.34C3617.83,2179.42,3613.41,2184.27,3607.07,2183.85z"/>
		</g>
		<g>
			<path class="st14" d="M1798.73,2013.32c5.33,0,8.52,6.91,5.6,12.11l-19.58,34.79c-16.03,28.49-43.27,45.64-72.47,45.64h-25.8
				c-6.3-13.63-6.9-29.4-6.9-46.27c0-16.87,0.61-32.64,6.9-46.27H1798.73z"/>
			<g>
				<path class="st15" d="M1763.66,2037.56c3.55,0,5.68,4.61,3.73,8.07l-13.05,23.18c-10.69,18.99-28.84,30.42-48.3,30.42l0,0
					c-11.7,0-21.38-10.79-21.73-24.44c-0.05-2.1-0.07-4.24-0.07-6.4c0-0.11,0-0.22,0-0.34c0.01-16.89,11.89-30.5,26.36-30.5H1763.66
					z"/>
				<path class="st16" d="M1764.9,2017.51c2.57,0,4.11,3.33,2.7,5.84l-9.43,16.76c-7.72,13.72-20.85,21.99-34.91,21.99l0,0
					c-8.46,0-15.45-7.8-15.71-17.67c-0.04-1.52-0.05-3.06-0.05-4.62c0-0.08,0-0.16,0-0.24c0.01-12.21,8.59-22.05,19.05-22.05H1764.9
					z"/>
			</g>
			<path d="M1686.48,2107.92h25.8c29.89,0,57.53-17.41,73.95-46.57l19.58-34.79c1.73-3.09,1.88-6.86,0.37-10.11
				c-1.5-3.25-4.28-5.19-7.44-5.19h-112.25c-0.97,0-1.76,0.92-1.76,2.06c0,1.14,0.79,2.06,1.76,2.06h112.25
				c1.84,0,3.47,1.13,4.34,3.03c0.88,1.89,0.79,4.1-0.22,5.9l-19.58,34.79c-15.76,28-42.3,44.72-71,44.72h-25.8
				c-0.97,0-1.76,0.92-1.76,2.06S1685.51,2107.92,1686.48,2107.92z"/>
		</g>
		<g>
			<path class="st6" d="M4061.42,2204.02c-3.17,0.02-7.19,0.03-12.52,0.03c-42.37,0-66.54-15.1-55.37-60.58
				c2.11-8.58,10.82-13.69,19.67-14.39C4034.98,2151.04,4051.99,2175.92,4061.42,2204.02z"/>
			<path class="st7" d="M4040.29,2199.27c-1.87,0.01-4.23,0.02-7.37,0.02c-24.94,0-39.17-8.33-32.6-33.41
				c1.24-4.73,6.37-7.55,11.58-7.94C4024.72,2170.05,4034.74,2183.78,4040.29,2199.27z"/>
			<path class="st8" d="M4038.98,2168.01c-1.75,0.01-3.96,0.02-6.91,0.02c-23.37,0-36.7-7.06-30.54-28.31
				c1.16-4.01,5.97-6.4,10.85-6.73C4024.4,2143.25,4033.78,2154.88,4038.98,2168.01z"/>
		</g>
		<path d="M3532.7,2384.88l519.61,0c4.73,0,9.09-2.74,11.05-7.05c0.23-0.5,0.45-1,0.68-1.5c15.16-33.9-10.09-72.12-47.23-72.12
			h-399.71c-41.16,0-78.77,23.29-97.11,60.14l0,0C3515.28,2373.78,3522.15,2384.88,3532.7,2384.88z"/>
		<path d="M2811.63,1792.54h532.86c155.12,61.34,339.5,189.36,342.69,191.58h-563.62c-17.65,0-34.7-6.1-48.34-17.3
			c-42.57-34.94-145.12-114.72-250.63-164.23C2819.46,1800.19,2805.97,1792.54,2811.63,1792.54z"/>
		<g>
			<path class="st5" d="M2272.11,1789.84c2.11-0.34,64.72-12.02,158.56-12.02c210.41,0,281.52,19.09,282.22,19.29
				c108.43,30.78,220.9,132.15,288.09,192.71c9.1,8.2,17.46,15.74,24.99,22.37c1.56,1.37,1.85,3.73,0.78,6.3
				c-0.96,2.32-3.14,4.66-5.85,4.66l-987.77-63.83C2054.97,1922.35,2179.07,1834.04,2272.11,1789.84z"/>
			<path class="st5" d="M3658.41,1964.72H3139.7c-29.52,0-58.19-9.7-81.59-27.7c-48.01-36.93-120.36-88.24-195.93-126.07h525.56
				C3495.2,1859.67,3607.13,1930.8,3658.41,1964.72z"/>
		</g>
		<g>
			<path class="st17" d="M3234.96,1840.83c-12.86-2.67-54.98-9.72-152.81-13.4c16.25,44.34,28.47,90.35,37.65,135.75
				c6.55,0.98,13.2,1.55,19.89,1.55h393.37c-7.8-10.74-19.14-19.97-33.25-26.6C3411.97,1896.87,3312.27,1856.88,3234.96,1840.83z
				 M2890.29,1825.7c60.44,33.1,117.01,72.78,158.42,104.15c-8.6-35.36-19.22-70.49-32.41-104.17c-21.72-0.36-45.36-0.57-71.16-0.57
				C2924.4,1825.11,2906.24,1825.33,2890.29,1825.7z M2724.78,1862.24c10.47,32.61,18.84,65.98,25.64,99.17l231.57,11.37
				c-49.39-44.17-116.49-101.72-187.35-140.82c-6.76,1.02-9.98,1.83-10.98,2.11C2763.59,1842.1,2743.74,1851.78,2724.78,1862.24z
				 M2641.01,1956.04l100.28,4.92c-6.52-31.58-14.52-63.28-24.37-94.33c-35.32,20.16-66.99,42.77-90.2,62.27
				C2614.76,1938.95,2623.32,1955.17,2641.01,1956.04z"/>
			<path class="st17" d="M2545.52,1806.07c13.05,0,20.7,14.68,13.24,25.37l-21.78,31.23c-21.37,30.63-56.36,48.89-93.71,48.89
				h-362.57c41.92-34.25,103.34-75.32,159.48-105.49H2545.52z"/>
			<path class="st0" d="M2411.58,1983.77l229.57,14.84l-0.65-3.63c-4.06-22.54-30.92-40.2-61.14-40.2h-14.27l-1.86-17.14h7.77
				c14.67,0,24.82-9.76,21.41-20.59l-8.38-26.6c-5.72-18.2-28.15-31.63-52.79-31.63h-41.64c-24.65,0-44.15,13.43-45.92,31.63
				l-2.59,26.6c-1.06,10.83,11.22,20.59,25.88,20.59l1.86,17.14h-6.5C2437.34,1954.77,2417.32,1966.85,2411.58,1983.77z
				 M2223.48,1954.77l-1.86-17.14h7.77c14.67,0,24.82-9.76,21.41-20.59l-8.38-26.6c-5.72-18.2-28.15-31.63-52.79-31.63h-36.85
				c-18.17,12.12-35.52,24.42-51.16,36.29l-2.14,21.94c-1.06,10.83,11.22,20.59,25.88,20.59l1.86,17.14h-6.5
				c-12.43,0-23.6,3.02-32.43,8.1l200.88,12.98c-11.26-12.65-30.53-21.08-51.41-21.08H2223.48z"/>
			<path class="st18" d="M3056.15,1935.53l-0.81-8.15h7.77c14.67,0,24.82-10.6,21.41-22.36l-8.38-28.89
				c-5.72-19.76-28.15-34.35-52.79-34.35h-41.64c-15.8,0-29.41,6.04-37.66,15.54C2987.25,1884.38,3026.23,1912.59,3056.15,1935.53z
				 M2560.42,1989.65l0.13,3.74l233.59,15.09l-3.13-18.84c-4.06-24.48-30.92-43.66-61.14-43.66h-14.27l-1.86-18.61h7.78
				c14.66,0,24.81-10.6,21.41-22.36l-8.38-28.89c-5.72-19.76-28.15-34.35-52.79-34.35h-41.64c-24.65,0-44.14,14.59-45.92,34.35
				l-2.59,28.89c-1.06,11.76,11.22,22.36,25.88,22.36l1.86,18.61h-6.5C2582.61,1945.99,2559.59,1965.17,2560.42,1989.65z
				 M3116.93,1962.75c-11.46-10.23-27.83-16.73-45.37-16.76C3085.57,1954.28,3100.92,1960,3116.93,1962.75z M2902.02,1989.65
				l0.88,25.86l118,7.62c2.71,0,4.89-2.34,5.85-4.66c1.07-2.57,0.78-4.93-0.78-6.3c-7.53-6.63-15.89-14.17-24.99-22.37
				c-14.47-13.04-31.13-28.01-49.3-43.72C2922.84,1947.23,2901.21,1965.92,2902.02,1989.65z"/>
			<path class="st19" d="M3569.82,1940.86c16.91,0,50.89,9.72,69.37,23.86H3139.7c-27.3,0-53.8-8.39-76.15-23.86H3569.82z"/>
		</g>
		<path class="st16" d="M2665.99,1887.37c-0.66-0.19-68.3-19.29-268.43-19.29c-89.26,0-148.8,11.68-150.81,12.02
			c-42.81,21.38-92.51,53.08-134.79,84.3l-78.83-5.09c21.84-36.97,145.95-125.28,238.98-169.47c2.11-0.34,64.72-12.02,158.56-12.02
			c210.41,0,281.52,19.09,282.22,19.29c108.43,30.78,220.9,132.15,288.09,192.71c9.1,8.2,17.46,15.74,24.99,22.37
			c1.56,1.37,1.85,3.73,0.78,6.3c-0.96,2.32-3.14,4.66-5.85,4.66l-153.8-9.94C2808.13,1961.97,2736.18,1908.33,2665.99,1887.37z"/>
		<path class="st16" d="M3113.94,1875.2h-142.16c-33.88-22.46-71.32-45.08-109.6-64.24h525.56
			c107.46,48.72,219.39,119.84,270.67,153.77h-157.13C3381.01,1906.14,3248.64,1875.2,3113.94,1875.2z"/>
		<g>
			<g>
				<g>
					<path d="M2028.02,1962.19c0.35,0.59,0.96,0.97,1.64,1.02l990.65,64.02c0.2,0.01,0.39,0.02,0.59,0.02c4.6,0,8.14-3.54,9.65-7.19
						c1.75-4.21,1.04-8.41-1.86-10.96c-7.51-6.62-15.87-14.15-24.96-22.34c-67.46-60.8-180.38-162.57-289.73-193.61
						c-0.69-0.19-70.96-19.44-283.32-19.44c-95.42,0-159.2,12.13-159.84,12.25c-0.17,0.04-0.34,0.09-0.49,0.16
						c-96.03,45.61-225.16,138.37-242.4,174.13C2027.65,1960.88,2027.68,1961.6,2028.02,1962.19z M2935.07,2005.26L2542,1979.85
						c-0.15-63.95,2.03-128.3,7.95-187.31c116.18,5.04,159.13,16.31,159.67,16.46c61.12,17.35,124.09,58.23,179.18,101.18
						C2918.07,1933.01,2935.07,1968.14,2935.07,2005.26z M2211.68,1958.5c2.24-43.83,6.13-87.48,12.23-129.26
						c17.58-10.1,35.09-19.45,51.81-27.46c10.02-1.78,69.1-11.62,154.94-11.62c22.09,0,42.54,0.22,61.61,0.6
						c-5.76,59.07-7.98,122.53-7.98,185.37L2211.68,1958.5z M2077.51,1930.47c33.22-28.47,85.13-65.2,137.37-95.96
						c-5.6,40.04-9.26,81.66-11.39,123.45l-119.29-7.71C2074.13,1949.6,2069.85,1937.04,2077.51,1930.47z"/>
					<g>
						<path class="st2" d="M2835.12,2067.35c0-9.28,7.97-23.3,17.8-31.32l24.21-19.75c13.94-11.37,27.04-18.72,38.48-22.19
							c19.95-6.04,34.74-0.16,40.05,16.91l21.17-17.27c1.91-1.55,3.45-1.36,3.45,0.44v12.87c0,1.79-1.54,4.51-3.45,6.06
							l-90.22,73.59c-1.41,1.15-2.62,1.33-3.15,0.62l-10.31,8.41c-21,17.13-38.03,14.95-38.03-4.87v-18.46l0,0V2067.35z"/>
						<g>
							<path class="st10" d="M2868.41,2008.16h93.66v-5.51c0-39.03-31.64-70.68-70.68-70.68h-40.69c-8.61,0-15.59,6.98-15.59,15.59
								v27.31C2835.12,1993.26,2850.02,2008.16,2868.41,2008.16z"/>
							<path class="st13" d="M2879.97,1953.82h-44.85v-5.04c0-9.28,6.48-16.8,14.46-16.8h46.92c36.21,0,65.57,34.11,65.57,76.18
								h-7.24C2941.24,1976.01,2912.87,1953.82,2879.97,1953.82z"/>
							<path d="M2904.42,2010.12h72.84c1.66,0,3.01-1.35,3.01-3.01v-13.34c0-1.66-1.35-3.01-3.01-3.01h-60.89
								c-8.26,0-14.96,6.7-14.96,14.96v1.4C2901.4,2008.77,2902.75,2010.12,2904.42,2010.12z"/>
						</g>
					</g>
				</g>
				<g>
					<g>
						<ellipse class="st2" cx="2572.61" cy="2061.92" rx="30.68" ry="21.46"/>
						<g>
							<path class="st2" d="M2549.96,2074.03h52.98c6.69,0,12.1-5.42,12.1-12.1l0,0c0-6.68-5.42-12.1-12.1-12.1h-52.98
								c-6.69,0-12.1,5.42-12.1,12.1l0,0C2537.86,2068.61,2543.28,2074.03,2549.96,2074.03z"/>
						</g>
						<g>
							<path d="M2542.38,2074.03h52.98c6.68,0,12.1-5.42,12.1-12.1l0,0c0-6.68-5.42-12.1-12.1-12.1h-52.98
								c-6.69,0-12.1,5.42-12.1,12.1l0,0C2530.28,2068.61,2535.7,2074.03,2542.38,2074.03z"/>
						</g>
					</g>
					<g>
						<ellipse class="st2" cx="2110.61" cy="2046.1" rx="30.68" ry="21.46"/>
						<g>
							<path class="st2" d="M2087.96,2058.21h52.98c6.69,0,12.1-5.42,12.1-12.1l0,0c0-6.68-5.42-12.1-12.1-12.1h-52.98
								c-6.69,0-12.1,5.42-12.1,12.1l0,0C2075.86,2052.79,2081.28,2058.21,2087.96,2058.21z"/>
						</g>
						<g>
							<path d="M2080.38,2058.21h52.98c6.69,0,12.1-5.42,12.1-12.1l0,0c0-6.68-5.42-12.1-12.1-12.1h-52.98
								c-6.69,0-12.1,5.42-12.1,12.1l0,0C2068.28,2052.79,2073.7,2058.21,2080.38,2058.21z"/>
						</g>
					</g>
				</g>
			</g>
			<g>
				<path d="M2538.23,2391.72c0.08,0,0.17,0,0.25-0.02c1.13-0.14,1.93-1.16,1.79-2.29c-0.44-3.58-43.48-360.65-15.65-612.08
					c0.12-1.13-0.69-2.14-1.82-2.27c-1.19-0.1-2.15,0.69-2.27,1.82c-27.88,251.91,15.22,609.45,15.66,613.03
					C2536.32,2390.96,2537.21,2391.72,2538.23,2391.72z"/>
				<path d="M2276.46,2363.69c-8.58-15.67-13.84-32.3-19.41-49.9c-16.56-52.32-37.17-117.42-162.3-204.86
					c-14.15-10.02-47.7-37-53.64-71.05l-13.34-76.38c-0.07-0.42-0.01-0.86,0.17-1.24c17.24-35.76,146.37-128.52,242.39-174.13
					c0.16-0.08,0.32-0.13,0.49-0.16c0.63-0.12,64.42-12.25,159.84-12.25c212.37,0,282.64,19.25,283.32,19.44
					c94.42,26.8,191.54,105.97,265.6,171.95c0.25,0.22,0.45,0.51,0.56,0.83c0.51,1.4,50.9,143.35,10.1,408.79
					c-1.55,10.1-10.16,17.71-20.01,17.71H2321.7C2303.23,2392.43,2286.31,2381.68,2276.46,2363.69z M2712.87,1797.11
					c-0.68-0.2-70.4-19.29-282.2-19.29c-91.96,0-154.35,11.3-158.81,12.13c-100.63,47.85-223.55,139.53-239.93,171.51l13.22,75.71
					c5.68,32.54,38.24,58.67,51.96,68.39c126.26,88.23,147.1,154.07,163.85,206.98c5.51,17.41,10.71,33.84,19.1,49.16
					c9.12,16.66,24.68,26.6,41.63,26.6h648.55c7.85,0,14.7-6.11,15.95-14.22c39.44-256.6-6.56-397.06-9.74-406.28
					C2902.78,1902.2,2806.32,1823.63,2712.87,1797.11z"/>
			</g>
		</g>
		<g>
			<path class="st10" d="M2660.83,1758.4h253.34l-11.99-96.75c-1-8.06-7.84-14.1-15.96-14.1h-197.43c-8.12,0-14.96,6.05-15.96,14.1
				L2660.83,1758.4z"/>
			<path class="st20" d="M2660.83,1758.4l12-96.75c0.24-1.97,0.85-3.82,1.72-5.49h16.08c8.12,0,14.96,6.05,15.96,14.1l-9.07,88.14
				H2660.83z"/>
			<path d="M2648.19,1758.4h278.61v-12.34c0-4.46-3.62-8.08-8.08-8.08h-262.44c-4.46,0-8.08,3.62-8.08,8.08V1758.4z"/>
			<g>
				<path d="M2720.12,1682.57l0.02-7.44h38.69l-0.02,7.44h-15.19l0.12,41.61h-8.64l-0.12-41.61H2720.12z"/>
				<path d="M2796.44,1675.13l19.16,49.05h-9.74l-4.95-13.76h-18.7c-0.46,1.17-0.89,2.33-1.3,3.47c-0.41,1.15-0.81,2.27-1.2,3.4
					c-0.39,1.13-0.78,2.26-1.18,3.41c-0.39,1.15-0.79,2.31-1.2,3.49h-9.06l18.72-49.05H2796.44z M2798,1702.88l-6.45-18.01
					l-6.3,18.01H2798z"/>
				<path d="M2825.87,1675.13h10.45l10.79,17.2l11.21-17.2h9.84l-16.05,23.82l17.13,25.23h-10.55l-11.65-17.99l-12.05,17.99h-9.96
					l16.71-25.32L2825.87,1675.13z"/>
				<path d="M2891.68,1675.13l0.08,49.05h-8.64l-0.07-49.05H2891.68z"/>
			</g>
		</g>
	</g>
</g>
<g id="phone">
	<g>
		<path d="M2986.07,2527.39h-838.61c-55.6,0-100.67-45.07-100.67-100.67V460.36c0-55.6,45.07-100.67,100.67-100.67h838.61
			c55.6,0,100.67,45.07,100.67,100.67v1966.36C3086.73,2482.32,3041.66,2527.39,2986.07,2527.39z"/>
		<path class="st7" d="M2938.89,2490.69h-779.98c-50.71,0-91.82-41.11-91.82-91.82V488.21c0-50.71,41.11-91.82,91.82-91.82h779.98
			c50.71,0,91.82,41.11,91.82,91.82v1910.67C3030.71,2449.59,2989.6,2490.69,2938.89,2490.69z"/>
		<path class="st1" d="M2918.59,2490.69h-779.98c-50.71,0-91.82-41.11-91.82-91.82V488.21c0-50.71,41.11-91.82,91.82-91.82h779.98
			c50.71,0,91.82,41.11,91.82,91.82v1910.67C3010.41,2449.59,2969.3,2490.69,2918.59,2490.69z"/>
		<path class="st21" d="M2662.07,491.25L2662.07,491.25c0,24.14-19.57,43.7-43.7,43.7h-179.53c-24.14,0-43.7-19.57-43.7-43.7v0
			c0-33.89-27.48-61.37-61.37-61.37l-205.04,0c-33.17,0-60.05,26.89-60.05,60.05v1906.95c0,38.47,31.19,69.66,69.66,69.66h780.54
			c38.47,0,69.66-31.19,69.66-69.66V489.94c0-33.17-26.89-60.05-60.05-60.05l-205.04,0
			C2689.54,429.88,2662.07,457.36,2662.07,491.25z"/>
		<g>
			<g>
				<g>
					<rect x="2835.83" y="478.6" class="st8" width="12.09" height="67.8"/>
					<rect x="2819.23" y="495.5" class="st8" width="12.09" height="50.9"/>
					<rect x="2802.63" y="512.4" class="st8" width="12.09" height="34"/>
					<rect x="2786.03" y="529.3" class="st8" width="12.09" height="17.1"/>
				</g>
				<path class="st8" d="M2902.65,483.94v-5.35h-19.98v5.35h-8.58v62.46h37.14v-62.46H2902.65z M2876.56,499.51v-12.68h32.2v12.68
					H2876.56z"/>
			</g>
			<g>
				<path class="st8" d="M2375.52,615.23h-0.34l-18.97,12.06l-2.85-13.24l23.84-15.02h12.59v128.48h-14.27V615.23z"/>
				<path class="st8" d="M2502.25,661.88c0,43.68-13.93,67.8-37.94,67.8c-21.32,0-35.92-23.52-36.26-66.02
					c0-43.29,15.95-66.81,38.1-66.81C2488.99,596.85,2502.25,620.96,2502.25,661.88z M2443,663.86c0,33.41,8.73,52.38,22.16,52.38
					c14.94,0,22.16-20.76,22.16-53.57c0-31.63-6.71-52.38-22.16-52.38C2452.4,610.29,2443,628.87,2443,663.86z"/>
				<path class="st8" d="M2517.01,647.65c0-7.31,4.2-12.45,9.9-12.45c6.04,0,9.9,5.14,9.9,12.45c0,6.92-3.86,12.26-10.07,12.26
					C2521.04,659.9,2517.01,654.57,2517.01,647.65z M2517.01,717.42c0-7.31,4.2-12.45,9.9-12.45c6.04,0,9.9,5.14,9.9,12.45
					c0,6.92-3.86,12.26-10.07,12.26C2521.04,729.68,2517.01,724.34,2517.01,717.42z"/>
				<path class="st8" d="M2623.1,661.88c0,43.68-13.93,67.8-37.94,67.8c-21.32,0-35.92-23.52-36.26-66.02
					c0-43.29,15.95-66.81,38.1-66.81C2609.84,596.85,2623.1,620.96,2623.1,661.88z M2563.84,663.86c0,33.41,8.73,52.38,22.16,52.38
					c14.94,0,22.16-20.76,22.16-53.57c0-31.63-6.71-52.38-22.16-52.38C2573.24,610.29,2563.84,628.87,2563.84,663.86z"/>
				<path class="st8" d="M2701.65,613.65h-41.63l-4.2,33.01c2.52-0.4,4.87-0.59,8.9-0.59c8.56,0,16.79,1.98,23.5,6.92
					c8.56,5.53,15.61,16.8,15.61,32.81c0,25.1-16.95,43.88-40.62,43.88c-11.92,0-21.82-3.95-27.19-7.91l3.69-13.24
					c4.53,3.16,13.43,7.12,23.5,7.12c13.76,0,25.85-10.67,25.68-27.87c0-16.6-9.57-28.27-31.22-28.27c-6.38,0-11.25,0.59-15.28,1.19
					l7.05-61.67h52.21V613.65z"/>
			</g>
		</g>
		<g class="st22">
			<defs>
				<path id="SVGID_5_" class="st22" d="M2662.07,491.25L2662.07,491.25c0,24.14-19.57,43.7-43.7,43.7h-179.53
					c-24.14,0-43.7-19.57-43.7-43.7v0c0-33.89-27.48-61.37-61.37-61.37l-205.04,0c-33.17,0-60.05,26.89-60.05,60.05v1906.95
					c0,38.47,31.19,69.66,69.66,69.66h780.54c38.47,0,69.66-31.19,69.66-69.66V489.94c0-33.17-26.89-60.05-60.05-60.05l-205.04,0
					C2689.54,429.88,2662.07,457.36,2662.07,491.25z"/>
			</defs>
			<clipPath id="SVGID_6_">
				<use xlink:href="#SVGID_5_"  style="overflow:visible;"/>
			</clipPath>
			<g class="st23">
				<g>
					<g>
						<path class="st1" d="M2792.94,2375.79c0-83.68-58.75-151.56-131.25-151.56h75.91c72.51,0,131.26,67.88,131.26,151.56
							c0,83.72-58.75,151.6-131.26,151.6h-75.91C2734.19,2527.39,2792.94,2459.51,2792.94,2375.79z"/>
						<g>
							<path class="st2" d="M2664.63,2224.23c-74.13,0-134.2,67.87-134.2,151.56c0,83.72,60.07,151.6,134.2,151.6
								c74.13,0,134.2-67.87,134.2-151.6C2798.84,2292.11,2738.77,2224.23,2664.63,2224.23z"/>
						</g>
						<g>
							<path d="M2661.69,2224.23c-72.51,0-131.25,67.87-131.25,151.56c0,83.72,58.75,151.6,131.25,151.6
								c72.51,0,131.25-67.87,131.25-151.6C2792.94,2292.11,2734.19,2224.23,2661.69,2224.23z"/>
						</g>
					</g>
					<g>
						<path class="st1" d="M3944.77,2375.79c0-83.68-58.75-151.56-131.25-151.56h75.91c72.51,0,131.26,67.88,131.26,151.56
							c0,83.72-58.75,151.6-131.26,151.6h-75.91C3886.02,2527.39,3944.77,2459.51,3944.77,2375.79z"/>
						<g>
							<path class="st2" d="M3816.47,2224.23c-74.13,0-134.2,67.87-134.2,151.56c0,83.72,60.07,151.6,134.2,151.6
								c74.13,0,134.2-67.87,134.2-151.6C3950.67,2292.11,3890.6,2224.23,3816.47,2224.23z"/>
						</g>
						<g>
							<path d="M3813.52,2224.23c-72.51,0-131.25,67.87-131.25,151.56c0,83.72,58.75,151.6,131.25,151.6s131.25-67.87,131.25-151.6
								C3944.77,2292.11,3886.02,2224.23,3813.52,2224.23z"/>
						</g>
					</g>
				</g>
				<path d="M2348.06,2131.52h969.67h608.43c71.64,0,129.7,58.28,129.7,130.18v114.11c0,10.99-13.27,54.59-51.91,54.59H3427.6
					h-887.22h-608.43c-18.44,0-36.73-3.24-54.05-9.56l-72.23-29.34c-39.92-16.21-66.04-55.11-66.04-98.34v-161.64H2348.06z"/>
				<g>
					<g class="st3">
						<defs>
							<path id="SVGID_7_" class="st3" d="M3214.41,2527.39h75.92c72.51,0,131.25-67.87,131.25-151.6
								c0-83.68-58.75-151.56-131.25-151.56h-75.92c72.51,0,131.25,67.87,131.25,151.56
								C3345.67,2459.51,3286.92,2527.39,3214.41,2527.39z"/>
						</defs>
						<use xlink:href="#SVGID_7_"  style="overflow:visible;"/>
						<clipPath id="SVGID_8_">
							<use xlink:href="#SVGID_7_"  style="overflow:visible;"/>
						</clipPath>
						<g class="st24">
							<path d="M3345.67,2375.79c0-8.15-0.59-16.14-1.66-23.95h75.92c1.07,7.81,1.66,15.8,1.66,23.95
								c0,83.72-58.75,151.6-131.25,151.6h-75.92C3286.92,2527.39,3345.67,2459.51,3345.67,2375.79z"/>
							<path d="M3390.24,2277.5c9.72,13.16,17.53,28.27,22.92,44.75c3.09,9.45,5.35,19.35,6.76,29.59H3344
								c-1.41-10.24-3.67-20.14-6.76-29.59l0,0c-5.39-16.48-13.19-31.59-22.92-44.75H3390.24z"/>
							<path d="M3364.89,2251.06c9.41,7.52,17.94,16.41,25.35,26.44h-75.91c-7.41-10.03-15.94-18.92-25.35-26.44H3364.89z"/>
							<path d="M3214.41,2224.23h75.92c27.7,0,53.39,9.92,74.56,26.83h-75.91C3267.8,2234.15,3242.12,2224.23,3214.41,2224.23z"/>
						</g>
					</g>
					<g>
						<path class="st2" d="M3217.36,2224.23c-74.13,0-134.2,67.87-134.2,151.56c0,83.72,60.07,151.6,134.2,151.6
							s134.2-67.87,134.2-151.6C3351.57,2292.11,3291.5,2224.23,3217.36,2224.23z"/>
					</g>
					<g>
						<path class="st5" d="M3214.41,2224.23c-72.51,0-131.25,67.87-131.25,151.56c0,83.72,58.75,151.6,131.25,151.6
							s131.25-67.87,131.25-151.6C3345.67,2292.11,3286.92,2224.23,3214.41,2224.23z"/>
					</g>
					<g>
						<path class="st1" d="M3214.41,2263.08c-53.92,0-97.62,50.48-97.62,112.72c0,62.27,43.69,112.74,97.62,112.74
							s97.62-50.48,97.62-112.74C3312.03,2313.56,3268.34,2263.08,3214.41,2263.08z"/>
					</g>
					<g>
						<path d="M3214.41,2279.5c-46.07,0-83.4,43.13-83.4,96.3c0,53.2,37.33,96.32,83.4,96.32s83.4-43.13,83.4-96.32
							C3297.81,2322.63,3260.48,2279.5,3214.41,2279.5z"/>
					</g>
					<path class="st6" d="M3121.28,2375.88c0,59.41,41.69,107.57,93.14,107.57c51.45,0,93.13-48.16,93.13-107.57
						c0-59.39-41.69-107.55-93.13-107.55C3162.96,2268.33,3121.28,2316.49,3121.28,2375.88z M3151.05,2443.55
						c-8.19-10.23-14.56-22.41-18.48-35.92l67.54-20.97L3151.05,2443.55z M3199.22,2366.91l-67.25-20.88
						c3.7-13.62,9.91-25.91,17.93-36.32L3199.22,2366.91z M3214.42,2276.12c5.87,0,11.61,0.69,17.15,1.98l-18.05,78.03l-17.94-77.57
						C3201.65,2277.01,3207.94,2276.12,3214.42,2276.12z M3229.62,2384.88l67.24,20.88c-3.69,13.62-9.91,25.91-17.92,36.32
						L3229.62,2384.88z M3228.73,2365.12l49.05-56.89c8.19,10.23,14.56,22.41,18.48,35.92L3228.73,2365.12z M3214.42,2475.66
						c-5.88,0-11.61-0.69-17.16-1.98l18.05-78.03l17.94,77.57C3227.17,2474.77,3220.89,2475.66,3214.42,2475.66z"/>
					<path class="st7" d="M3214.41,2372.43c-31.67,0-61.06,6.36-85.39,17.23c-0.55-4.54-0.93-9.15-0.93-13.86
						c0-55.04,38.64-99.68,86.32-99.68c47.68,0,86.32,44.64,86.32,99.68c0,4.72-0.38,9.32-0.93,13.86
						C3275.47,2378.79,3246.08,2372.43,3214.41,2372.43z"/>
					<path class="st8" d="M3121.28,2375.82c0,59.38,41.65,107.52,93.04,107.52s93.04-48.14,93.04-107.52
						c0-59.35-41.65-107.49-93.04-107.49S3121.28,2316.47,3121.28,2375.82z M3127.82,2375.82c0-55.18,38.72-99.93,86.5-99.93
						s86.5,44.75,86.5,99.93c0,55.2-38.71,99.96-86.5,99.96S3127.82,2431.02,3127.82,2375.82z"/>
					<g>
						<path class="st2" d="M3226.56,2342.93c-15.73,0-28.48,14.73-28.48,32.88c0,18.16,12.75,62.02,28.48,62.02
							s28.48-43.85,28.48-62.02C3255.04,2357.65,3242.29,2342.93,3226.56,2342.93z"/>
					</g>
					<g>
						<g>
							<path d="M3226.56,2342.93c-15.73,0-28.48,14.73-28.48,32.88c0,18.16,12.75,32.89,28.48,32.89s28.48-14.73,28.48-32.89
								C3255.04,2357.65,3242.29,2342.93,3226.56,2342.93z"/>
						</g>
						<g>
							<path class="st8" d="M3214.41,2342.93c-15.73,0-28.48,14.73-28.48,32.88c0,18.16,12.75,32.89,28.48,32.89
								c15.73,0,28.48-14.73,28.48-32.89C3242.89,2357.65,3230.15,2342.93,3214.41,2342.93z"/>
						</g>
					</g>
				</g>
				<g>
					<g class="st3">
						<defs>
							<path id="SVGID_9_" class="st3" d="M2062.58,2527.39h75.91c72.51,0,131.25-67.87,131.25-151.6
								c0-83.68-58.75-151.56-131.25-151.56h-75.91c72.51,0,131.25,67.87,131.25,151.56
								C2193.84,2459.51,2135.09,2527.39,2062.58,2527.39z"/>
						</defs>
						<use xlink:href="#SVGID_9_"  style="overflow:visible;"/>
						<clipPath id="SVGID_10_">
							<use xlink:href="#SVGID_9_"  style="overflow:visible;"/>
						</clipPath>
						<g class="st25">
							<path d="M2193.84,2375.79c0-8.15-0.59-16.14-1.66-23.95h75.92c1.07,7.81,1.66,15.8,1.66,23.95
								c0,83.72-58.75,151.6-131.25,151.6h-75.92C2135.09,2527.39,2193.84,2459.51,2193.84,2375.79z"/>
							<path d="M2238.41,2277.5c9.72,13.16,17.53,28.27,22.92,44.75c3.09,9.45,5.35,19.35,6.76,29.59h-75.92
								c-1.41-10.24-3.67-20.14-6.76-29.59l0,0c-5.39-16.48-13.19-31.59-22.92-44.75H2238.41z"/>
							<path d="M2213.06,2251.06c9.41,7.52,17.94,16.41,25.35,26.44h-75.91c-7.41-10.03-15.94-18.92-25.35-26.44H2213.06z"/>
							<path d="M2062.58,2224.23h75.92c27.7,0,53.39,9.92,74.56,26.83h-75.91C2115.97,2234.15,2090.29,2224.23,2062.58,2224.23z"/>
						</g>
					</g>
					<g>
						<path class="st2" d="M2065.53,2224.23c-74.13,0-134.2,67.87-134.2,151.56c0,83.72,60.07,151.6,134.2,151.6
							c74.13,0,134.2-67.87,134.2-151.6C2199.73,2292.11,2139.67,2224.23,2065.53,2224.23z"/>
					</g>
					<g>
						<path class="st5" d="M2062.58,2224.23c-72.51,0-131.25,67.87-131.25,151.56c0,83.72,58.75,151.6,131.25,151.6
							c72.51,0,131.25-67.87,131.25-151.6C2193.84,2292.11,2135.09,2224.23,2062.58,2224.23z"/>
					</g>
					<g>
						<path class="st1" d="M2062.58,2263.08c-53.92,0-97.62,50.48-97.62,112.72c0,62.27,43.69,112.74,97.62,112.74
							c53.92,0,97.62-50.48,97.62-112.74C2160.2,2313.56,2116.51,2263.08,2062.58,2263.08z"/>
					</g>
					<g>
						<path d="M2062.58,2279.5c-46.07,0-83.4,43.13-83.4,96.3c0,53.2,37.33,96.32,83.4,96.32c46.07,0,83.4-43.13,83.4-96.32
							C2145.98,2322.63,2108.65,2279.5,2062.58,2279.5z"/>
					</g>
					<path class="st6" d="M1969.45,2375.88c0,59.41,41.69,107.57,93.14,107.57c51.45,0,93.13-48.16,93.13-107.57
						c0-59.39-41.69-107.55-93.13-107.55C2011.13,2268.33,1969.45,2316.49,1969.45,2375.88z M1999.22,2443.55
						c-8.19-10.23-14.56-22.41-18.48-35.92l67.54-20.97L1999.22,2443.55z M2047.39,2366.91l-67.25-20.88
						c3.7-13.62,9.91-25.91,17.93-36.32L2047.39,2366.91z M2062.59,2276.12c5.87,0,11.61,0.69,17.15,1.98l-18.05,78.03l-17.94-77.57
						C2049.82,2277.01,2056.11,2276.12,2062.59,2276.12z M2077.79,2384.88l67.24,20.88c-3.69,13.62-9.91,25.91-17.92,36.32
						L2077.79,2384.88z M2076.9,2365.12l49.05-56.89c8.19,10.23,14.56,22.41,18.48,35.92L2076.9,2365.12z M2062.59,2475.66
						c-5.88,0-11.61-0.69-17.16-1.98l18.05-78.03l17.94,77.57C2075.34,2474.77,2069.06,2475.66,2062.59,2475.66z"/>
					<path class="st7" d="M2062.58,2372.43c-31.67,0-61.06,6.36-85.39,17.23c-0.55-4.54-0.93-9.15-0.93-13.86
						c0-55.04,38.64-99.68,86.32-99.68c47.68,0,86.32,44.64,86.32,99.68c0,4.72-0.38,9.32-0.93,13.86
						C2123.64,2378.79,2094.25,2372.43,2062.58,2372.43z"/>
					<path class="st8" d="M1969.45,2375.82c0,59.38,41.65,107.52,93.04,107.52c51.4,0,93.04-48.14,93.04-107.52
						c0-59.35-41.65-107.49-93.04-107.49C2011.09,2268.33,1969.45,2316.47,1969.45,2375.82z M1975.99,2375.82
						c0-55.18,38.72-99.93,86.5-99.93c47.78,0,86.5,44.75,86.5,99.93c0,55.2-38.71,99.96-86.5,99.96
						C2014.71,2475.78,1975.99,2431.02,1975.99,2375.82z"/>
					<g>
						<path class="st2" d="M2074.73,2342.93c-15.73,0-28.48,14.73-28.48,32.88c0,18.16,12.75,62.02,28.48,62.02
							c15.73,0,28.48-43.85,28.48-62.02C2103.21,2357.65,2090.46,2342.93,2074.73,2342.93z"/>
					</g>
					<g>
						<g>
							<path d="M2074.73,2342.93c-15.73,0-28.48,14.73-28.48,32.88c0,18.16,12.75,32.89,28.48,32.89
								c15.73,0,28.48-14.73,28.48-32.89C2103.21,2357.65,2090.46,2342.93,2074.73,2342.93z"/>
						</g>
						<g>
							<path class="st8" d="M2062.58,2342.93c-15.73,0-28.48,14.73-28.48,32.88c0,18.16,12.75,32.89,28.48,32.89
								c15.73,0,28.48-14.73,28.48-32.89C2091.06,2357.65,2078.31,2342.93,2062.58,2342.93z"/>
						</g>
					</g>
				</g>
				<path class="st10" d="M2504.4,1948.31c-300.95-1.59-297.79-153.38-180.1-195.46c0,0,14.97-7.82,289.18-7.82
					c538.91,0,690.41,32.52,707.19,38.49c160.68,57.18,366.69,200.72,366.69,200.72s323.57,55.27,375.39,223.55
					c4.58,14.87,31.44,10.41,31.44,21.69c1.45,65.43-22.93,183.81-58.1,183.81c0,0-391.89,0.17-630.28,0
					c0.63-9.08-39.07-166.29-39.07-175.51C3366.73,2099.93,2504.4,1948.31,2504.4,1948.31z"/>
				<g>
					<path class="st11" d="M4036.08,2413.3c0,0-391.89,0.17-630.29,0c0.29-4.21-8.11-40.37-17.2-78.82h693.17
						C4071.45,2377.54,4055.4,2413.3,4036.08,2413.3z"/>
					<path class="st11" d="M1786.07,1948.31h88.09c153.58-84.37,250.55-142.24,368.24-184.33c0,0,33.7-12.36,138.03-12.36
						c184.67,0,299.9,13.79,313.22,17.07c163.97,40.46,363.47,215.55,363.47,215.55s142.64,12.92,331,98.21
						c67.46,30.55,92.19,75.36,121.3,125.33c7.83,13.44,31.44,10.41,31.44,21.69c1.45,65.43-17.25,183.81-28.07,183.81
						c0,0-52.65-0.04-138.89-0.11c0.67-9.36,1.05-18.8,1.05-28.31c0-137.86-72.23-207.74-161.32-207.74
						c-89.1,0-161.32,69.88-161.32,207.74c0,9.43,0.37,18.79,1.03,28.07c-265.41-0.2-592.81-0.45-831.2-0.61
						c0.63-9.08,0.98-18.24,0.98-27.46c0-137.86-72.23-207.74-161.32-207.74c-89.1,0-161.32,69.88-161.32,207.74
						c0,9.1,0.33,18.14,0.95,27.09l-169.34-37.71c-31.09-6.03-56.94-28.15-66.7-58.28c-10.19-31.48-13.48-69.17-14.04-106.47
						c-0.3-19.99,6.59-34.85,14.27-45.16c12.15-16.31,21.2-36.25,21.2-57.82C1686.81,2006.91,1678.39,1948.31,1786.07,1948.31z"/>
				</g>
				<path class="st10" d="M1676.11,2243.54h178.59c28.55,0,56.1-12.49,77.31-35.15c34.61-36.97,80.43-59.49,130.71-59.49
					c50.27,0,96.09,22.51,130.7,59.49c21.21,22.66,48.76,35.15,77.31,35.15h736.83c28.55,0,56.1-12.49,77.31-35.15
					c34.61-36.97,80.43-59.49,130.71-59.49c50.27,0,96.09,22.52,130.7,59.49c21.21,22.66,48.76,35.15,77.31,35.15h622.01
					c44.17,0,30.77,127.7-47.19,127.7c-3.86,0-574.78,0.01-574.78,0.01c-9.46,0-12.73,6.03-12.73,9.08
					c0,11.19-0.82,22.13-2.12,32.89c-10.93-0.01-22.52-0.02-34.89-0.03c0.67-9.36,1.04-18.8,1.04-28.31
					c0-137.86-72.22-207.74-161.32-207.74c-89.1,0-161.32,69.88-161.32,207.74c0,9.43,0.37,18.79,1.03,28.07
					c-10.17-0.01-20.46-0.02-30.8-0.02c-0.72-20.73,2.26-84.07,2.26-84.07c0.01-17.54-276.07-31.9-290.88-31.9h-180.6
					c-14.8,0-300.07,14.35-300.06,31.9c0,0,5.65,47.1,2.71,83.5c-11.44-0.01-22.76-0.02-33.83-0.02c0.63-9.08,0.98-18.24,0.98-27.46
					c0-137.86-72.22-207.74-161.32-207.74c-89.1,0-161.32,69.88-161.32,207.74c0,9.1,0.33,18.14,0.95,27.09l-34.32-7.64
					c-2.94-14.3-10.18-33.08-30.35-33.08c0,0-71.42-4.07-126.46-31.99c-27.45-13.92-36.91-41.92-45.91-75.66
					C1661.74,2253.66,1667.31,2243.54,1676.11,2243.54z"/>
				<g>
					<path class="st12" d="M1686.07,2040.7c1.22-59.07-7.95-92.39,100-92.39h54.25c21.58,0,42.59-6.45,60.57-18.37
						c103.81-68.84,233.33-127.26,341.52-165.95c0,0,33.7-12.36,138.03-12.36c184.67,0,299.89,13.79,313.22,17.07
						c163.97,40.46,363.46,215.55,363.46,215.55s142.64,12.92,331.01,98.21c59.31,26.86,85.59,64.75,110.85,107.47
						C3253.16,2097.31,2623.12,2044.67,1686.07,2040.7z"/>
					<g>
						<path class="st12" d="M4045.98,2170.88c6.98,11.67,12.76,23.91,16.76,36.91c3.92,12.72,24.11,11.32,29.86,17.72h-422.22
							c-188.91,0-271.69-22.76-298.83-54.63H4045.98z"/>
						<path class="st12" d="M1665.61,2164.35c12.15-16.31,21.2-36.25,21.2-57.82c0-23.18-1.01-44.11-0.79-62.63h108.02
							c0,32.53-61.74,122.56-138.77,140.08C1657.94,2176.19,1661.66,2169.66,1665.61,2164.35z"/>
					</g>
				</g>
				<g>
					<path class="st13" d="M3057.12,1984.24c0,0-199.49-175.08-363.46-215.55c-13.33-3.29-128.55-17.07-313.22-17.07
						c-104.33,0-138.03,12.36-138.03,12.36c-94.99,33.97-206.41,83.17-302.45,141.26c447.31,17.14,1185.04,70.03,1501.75,211.01
						c-14.47-12.55-31.78-23.92-53.58-33.79C3199.76,1997.16,3057.12,1984.24,3057.12,1984.24z M3687.35,1984.24
						c0,0-1.78-1.24-4.85-3.34h-232.99c166.27,110.86,550.17,135.34,550.17,135.34C3889.33,2018.76,3687.35,1984.24,3687.35,1984.24
						z"/>
				</g>
				<g>
					<g>
						
							<rect x="2957" y="2179.51" transform="matrix(-1 -1.224647e-16 1.224647e-16 -1 5937.4644 4386.6001)" width="23.46" height="27.58"/>
						
							<rect x="2910.08" y="2179.51" transform="matrix(-1 -1.224647e-16 1.224647e-16 -1 5843.6152 4386.6001)" width="23.46" height="27.58"/>
						
							<rect x="2863.15" y="2179.51" transform="matrix(-1 -1.224647e-16 1.224647e-16 -1 5749.7661 4386.6001)" width="23.46" height="27.58"/>
						
							<rect x="2816.23" y="2179.51" transform="matrix(-1 -1.224647e-16 1.224647e-16 -1 5655.9165 4386.6001)" width="23.46" height="27.58"/>
						
							<rect x="2769.3" y="2179.51" transform="matrix(-1 -1.224647e-16 1.224647e-16 -1 5562.0674 4386.6001)" width="23.46" height="27.58"/>
						
							<rect x="2980.46" y="2151.93" transform="matrix(-1 -1.224647e-16 1.224647e-16 -1 5984.3887 4331.436)" width="23.46" height="27.58"/>
						
							<rect x="2933.54" y="2151.93" transform="matrix(-1 -1.224647e-16 1.224647e-16 -1 5890.5396 4331.436)" width="23.46" height="27.58"/>
						
							<rect x="2886.61" y="2151.93" transform="matrix(-1 -1.224647e-16 1.224647e-16 -1 5796.6904 4331.436)" width="23.46" height="27.58"/>
						
							<rect x="2839.69" y="2151.93" transform="matrix(-1 -1.224647e-16 1.224647e-16 -1 5702.8413 4331.436)" width="23.46" height="27.58"/>
						
							<rect x="2792.76" y="2151.93" transform="matrix(-1 -1.224647e-16 1.224647e-16 -1 5608.9917 4331.436)" width="23.46" height="27.58"/>
						
							<rect x="2745.84" y="2151.93" transform="matrix(-1 -1.224647e-16 1.224647e-16 -1 5515.1426 4331.436)" width="23.46" height="27.58"/>
					</g>
					<g>
						
							<rect x="2722.38" y="2179.51" transform="matrix(-1 -1.224647e-16 1.224647e-16 -1 5468.2183 4386.6001)" width="23.46" height="27.58"/>
						
							<rect x="2675.45" y="2179.51" transform="matrix(-1 -1.224647e-16 1.224647e-16 -1 5374.3691 4386.6001)" width="23.46" height="27.58"/>
						
							<rect x="2628.53" y="2179.51" transform="matrix(-1 -1.224647e-16 1.224647e-16 -1 5280.5195 4386.6001)" width="23.46" height="27.58"/>
						
							<rect x="2581.6" y="2179.51" transform="matrix(-1 -1.224647e-16 1.224647e-16 -1 5186.6704 4386.6001)" width="23.46" height="27.58"/>
						
							<rect x="2534.68" y="2179.51" transform="matrix(-1 -1.224647e-16 1.224647e-16 -1 5092.8213 4386.6001)" width="23.46" height="27.58"/>
						
							<rect x="2487.75" y="2179.51" transform="matrix(-1 -1.224647e-16 1.224647e-16 -1 4998.9717 4386.6001)" width="23.46" height="27.58"/>
						
							<rect x="2698.92" y="2151.93" transform="matrix(-1 -1.224647e-16 1.224647e-16 -1 5421.2935 4331.436)" width="23.46" height="27.58"/>
						
							<rect x="2651.99" y="2151.93" transform="matrix(-1 -1.224647e-16 1.224647e-16 -1 5327.4443 4331.436)" width="23.46" height="27.58"/>
						
							<rect x="2605.07" y="2151.93" transform="matrix(-1 -1.224647e-16 1.224647e-16 -1 5233.5952 4331.436)" width="23.46" height="27.58"/>
						
							<rect x="2558.14" y="2151.93" transform="matrix(-1 -1.224647e-16 1.224647e-16 -1 5139.7456 4331.436)" width="23.46" height="27.58"/>
						
							<rect x="2511.22" y="2151.93" transform="matrix(-1 -1.224647e-16 1.224647e-16 -1 5045.8965 4331.436)" width="23.46" height="27.58"/>
						
							<rect x="2464.29" y="2151.93" transform="matrix(-1 -1.224647e-16 1.224647e-16 -1 4952.0474 4331.436)" width="23.46" height="27.58"/>
					</g>
					<g>
						
							<rect x="2440.83" y="2179.51" transform="matrix(-1 -1.224647e-16 1.224647e-16 -1 4905.1226 4386.6001)" width="23.46" height="27.58"/>
						
							<rect x="2393.91" y="2179.51" transform="matrix(-1 -1.224647e-16 1.224647e-16 -1 4811.2734 4386.6001)" width="23.46" height="27.58"/>
						
							<rect x="2346.98" y="2179.51" transform="matrix(-1 -1.224647e-16 1.224647e-16 -1 4717.4243 4386.6001)" width="23.46" height="27.58"/>
						
							<rect x="2300.06" y="2179.51" transform="matrix(-1 -1.224647e-16 1.224647e-16 -1 4623.5747 4386.6001)" width="23.46" height="27.58"/>
						
							<rect x="2253.13" y="2179.51" transform="matrix(-1 -1.224647e-16 1.224647e-16 -1 4529.7256 4386.6001)" width="23.46" height="27.58"/>
						
							<rect x="2206.21" y="2179.51" transform="matrix(-1 -1.224647e-16 1.224647e-16 -1 4435.8765 4386.6001)" width="23.46" height="27.58"/>
						
							<rect x="2417.37" y="2151.93" transform="matrix(-1 -1.224647e-16 1.224647e-16 -1 4858.1982 4331.436)" width="23.46" height="27.58"/>
						
							<rect x="2370.44" y="2151.93" transform="matrix(-1 -1.224647e-16 1.224647e-16 -1 4764.3486 4331.436)" width="23.46" height="27.58"/>
						
							<rect x="2323.52" y="2151.93" transform="matrix(-1 -1.224647e-16 1.224647e-16 -1 4670.4995 4331.436)" width="23.46" height="27.58"/>
						
							<rect x="2276.59" y="2151.93" transform="matrix(-1 -1.224647e-16 1.224647e-16 -1 4576.6504 4331.436)" width="23.46" height="27.58"/>
						
							<rect x="2229.67" y="2151.93" transform="matrix(-1 -1.224647e-16 1.224647e-16 -1 4482.8013 4331.436)" width="23.46" height="27.58"/>
						
							<rect x="2182.74" y="2151.93" transform="matrix(-1 -1.224647e-16 1.224647e-16 -1 4388.9517 4331.436)" width="23.46" height="27.58"/>
					</g>
				</g>
				<path d="M3360.47,2126.93h160.48c88.63,0,143.37,15.45,176.99,32.94c8.07,4.2,16.93,6.63,26.03,6.63h257.35
					c4.6-6.46,8.35-13.87,10.53-22.41c2.38-9.33,10.01-16.23,19.43-17c23.71,23.42,42.07,50.2,51.46,80.71
					c0.13,0.43,0.34,0.79,0.51,1.18h-553.28c-29.92,0-121.67-20.3-158.15-50.99C3340.2,2148.22,3346.13,2126.93,3360.47,2126.93z"/>
				<g>
					<path class="st6" d="M3647.1,2204.05c-32.7,0-95.39,0-121.6,0c-71.06,0-146.56-25.79-171.3-47.55
						c-9.81-8.63-4.34-27.56,7.78-27.56h135.44C3629.27,2128.93,3713.7,2204.05,3647.1,2204.05z"/>
					<path class="st7" d="M3546.12,2198.3c-97.74,2.49-123.52-17.19-158.62-37.45c-11.77-6.8-5.21-21.71,9.34-21.71h30.26
						c82.49,0,115.45,32.37,127.1,49.46C3557.37,2193.25,3552.76,2198.13,3546.12,2198.3z"/>
					<path class="st8" d="M3607.07,2183.85c-39.3-2.62-118.17-15.07-151.75-32.82c-11.26-5.95-4.99-19.02,8.93-19.02h28.95
						c78.92,0,110.45,28.37,121.59,43.34C3617.83,2179.42,3613.41,2184.27,3607.07,2183.85z"/>
				</g>
				<g>
					<path class="st14" d="M1798.73,2013.32c5.33,0,8.52,6.91,5.6,12.11l-19.58,34.79c-16.03,28.49-43.27,45.64-72.47,45.64h-25.8
						c-6.3-13.63-6.9-29.4-6.9-46.27c0-16.87,0.61-32.64,6.9-46.27H1798.73z"/>
					<g>
						<path class="st15" d="M1763.66,2037.56c3.55,0,5.68,4.61,3.73,8.07l-13.05,23.18c-10.69,18.99-28.84,30.42-48.3,30.42l0,0
							c-11.7,0-21.38-10.79-21.73-24.44c-0.05-2.1-0.07-4.24-0.07-6.4c0-0.11,0-0.22,0-0.34c0.01-16.89,11.89-30.5,26.36-30.5
							H1763.66z"/>
						<path class="st16" d="M1764.9,2017.51c2.57,0,4.11,3.33,2.7,5.84l-9.43,16.76c-7.72,13.72-20.85,21.99-34.91,21.99l0,0
							c-8.46,0-15.45-7.8-15.71-17.67c-0.04-1.52-0.05-3.06-0.05-4.62c0-0.08,0-0.16,0-0.24c0.01-12.21,8.59-22.05,19.05-22.05
							H1764.9z"/>
					</g>
					<path d="M1686.48,2107.92h25.8c29.89,0,57.53-17.41,73.95-46.57l19.58-34.79c1.73-3.09,1.88-6.86,0.37-10.11
						c-1.5-3.25-4.28-5.19-7.44-5.19h-112.25c-0.97,0-1.76,0.92-1.76,2.06c0,1.14,0.79,2.06,1.76,2.06h112.25
						c1.84,0,3.47,1.13,4.34,3.03c0.88,1.89,0.79,4.1-0.22,5.9l-19.58,34.79c-15.76,28-42.3,44.72-71,44.72h-25.8
						c-0.97,0-1.76,0.92-1.76,2.06S1685.51,2107.92,1686.48,2107.92z"/>
				</g>
				<g>
					<path class="st6" d="M4061.42,2204.02c-3.17,0.02-7.19,0.03-12.52,0.03c-42.37,0-66.54-15.1-55.37-60.58
						c2.11-8.58,10.82-13.69,19.67-14.39C4034.98,2151.04,4051.99,2175.92,4061.42,2204.02z"/>
					<path class="st7" d="M4040.29,2199.27c-1.87,0.01-4.23,0.02-7.37,0.02c-24.94,0-39.17-8.33-32.6-33.41
						c1.24-4.73,6.37-7.55,11.58-7.94C4024.72,2170.05,4034.74,2183.78,4040.29,2199.27z"/>
					<path class="st8" d="M4038.98,2168.01c-1.75,0.01-3.96,0.02-6.91,0.02c-23.37,0-36.7-7.06-30.54-28.31
						c1.16-4.01,5.97-6.4,10.85-6.73C4024.4,2143.25,4033.78,2154.88,4038.98,2168.01z"/>
				</g>
				<path d="M3532.7,2384.88l519.61,0c4.73,0,9.09-2.74,11.05-7.05c0.23-0.5,0.45-1,0.68-1.5c15.16-33.9-10.09-72.12-47.23-72.12
					h-399.71c-41.16,0-78.77,23.29-97.11,60.14l0,0C3515.28,2373.78,3522.15,2384.88,3532.7,2384.88z"/>
				<path d="M2811.63,1792.54h532.86c155.12,61.34,339.5,189.36,342.69,191.58h-563.62c-17.65,0-34.7-6.1-48.34-17.3
					c-42.57-34.94-145.12-114.72-250.63-164.23C2819.46,1800.19,2805.97,1792.54,2811.63,1792.54z"/>
				<g>
					<path class="st5" d="M2272.11,1789.84c2.11-0.34,64.72-12.02,158.56-12.02c210.41,0,281.52,19.09,282.22,19.29
						c108.43,30.78,220.9,132.15,288.09,192.71c9.1,8.2,17.46,15.74,24.99,22.37c1.56,1.37,1.85,3.73,0.78,6.3
						c-0.96,2.32-3.14,4.66-5.85,4.66l-987.77-63.83C2054.97,1922.35,2179.07,1834.04,2272.11,1789.84z"/>
					<path class="st5" d="M3658.41,1964.72H3139.7c-29.52,0-58.19-9.7-81.59-27.7c-48.01-36.93-120.36-88.24-195.93-126.07h525.56
						C3495.2,1859.67,3607.13,1930.8,3658.41,1964.72z"/>
				</g>
				<g>
					<path class="st17" d="M3234.96,1840.83c-12.86-2.67-54.98-9.72-152.81-13.4c16.25,44.34,28.47,90.35,37.65,135.75
						c6.55,0.98,13.2,1.55,19.89,1.55h393.37c-7.8-10.74-19.14-19.97-33.25-26.6C3411.97,1896.87,3312.27,1856.88,3234.96,1840.83z
						 M2890.29,1825.7c60.44,33.1,117.01,72.78,158.42,104.15c-8.6-35.36-19.22-70.49-32.41-104.17
						c-21.72-0.36-45.36-0.57-71.16-0.57C2924.4,1825.11,2906.24,1825.33,2890.29,1825.7z M2724.78,1862.24
						c10.47,32.61,18.84,65.98,25.64,99.17l231.57,11.37c-49.39-44.17-116.49-101.72-187.35-140.82c-6.76,1.02-9.98,1.83-10.98,2.11
						C2763.59,1842.1,2743.74,1851.78,2724.78,1862.24z M2641.01,1956.04l100.28,4.92c-6.52-31.58-14.52-63.28-24.37-94.33
						c-35.32,20.16-66.99,42.77-90.2,62.27C2614.76,1938.95,2623.32,1955.17,2641.01,1956.04z"/>
					<path class="st17" d="M2545.52,1806.07c13.05,0,20.7,14.68,13.24,25.37l-21.78,31.23c-21.37,30.63-56.36,48.89-93.71,48.89
						h-362.57c41.92-34.25,103.34-75.32,159.48-105.49H2545.52z"/>
					<path class="st0" d="M2411.58,1983.77l229.57,14.84l-0.65-3.63c-4.06-22.54-30.92-40.2-61.14-40.2h-14.27l-1.86-17.14h7.77
						c14.67,0,24.82-9.76,21.41-20.59l-8.38-26.6c-5.72-18.2-28.15-31.63-52.79-31.63h-41.64c-24.65,0-44.15,13.43-45.92,31.63
						l-2.59,26.6c-1.06,10.83,11.22,20.59,25.88,20.59l1.86,17.14h-6.5C2437.34,1954.77,2417.32,1966.85,2411.58,1983.77z
						 M2223.48,1954.77l-1.86-17.14h7.77c14.67,0,24.82-9.76,21.41-20.59l-8.38-26.6c-5.72-18.2-28.15-31.63-52.79-31.63h-36.85
						c-18.17,12.12-35.52,24.42-51.16,36.29l-2.14,21.94c-1.06,10.83,11.22,20.59,25.88,20.59l1.86,17.14h-6.5
						c-12.43,0-23.6,3.02-32.43,8.1l200.88,12.98c-11.26-12.65-30.53-21.08-51.41-21.08H2223.48z"/>
					<path class="st18" d="M3056.15,1935.53l-0.81-8.15h7.77c14.67,0,24.82-10.6,21.41-22.36l-8.38-28.89
						c-5.72-19.76-28.15-34.35-52.79-34.35h-41.64c-15.8,0-29.41,6.04-37.66,15.54C2987.25,1884.38,3026.23,1912.59,3056.15,1935.53
						z M2560.42,1989.65l0.13,3.74l233.59,15.09l-3.13-18.84c-4.06-24.48-30.92-43.66-61.14-43.66h-14.27l-1.86-18.61h7.78
						c14.66,0,24.81-10.6,21.41-22.36l-8.38-28.89c-5.72-19.76-28.15-34.35-52.79-34.35h-41.64c-24.65,0-44.14,14.59-45.92,34.35
						l-2.59,28.89c-1.06,11.76,11.22,22.36,25.88,22.36l1.86,18.61h-6.5C2582.61,1945.99,2559.59,1965.17,2560.42,1989.65z
						 M3116.93,1962.75c-11.46-10.23-27.83-16.73-45.37-16.76C3085.57,1954.28,3100.92,1960,3116.93,1962.75z M2902.02,1989.65
						l0.88,25.86l118,7.62c2.71,0,4.89-2.34,5.85-4.66c1.07-2.57,0.78-4.93-0.78-6.3c-7.53-6.63-15.89-14.17-24.99-22.37
						c-14.47-13.04-31.13-28.01-49.3-43.72C2922.84,1947.23,2901.21,1965.92,2902.02,1989.65z"/>
					<path class="st19" d="M3569.82,1940.86c16.91,0,50.89,9.72,69.37,23.86H3139.7c-27.3,0-53.8-8.39-76.15-23.86H3569.82z"/>
				</g>
				<path class="st16" d="M2665.99,1887.37c-0.66-0.19-68.3-19.29-268.43-19.29c-89.26,0-148.8,11.68-150.81,12.02
					c-42.81,21.38-92.51,53.08-134.79,84.3l-78.83-5.09c21.84-36.97,145.95-125.28,238.98-169.47
					c2.11-0.34,64.72-12.02,158.56-12.02c210.41,0,281.52,19.09,282.22,19.29c108.43,30.78,220.9,132.15,288.09,192.71
					c9.1,8.2,17.46,15.74,24.99,22.37c1.56,1.37,1.85,3.73,0.78,6.3c-0.96,2.32-3.14,4.66-5.85,4.66l-153.8-9.94
					C2808.13,1961.97,2736.18,1908.33,2665.99,1887.37z"/>
				<path class="st16" d="M3113.94,1875.2h-142.16c-33.88-22.46-71.32-45.08-109.6-64.24h525.56
					c107.46,48.72,219.39,119.84,270.67,153.77h-157.13C3381.01,1906.14,3248.64,1875.2,3113.94,1875.2z"/>
				<g>
					<g>
						<g>
							<path d="M2028.02,1962.19c0.35,0.59,0.96,0.97,1.64,1.02l990.65,64.02c0.2,0.01,0.39,0.02,0.59,0.02
								c4.6,0,8.14-3.54,9.65-7.19c1.75-4.21,1.04-8.41-1.86-10.96c-7.51-6.62-15.87-14.15-24.96-22.34
								c-67.46-60.8-180.38-162.57-289.73-193.61c-0.69-0.19-70.96-19.44-283.32-19.44c-95.42,0-159.2,12.13-159.84,12.25
								c-0.17,0.04-0.34,0.09-0.49,0.16c-96.03,45.61-225.16,138.37-242.4,174.13C2027.65,1960.88,2027.68,1961.6,2028.02,1962.19z
								 M2935.07,2005.26L2542,1979.85c-0.15-63.95,2.03-128.3,7.95-187.31c116.18,5.04,159.13,16.31,159.67,16.46
								c61.12,17.35,124.09,58.23,179.18,101.18C2918.07,1933.01,2935.07,1968.14,2935.07,2005.26z M2211.68,1958.5
								c2.24-43.83,6.13-87.48,12.23-129.26c17.58-10.1,35.09-19.45,51.81-27.46c10.02-1.78,69.1-11.62,154.94-11.62
								c22.09,0,42.54,0.22,61.61,0.6c-5.76,59.07-7.98,122.53-7.98,185.37L2211.68,1958.5z M2077.51,1930.47
								c33.22-28.47,85.13-65.2,137.37-95.96c-5.6,40.04-9.26,81.66-11.39,123.45l-119.29-7.71
								C2074.13,1949.6,2069.85,1937.04,2077.51,1930.47z"/>
							<g>
								<path class="st2" d="M2835.12,2067.35c0-9.28,7.97-23.3,17.8-31.32l24.21-19.75c13.94-11.37,27.04-18.72,38.48-22.19
									c19.95-6.04,34.74-0.16,40.05,16.91l21.17-17.27c1.91-1.55,3.45-1.36,3.45,0.44v12.87c0,1.79-1.54,4.51-3.45,6.06
									l-90.22,73.59c-1.41,1.15-2.62,1.33-3.15,0.62l-10.31,8.41c-21,17.13-38.03,14.95-38.03-4.87v-18.46l0,0V2067.35z"/>
								<g>
									<path class="st10" d="M2868.41,2008.16h93.66v-5.51c0-39.03-31.64-70.68-70.68-70.68h-40.69
										c-8.61,0-15.59,6.98-15.59,15.59v27.31C2835.12,1993.26,2850.02,2008.16,2868.41,2008.16z"/>
									<path class="st13" d="M2879.97,1953.82h-44.85v-5.04c0-9.28,6.48-16.8,14.46-16.8h46.92c36.21,0,65.57,34.11,65.57,76.18
										h-7.24C2941.24,1976.01,2912.87,1953.82,2879.97,1953.82z"/>
									<path d="M2904.42,2010.12h72.84c1.66,0,3.01-1.35,3.01-3.01v-13.34c0-1.66-1.35-3.01-3.01-3.01h-60.89
										c-8.26,0-14.96,6.7-14.96,14.96v1.4C2901.4,2008.77,2902.75,2010.12,2904.42,2010.12z"/>
								</g>
							</g>
						</g>
						<g>
							<g>
								<ellipse class="st2" cx="2572.61" cy="2061.92" rx="30.68" ry="21.46"/>
								<g>
									<path class="st2" d="M2549.96,2074.03h52.98c6.69,0,12.1-5.42,12.1-12.1l0,0c0-6.68-5.42-12.1-12.1-12.1h-52.98
										c-6.69,0-12.1,5.42-12.1,12.1l0,0C2537.86,2068.61,2543.28,2074.03,2549.96,2074.03z"/>
								</g>
								<g>
									<path d="M2542.38,2074.03h52.98c6.68,0,12.1-5.42,12.1-12.1l0,0c0-6.68-5.42-12.1-12.1-12.1h-52.98
										c-6.69,0-12.1,5.42-12.1,12.1l0,0C2530.28,2068.61,2535.7,2074.03,2542.38,2074.03z"/>
								</g>
							</g>
							<g>
								<ellipse class="st2" cx="2110.61" cy="2046.1" rx="30.68" ry="21.46"/>
								<g>
									<path class="st2" d="M2087.96,2058.21h52.98c6.69,0,12.1-5.42,12.1-12.1l0,0c0-6.68-5.42-12.1-12.1-12.1h-52.98
										c-6.69,0-12.1,5.42-12.1,12.1l0,0C2075.86,2052.79,2081.28,2058.21,2087.96,2058.21z"/>
								</g>
								<g>
									<path d="M2080.38,2058.21h52.98c6.69,0,12.1-5.42,12.1-12.1l0,0c0-6.68-5.42-12.1-12.1-12.1h-52.98
										c-6.69,0-12.1,5.42-12.1,12.1l0,0C2068.28,2052.79,2073.7,2058.21,2080.38,2058.21z"/>
								</g>
							</g>
						</g>
					</g>
					<g>
						<path d="M2538.23,2391.72c0.08,0,0.17,0,0.25-0.02c1.13-0.14,1.93-1.16,1.79-2.29c-0.44-3.58-43.48-360.65-15.65-612.08
							c0.12-1.13-0.69-2.14-1.82-2.27c-1.19-0.1-2.15,0.69-2.27,1.82c-27.88,251.91,15.22,609.45,15.66,613.03
							C2536.32,2390.96,2537.21,2391.72,2538.23,2391.72z"/>
						<path d="M2276.46,2363.69c-8.58-15.67-13.84-32.3-19.41-49.9c-16.56-52.32-37.17-117.42-162.3-204.86
							c-14.15-10.02-47.7-37-53.64-71.05l-13.34-76.38c-0.07-0.42-0.01-0.86,0.17-1.24c17.24-35.76,146.37-128.52,242.39-174.13
							c0.16-0.08,0.32-0.13,0.49-0.16c0.63-0.12,64.42-12.25,159.84-12.25c212.37,0,282.64,19.25,283.32,19.44
							c94.42,26.8,191.54,105.97,265.6,171.95c0.25,0.22,0.45,0.51,0.56,0.83c0.51,1.4,50.9,143.35,10.1,408.79
							c-1.55,10.1-10.16,17.71-20.01,17.71H2321.7C2303.23,2392.43,2286.31,2381.68,2276.46,2363.69z M2712.87,1797.11
							c-0.68-0.2-70.4-19.29-282.2-19.29c-91.96,0-154.35,11.3-158.81,12.13c-100.63,47.85-223.55,139.53-239.93,171.51l13.22,75.71
							c5.68,32.54,38.24,58.67,51.96,68.39c126.26,88.23,147.1,154.07,163.85,206.98c5.51,17.41,10.71,33.84,19.1,49.16
							c9.12,16.66,24.68,26.6,41.63,26.6h648.55c7.85,0,14.7-6.11,15.95-14.22c39.44-256.6-6.56-397.06-9.74-406.28
							C2902.78,1902.2,2806.32,1823.63,2712.87,1797.11z"/>
					</g>
				</g>
				<g>
					<path class="st10" d="M2660.83,1758.4h253.34l-11.99-96.75c-1-8.06-7.84-14.1-15.96-14.1h-197.43
						c-8.12,0-14.96,6.05-15.96,14.1L2660.83,1758.4z"/>
					<path class="st20" d="M2660.83,1758.4l12-96.75c0.24-1.97,0.85-3.82,1.72-5.49h16.08c8.12,0,14.96,6.05,15.96,14.1l-9.07,88.14
						H2660.83z"/>
					<path d="M2648.19,1758.4h278.61v-12.34c0-4.46-3.62-8.08-8.08-8.08h-262.44c-4.46,0-8.08,3.62-8.08,8.08V1758.4z"/>
					<g>
						<path d="M2720.12,1682.57l0.02-7.44h38.69l-0.02,7.44h-15.19l0.12,41.61h-8.64l-0.12-41.61H2720.12z"/>
						<path d="M2796.44,1675.13l19.16,49.05h-9.74l-4.95-13.76h-18.7c-0.46,1.17-0.89,2.33-1.3,3.47c-0.41,1.15-0.81,2.27-1.2,3.4
							c-0.39,1.13-0.78,2.26-1.18,3.41c-0.39,1.15-0.79,2.31-1.2,3.49h-9.06l18.72-49.05H2796.44z M2798,1702.88l-6.45-18.01
							l-6.3,18.01H2798z"/>
						<path d="M2825.87,1675.13h10.45l10.79,17.2l11.21-17.2h9.84l-16.05,23.82l17.13,25.23h-10.55l-11.65-17.99l-12.05,17.99h-9.96
							l16.71-25.32L2825.87,1675.13z"/>
						<path d="M2891.68,1675.13l0.08,49.05h-8.64l-0.07-49.05H2891.68z"/>
					</g>
				</g>
			</g>
		</g>
		<path class="st26" d="M2389.79,1501.59c0-411.15,71.16-792.23,192.41-1105.2h-443.59c-50.71,0-91.82,41.11-91.82,91.82v1910.67
			c0,50.71,41.11,91.82,91.82,91.82h401.96C2444.84,2201.49,2389.79,1863.17,2389.79,1501.59z"/>
	</g>
</g>
<g id="travel_bag">
	<g>
		<g>
			<path d="M1501.55,2058.33h-95.14c-3.73,0-6.76-3.03-6.76-6.76v-152.85c0-3.73,3.03-6.76,6.76-6.76h95.14
				c3.73,0,6.76,3.03,6.76,6.76v152.85C1508.31,2055.31,1505.29,2058.33,1501.55,2058.33z M1413.17,2044.82h81.63v-139.33h-81.63
				V2044.82z"/>
			<g>
				<g>
					<circle cx="1291.13" cy="2504.51" r="22.88"/>
					<circle cx="1508.31" cy="2504.51" r="22.88"/>
				</g>
				<path class="st27" d="M1543.04,2506.11h-301.08c-25.61,0-46.37-20.76-46.37-46.37v-394.42c0-61.19,49.61-110.8,110.8-110.8
					h236.65c18.29,0,33.12,14.83,33.12,33.12v485.35C1576.16,2491.28,1561.33,2506.11,1543.04,2506.11z"/>
				<path class="st2" d="M1489.65,2506.11h-240.26c-25.61,0-46.37-20.76-46.37-46.37v-394.42c0-61.19,49.61-110.8,110.8-110.8
					h175.83c18.29,0,33.12,14.83,33.12,33.12v485.35C1522.76,2491.28,1507.94,2506.11,1489.65,2506.11z"/>
				<path class="st28" d="M1482.22,2506.11h-240.26c-25.61,0-46.37-20.76-46.37-46.37v-394.42c0-61.19,49.61-110.8,110.8-110.8
					h175.83c18.29,0,33.12,14.83,33.12,33.12v485.35C1515.34,2491.28,1500.51,2506.11,1482.22,2506.11z"/>
				<path class="st29" d="M1508.31,2469.98L1508.31,2469.98c-36.58,0-66.24-29.66-66.24-66.24V2056.9
					c0-36.58,29.66-66.24,66.24-66.24h0V2469.98z"/>
				<path class="st30" d="M1367.71,2434.25h-120.94c-28.27,0-51.18-22.92-51.18-51.18v-317.74c0-61.19,49.61-93.54,110.8-93.54
					h66.54c29.65,0,53.69,6.78,53.69,36.43v367.12C1426.62,2407.88,1400.24,2434.25,1367.71,2434.25z"/>
			</g>
		</g>
		<g>
			<path d="M535.02,1876.96v399.59c0,3.43,2.78,6.22,6.22,6.22h87.55c3.43,0,6.22-2.78,6.22-6.22v-399.59H535.02z M622.57,1889.4
				v150.28h-75.11V1889.4H622.57z M547.45,2270.33v-217.51h75.11v217.51H547.45z"/>
			<g>
				<g>
					<circle cx="476.85" cy="2506.33" r="21.06"/>
					<circle cx="635.01" cy="2506.33" r="21.06"/>
				</g>
				<path class="st31" d="M637.86,2507.81H431.59c-23.56,0-42.67-19.1-42.67-42.67V2289.2c0-56.31,45.65-101.96,101.96-101.96
					h138.38c37.65,0,68.17,30.52,68.17,68.17v192.82C697.44,2481.14,670.76,2507.81,637.86,2507.81z"/>
				<path class="st2" d="M617.83,2507.81h-179.4c-23.56,0-42.67-19.1-42.67-42.67V2289.2c0-56.31,45.65-101.96,101.96-101.96h120.11
					c16.83,0,30.48,13.65,30.48,30.48v259.61C648.3,2494.16,634.66,2507.81,617.83,2507.81z"/>
				<path class="st32" d="M610.99,2507.81h-179.4c-23.56,0-42.67-19.1-42.67-42.67V2289.2c0-56.31,45.65-101.96,101.96-101.96
					h120.11c16.83,0,30.48,13.65,30.48,30.48v259.61C641.47,2494.16,627.83,2507.81,610.99,2507.81z"/>
				<path class="st33" d="M635.01,2474.56L635.01,2474.56c-33.66,0-60.95-27.29-60.95-60.95v-132.16
					c0-33.66,27.29-60.95,60.95-60.95h0V2474.56z"/>
				<path class="st34" d="M505.62,2441.68h-69.59c-26.01,0-47.1-21.09-47.1-47.1V2289.2c0-56.31,45.65-86.07,101.96-86.07h19.53
					c27.29,0,49.41,6.24,49.41,33.52v150.82C559.83,2417.41,535.56,2441.68,505.62,2441.68z"/>
			</g>
			<path class="st32" d="M607.15,1872.15h-44.27c-5.81,0-10.51,4.71-10.51,10.51l0,0c0,5.81,4.71,10.51,10.51,10.51h44.27
				c5.81,0,10.51-4.71,10.51-10.51l0,0C617.66,1876.85,612.95,1872.15,607.15,1872.15z"/>
			<path d="M615.16,1876.96h4.87v12.44h-4.87c-3.43,0-6.22-2.78-6.22-6.22l0,0C608.94,1879.75,611.73,1876.96,615.16,1876.96z"/>
		</g>
		<g>
			<path d="M1078.81,2017.69H975.42c-4.06,0-7.34-3.29-7.34-7.34v-166.1c0-4.06,3.29-7.34,7.34-7.34h103.39
				c4.06,0,7.34,3.29,7.34,7.34v166.1C1086.15,2014.4,1082.86,2017.69,1078.81,2017.69z M982.76,2003h88.7v-151.41h-88.7V2003z"/>
			<g>
				
					<ellipse transform="matrix(0.7071 -0.7071 0.7071 0.7071 -1520.5486 1334.1168)" cx="850.15" cy="2502.52" rx="24.87" ry="24.87"/>
				
					<ellipse transform="matrix(0.7071 -0.7071 0.7071 0.7071 -1451.425 1500.996)" cx="1086.15" cy="2502.52" rx="24.87" ry="24.87"/>
			</g>
			<path class="st35" d="M1123.88,2504.27H796.71c-27.83,0-50.39-22.56-50.39-50.39v-428.6c0-66.5,53.91-120.4,120.4-120.4h257.16
				c19.88,0,35.99,16.11,35.99,35.99v527.41C1159.87,2488.15,1143.76,2504.27,1123.88,2504.27z"/>
			<path class="st2" d="M1080.34,2504.27H790.3c-19.83,0-35.91-16.08-35.91-35.91v-457.55c0-58.5,47.42-105.92,105.92-105.92h220.02
				c11.88,0,21.51,9.63,21.51,21.51v556.36C1101.85,2494.64,1092.22,2504.27,1080.34,2504.27z"/>
			<path class="st36" d="M1068.16,2504.27H781.19c-19.26,0-34.87-15.61-34.87-34.87v-538.89c0-14.15,11.47-25.63,25.63-25.63h296.21
				c14.15,0,25.63,11.47,25.63,25.63v548.13C1093.78,2492.79,1082.31,2504.27,1068.16,2504.27z"/>
			<path class="st37" d="M1093.78,2067.44v-85.08h-7.63v-26.18c0-15.96-12.94-28.9-28.9-28.9h-24.12v55.07H746.32v85.08h286.81
				v47.45H746.32v85.07h286.81v47.45H746.32v85.08h286.81v47.45H746.32v85.08h286.81v28.75h23.92c15.95,0,28.89-12.84,29.08-28.75
				h7.65v-85.08h-7.63v-47.45h7.63v-85.08h-7.63v-47.45h7.63v-85.07h-7.63v-47.45H1093.78z"/>
			<g>
				<rect x="733.15" y="1963.98" class="st36" width="360.63" height="85.08"/>
				<rect x="733.15" y="2096.5" class="st36" width="360.63" height="85.08"/>
				<rect x="733.15" y="2229.03" class="st36" width="360.63" height="85.08"/>
				<rect x="733.15" y="2361.55" class="st36" width="360.63" height="85.08"/>
			</g>
			<g class="st38">
				<path class="st8" d="M1008.73,1982.37H733.15v-18.38h293.96v0C1027.11,1974.14,1018.88,1982.37,1008.73,1982.37z"/>
				<path class="st8" d="M1008.73,2114.89H733.15v-18.38h293.96l0,0C1027.11,2106.66,1018.88,2114.89,1008.73,2114.89z"/>
				<path class="st8" d="M1008.73,2247.41H733.15v-18.38h293.96l0,0C1027.11,2239.18,1018.88,2247.41,1008.73,2247.41z"/>
				<path class="st8" d="M1008.73,2379.93H733.15v-18.38h293.96l0,0C1027.11,2371.7,1018.88,2379.93,1008.73,2379.93z"/>
			</g>
		</g>
	</g>
</g>
<g id="pin">
	<g>
		<g>
			<path class="st7" d="M2282.81,780.75c-122.48,0-221.77,114.66-221.77,256.08c0,141.42,99.3,606.73,221.77,606.73
				s221.77-465.31,221.77-606.73C2504.59,895.41,2405.29,780.75,2282.81,780.75z"/>
		</g>
		<g>
			<g>
				<path class="st39" d="M2037.59,655.6h66.46c122.48,0,221.77,114.66,221.77,256.08c0,141.42-99.29,606.73-221.77,606.73h-66.46
					c-122.48,0-221.77-465.31-221.77-606.73C1815.81,770.26,1915.11,655.6,2037.59,655.6z"/>
				<g>
					<path class="st15" d="M2037.59,655.6c-122.48,0-221.77,114.66-221.77,256.08c0,141.42,99.3,606.73,221.77,606.73
						s221.77-465.31,221.77-606.73C2259.36,770.26,2160.06,655.6,2037.59,655.6z"/>
				</g>
			</g>
			<g>
				<path class="st7" d="M2040.64,705.5c-97.94,0-177.34,91.67-177.34,204.78c0,113.09,79.41,347.81,177.34,347.81
					c97.94,0,177.34-234.72,177.34-347.81C2217.98,797.17,2138.58,705.5,2040.64,705.5z"/>
			</g>
			<g>
				<path class="st40" d="M2003.41,705.5h37.23c97.94,0,177.34,91.67,177.34,204.78c0,113.09-79.41,204.78-177.34,204.78h-37.23
					c-97.94,0-177.34-91.69-177.34-204.78C1826.06,797.17,1905.47,705.5,2003.41,705.5z"/>
				<g>
					<ellipse class="st41" cx="2003.41" cy="910.28" rx="177.34" ry="204.78"/>
				</g>
			</g>
		</g>
	</g>
</g>
</svg>
