<?xml version="1.0" encoding="utf-8"?>
<!-- Generator: Adobe Illustrator 25.2.0, SVG Export Plug-In . SVG Version: 6.00 Build 0)  -->
<svg version="1.1" id="_x3C_Layer_x3E_" xmlns="http://www.w3.org/2000/svg" xmlns:xlink="http://www.w3.org/1999/xlink" x="0px"
	 y="0px" viewBox="0 0 2760 1840" style="enable-background:new 0 0 2760 1840;" xml:space="preserve">
<style type="text/css">
	.st0{fill:#DAEBE8;}
	.st1{opacity:0.5;}
	.st2{fill:#8FB3E3;}
	.st3{fill:#9FC4EB;}
	.st4{fill:#ACC9C5;}
	.st5{opacity:0.4;}
	.st6{fill:#FFFFFF;}
	.st7{opacity:0.6;}
	.st8{fill:#331832;}
	.st9{fill:#FFB27D;}
	.st10{fill:#100B47;}
	.st11{fill:#68A1BF;}
	.st12{fill:#EF8062;}
	.st13{fill:#EC865C;}
	.st14{fill:#020202;}
	.st15{fill:#E9845C;}
	.st16{fill:#E9633E;}
	.st17{fill:#080435;}
	.st18{fill:#92BCB5;}
	.st19{fill:#764678;}
	.st20{fill:#366F90;}
	.st21{fill:#92A5E6;}
</style>
<g>
	<g>
		<path class="st0" d="M2297.9,1717.51c-206.72,25.77-419.7,15.03-854.88-11.93c-244.36-15.14-735.68,9.95-980.92,11.93
			c-178.79,1.45-323.75-131.48-323.75-293.67v-494.7V412.38c0-162.19,145.26-303.21,323.75-293.67
			c165.76,8.86,409.57,43.93,663.72,22.46c302.28-25.54,876.02-47.25,1172.08-22.46c178.04,14.91,323.75,131.48,323.75,293.67
			v1011.47C2621.65,1586.03,2475.03,1695.43,2297.9,1717.51z"/>
	</g>
	<g class="st1">
		<g>
			<g>
				<g>
					<polygon class="st2" points="1791.15,653.86 1782.38,1155.25 1744.19,1425.17 1659.9,1424.38 1631.42,1424.1 1496.1,1422.79 
						1484.69,1258.21 1468.47,732.88 1611.14,685.41 1611.14,685.41 					"/>
				</g>
				<g>
					<polygon class="st2" points="2063.6,1428.32 1999.62,1428.32 1816.21,1426.07 1818.84,1097.11 1825.13,309.21 2041.54,473.71 
						2055.94,1097.11 					"/>
				</g>
				<g>
					<polygon class="st2" points="1429.81,992.04 1429.81,1421.33 1315.03,1419.9 1085.34,1417.09 1068.91,920 					"/>
				</g>
				<g>
					<polygon class="st2" points="2157.28,1097.11 2157.28,1428.32 1999.62,1428.32 1816.21,1426.07 1744.19,1425.17 
						1659.9,1424.16 1664.48,940.42 					"/>
				</g>
				<g>
					<polygon class="st2" points="2259.06,682.95 2259.04,684.52 2253.22,1428.32 2101.99,1428.32 2105.98,1097.11 2110.43,725.69 
											"/>
				</g>
				<g>
					<polygon class="st2" points="1631.42,1211.22 1631.42,1423.79 1496.1,1422.13 1429.81,1421.33 1315.03,1419.9 1315.03,1211.22 
											"/>
				</g>
			</g>
			<g>
				<polygon class="st3" points="1701.92,785.91 1677.92,782.31 1676.61,732.68 1701.92,730.86 				"/>
			</g>
			<g>
				<polygon class="st3" points="2012.71,738 1988.71,734.4 1987.39,684.77 2012.71,682.95 				"/>
			</g>
			<g>
				<polygon class="st3" points="1895.94,831.11 1871.93,827.51 1870.62,777.88 1895.94,776.07 				"/>
			</g>
			<g>
				<polygon class="st3" points="1895.94,505.58 1871.93,501.98 1870.62,452.35 1895.94,450.53 				"/>
			</g>
			<g>
				<polygon class="st3" points="1921.25,1019.57 1897.25,1015.97 1895.94,966.34 1921.25,964.53 				"/>
			</g>
			<g>
				<polygon class="st3" points="1701.92,1152.15 1677.92,1148.55 1676.61,1098.92 1701.92,1097.11 				"/>
			</g>
			<g>
				<polygon class="st3" points="1656.75,1043.22 1632.74,1039.62 1631.43,989.99 1656.75,988.18 				"/>
			</g>
		</g>
		<g>
			<g>
				<g>
					<polygon class="st2" points="879.46,552.75 872.5,1097.11 868.45,1414.43 784.01,1413.39 755.53,1413.03 619.62,1411.38 
						608.8,1211.22 574.31,573.7 637.95,569.32 800.72,558.14 					"/>
				</g>
				<g>
					<polygon class="st2" points="1187.48,1418.35 1085.34,1417.09 985.69,1415.86 940.4,1415.3 942.95,1097.11 949.24,309.21 
						1165.64,473.71 1180.05,1097.11 					"/>
				</g>
				<g>
					<polygon class="st2" points="553.91,992.04 553.91,1410.56 511.66,1410.05 455.36,1409.35 456.65,1211.22 458.13,987.16 					
						"/>
				</g>
				<g>
					<polygon class="st2" points="1281.39,1097.11 1281.39,1419.49 1226.2,1418.81 1187.48,1418.35 1085.34,1417.09 985.69,1415.86 
						940.4,1415.3 868.45,1414.43 784.01,1413.39 784.01,1097.11 					"/>
				</g>
				<g>
					<polygon class="st2" points="1383.17,744.33 1383.15,745.77 1377.39,1420.67 1367.64,1420.56 1315.03,1419.96 1281.39,1419.59 
						1226.2,1418.97 1230.09,1124.03 1234.54,783.52 					"/>
				</g>
				<g>
					<polygon class="st2" points="755.53,1211.22 755.53,1413.03 619.62,1411.38 553.91,1410.56 511.66,1410.05 455.36,1409.35 
						456.65,1211.22 					"/>
				</g>
				<g>
					<polygon class="st2" points="800.72,589.83 640.4,589.83 631.96,518.87 800.72,518.87 					"/>
				</g>
				<g>
					<polygon class="st2" points="755.54,554.35 685.57,554.35 685.57,386.75 760.64,380.57 					"/>
				</g>
				<g>
					<rect x="714.23" y="285.15" class="st2" width="12.66" height="167.6"/>
				</g>
			</g>
			<g>
				<polygon class="st3" points="648.84,678.74 624.93,678.74 623.52,625.51 648.84,628.78 				"/>
			</g>
			<g>
				<polygon class="st3" points="826.03,785.91 802.03,782.31 800.72,732.68 826.03,730.86 				"/>
			</g>
			<g>
				<polygon class="st3" points="1136.82,738 1112.81,734.4 1111.5,684.77 1136.82,682.95 				"/>
			</g>
			<g>
				<polygon class="st3" points="1045.36,1019.57 1021.35,1015.97 1020.04,966.34 1045.36,964.53 				"/>
			</g>
			<g>
				<polygon class="st3" points="826.03,1152.15 802.03,1148.55 800.72,1098.92 826.03,1097.11 				"/>
			</g>
			<g>
				<polygon class="st3" points="780.85,1043.22 756.85,1039.62 755.54,989.99 780.85,988.18 				"/>
			</g>
		</g>
	</g>
	<g>
		<ellipse class="st4" cx="1355.73" cy="1461.59" rx="1077.19" ry="102.42"/>
	</g>
	<g class="st5">
		<path class="st6" d="M1456.05,253.62c0,0-21.45-41.26-75.74-36.09c-54.28,5.17-47.82,46.53-73.67,42.65
			c-25.85-3.88-62.04,0-69.79,25.85c-7.75,25.85-42.65,11.63-43.94,33.6c-1.29,21.97,40.07,37.48,87.89,18.09
			s71.09,15.06,138.29,8.82c67.21-6.24,75.53-13.99,115.31-10.12c39.78,3.88,38.84-23.36,20.74-41.46
			C1537.05,276.88,1463.8,278.61,1456.05,253.62z"/>
	</g>
	<g class="st7">
		<path class="st6" d="M2236.34,569.26c0,0-10.59-20.36-37.37-17.81c-26.79,2.55-23.6,22.96-36.35,21.05
			c-12.76-1.91-30.61,0-34.44,12.76s-21.05,5.74-21.69,16.58c-0.64,10.84,19.77,18.5,43.37,8.93c23.6-9.57,35.08,7.43,68.24,4.35
			c33.17-3.08,37.27-6.91,56.91-4.99c19.63,1.91,19.16-11.53,10.24-20.46C2276.31,580.74,2240.17,581.59,2236.34,569.26z"/>
	</g>
	<g class="st7">
		<path class="st6" d="M473.6,426.84c0,0-17.78-34.2-62.78-29.92c-45,4.29-39.64,38.57-61.07,35.36c-21.43-3.21-51.43,0-57.85,21.43
			c-6.43,21.43-35.36,9.64-36.43,27.86c-1.07,18.21,33.21,31.07,72.85,15c39.64-16.07,58.93,12.48,114.64,7.31
			c55.71-5.17,62.61-11.6,95.59-8.39c32.98,3.21,32.19-19.36,17.19-34.36C540.75,446.13,480.03,447.56,473.6,426.84z"/>
	</g>
	<g class="st7">
		<path class="st6" d="M1663.75,373.19c0,0-14.07-27.06-49.67-23.67c-35.6,3.39-31.36,30.52-48.32,27.97
			c-16.95-2.54-40.69,0-45.77,16.95c-5.09,16.95-27.97,7.63-28.82,22.04c-0.85,14.41,26.28,24.58,57.64,11.87
			c31.36-12.71,46.62,9.88,90.7,5.79c44.08-4.09,49.54-9.18,75.63-6.63c26.09,2.54,25.47-15.32,13.6-27.19
			C1716.88,388.45,1668.84,389.58,1663.75,373.19z"/>
	</g>
	<g>
		<g>
			<path class="st8" d="M1582.34,1400.08h-490.31c-20.1,0-36.56-15.98-37.15-36.08l-24.37-831.79
				c-0.61-20.94,16.2-38.26,37.15-38.26h536.26c20.9,0,37.7,17.23,37.15,38.13l-21.58,831.79
				C1618.97,1384.02,1602.49,1400.08,1582.34,1400.08z"/>
		</g>
		<g>
			<path class="st4" d="M1071.41,1298.44l-11.86-743.53c-0.3-19.08,15.08-34.7,34.15-34.7h491.45c19.26,0,34.71,15.91,34.14,35.16
				l-21.75,743.53c-0.54,18.47-15.67,33.16-34.14,33.16h-457.83C1086.91,1332.05,1071.71,1317.09,1071.41,1298.44z"/>
		</g>
	</g>
	<g>
		<g>
			<g>
				<path class="st9" d="M655.77,832.95c-28.86,5.49-61.54,0.33-97.23-15.38c-26.96-11.86-46.06-25.78-46.86-26.36l31.53-45.15
					l-15.77,22.57l15.72-22.61c16.42,11.93,67.34,40.84,105.41,31.48c17.28-4.26,30.61-16.23,40.76-36.6l48.62,25.58
					c-17.27,34.67-43.7,57.22-76.42,65.21C659.63,832.16,657.71,832.58,655.77,832.95z"/>
			</g>
		</g>
		<g>
			<path class="st9" d="M586.29,797.19c0,0-17.93-26.71-36.16-34.94c-18.23-8.23-29.78-1.4-29.78-1.4l-19.56-7.81
				c0,0-2.8,74.2,48.03,61.13C552.84,813.14,586.29,797.19,586.29,797.19z"/>
		</g>
		<g>
			<path class="st8" d="M503.7,714.36l18.68,107.55c1.22,7.04,8.01,11.68,15.02,10.26l50.06-10.14c6.73-1.36,11.16-7.84,9.98-14.6
				l-18.41-105.99c-1.2-6.89-7.74-11.51-14.63-10.33l-50.33,8.58C507.15,700.87,502.5,707.44,503.7,714.36z"/>
		</g>
		<g>
			<path class="st10" d="M511.53,711.02c0.05-1.85,1.59-3.3,3.44-3.25s3.3,1.59,3.25,3.44c-0.05,1.85-1.59,3.3-3.44,3.25
				C512.93,714.4,511.48,712.87,511.53,711.02z"/>
		</g>
		<g>
			<g>
				<path class="st9" d="M494.5,745.16c0,0-5.15-11.3,5.2-15.94c13.19-5.9,35.28-0.61,26.97,3.25c-7.36,3.42-18.99,5.76-18.99,5.76
					s29.63-5.56,28.68,0.99c-0.95,6.55-26.5,10.98-26.5,10.98s29.36-2.69,26.46,3.21c-2.9,5.89-26.07,10.06-26.07,10.06
					s28.55-4.17,25.02,2.59c-3.53,6.77-18.73,5.93-25.25,7.05c-6.16,1.06-8.84-2.57-9.43-8.59c0,0-4.07-5.65-3.47-9.68
					c0.23-1.54-1.41-2.76-1.72-3.81C494.81,749.02,494.5,745.16,494.5,745.16z"/>
			</g>
		</g>
		<g>
			<path class="st8" d="M768.36,1444.71c0,0-0.47,18.85-13.22,24.16c-12.75,5.32-49.7,10.11-35.9,22.23
				c7.92,6.95,45.26,2.46,55.8,2.46c10.54,0,20.44,4.59,28.27-2.46c8.62-7.76,0-46.39,0-46.39s-9.1,4.74-17.28,4.53
				C774.25,1448.93,768.36,1444.71,768.36,1444.71z"/>
		</g>
		<g>
			<path class="st8" d="M914.82,1444.7c0,0-0.47,18.85-13.22,24.16c-12.75,5.32-49.7,10.11-35.9,22.23
				c7.92,6.95,45.26,2.46,55.8,2.46c10.54,0,20.44,4.59,28.27-2.46c8.62-7.76,0-46.39,0-46.39s-9.1,4.74-17.28,4.53
				C920.71,1448.92,914.82,1444.7,914.82,1444.7z"/>
		</g>
		<g>
			<path class="st11" d="M673.57,928.03c0,0-2.36,78.89,22.82,230.23c18.18,109.26,39.64,219.35,50.17,272.14
				c3.77,18.88,19.65,32.69,38.46,33.44l10.11,0.41c20.35,0.82,36.86-16.66,35.38-37.44l-25.55-357.09l-6.3-117.53L673.57,928.03z"
				/>
		</g>
		<g>
			<path class="st8" d="M903.91,997.46c-1.16,9.6-55.46,8.44-121.93,0.02c-66.48-8.41-118.22-22.82-117.06-32.42
				c1.16-9.6,54.79-10.77,121.26-2.35C852.66,971.12,905.07,987.86,903.91,997.46z"/>
		</g>
		<g>
			<path class="st11" d="M749.89,984.38l141.92,455.9c5.94,19.08,23.12,32.16,42.69,32.49l8.53,0.15
				c20.14,0.34,35.54-18.28,31.86-38.54L897.27,1006c-1.13-5.09-4.89-9.14-9.8-10.56C860.85,987.77,747.28,965.53,749.89,984.38z"/>
		</g>
		<g>
			<g>
				<g>
					<path class="st9" d="M912.96,965.26l-32.18-37.38c0.57-0.36,63.74-40.24,57.69-97.02c-3.15-29.6-20.9-53.41-52.74-70.78
						c-25.34-13.82-50.21-18.15-50.45-18.19l7.57-48.49c1.32,0.22,32.71,5.49,65.46,23.35c46.04,25.11,72.97,62.73,77.88,108.79
						c3.96,37.2-9.05,74.2-37.62,106.99C928.06,956.05,928.97,957.47,912.96,965.26z"/>
				</g>
			</g>
		</g>
		<g>
			<path class="st12" d="M881.71,734.98c0,0-18.88-53.13-86.15-50.71c-67.27,2.42-118.06,90.81-130.64,280.8
				c0,0,110.15-24.15,239.19,32.19C904.11,997.26,911.26,812.41,881.71,734.98z"/>
		</g>
		<g>
			<path class="st12" d="M934.54,723.75l-53.24,38.54c0,0-122.5,12.26-155.01,6.36c-32.52-5.9-41.44-32.2-41.44-32.2
				s34.63-39.47,93.5-50.01c5.53-1,11.27-1.73,17.22-2.16c9.98-0.71,19.97-0.4,29.76,0.65C883.48,691.2,934.54,723.75,934.54,723.75
				z"/>
		</g>
		<g>
			
				<ellipse transform="matrix(0.809 -0.5879 0.5879 0.809 -263.3425 675.681)" class="st8" cx="907.92" cy="743.01" rx="32.86" ry="9.19"/>
		</g>
		<g>
			<path class="st13" d="M970.78,843.86c-2.45,0-4.72-1.35-6.39-3.81c-1.58-2.32-2.45-5.38-2.45-8.63c0-6.86,3.96-12.44,8.84-12.44
				c4.87,0,8.84,5.58,8.84,12.44l0,0C979.62,838.28,975.66,843.86,970.78,843.86C970.78,843.86,970.78,843.86,970.78,843.86z
				 M970.78,821.32c-3.53,0-6.5,4.63-6.5,10.1c0,2.78,0.73,5.38,2.04,7.31c1.22,1.8,2.81,2.79,4.46,2.79c3.53,0,6.5-4.63,6.5-10.1
				C977.29,825.95,974.31,821.32,970.78,821.32z"/>
		</g>
		<g>
			<path class="st9" d="M825.2,684.91c-7.19-0.77-13.44-5.28-16.31-11.93l-8.97-20.82l-2.6-6.04l-15.3-35.54l2.65,36.83l1.6,22.1
				l0.45,6.3c0.37,5.14-3.22,9.69-8.3,10.6l-0.09,0.02c-2.72,4.43-6.48,13.43,4.75,17c13.2,4.2,34.56-6.19,42.22-18.51
				C825.28,684.92,825.24,684.91,825.2,684.91z"/>
		</g>
		<g>
			<path class="st9" d="M906.73,911.39c0,0-19.93-18.25-35.67-16.64c-15.74,1.61-34.62,15.56-24.65,16.64
				c9.97,1.07,23.08-1.07,23.08-1.07s-27.8,5.9-23.6,11.81c4.2,5.9,28.32,0.54,28.32,0.54s-32.52,9.66-26.75,13.95
				c5.77,4.29,30.42-3.22,30.42-3.22s-29.9,10.2-23.08,15.03c6.82,4.83,24.65-8.59,28.85-2.68c4.2,5.9,12.06,28.98,29.9,19.32
				L906.73,911.39z"/>
		</g>
		<g>
			<path class="st14" d="M813.32,1188.15l-30.52-92.79c-6.86-20.86-20.98-38.28-39.75-49.03l1.19-2.07
				c19.28,11.05,33.78,28.93,40.83,50.36l30.52,92.79L813.32,1188.15z"/>
		</g>
		<g>
			<path class="st9" d="M891.12,763c0,0-2.95-8.86,10.42-18.72c13.38-9.86,30.72-12.08,30.72-12.08l3.51,16.91l-18.88,8.25
				L891.12,763z"/>
		</g>
		<g>
			<path class="st8" d="M823.65,604.51c0,0-1.43,6.04,2.05,18.43c5.08,18.12-15.63,25.69-20.93,20.52
				c-0.66-0.64,0.21-31.47,0.21-31.47l6.62-3.93L823.65,604.51z"/>
		</g>
		<g>
			<path class="st8" d="M799.97,651.55c-0.01,0.2-0.02,0.41-0.04,0.61c-0.88,11.87-13.58,17.42-13.58,17.42l-0.08-0.07l-1.6-22.1
				c3.88-1.42,9.41-2.88,12.65-1.29C799.02,646.94,800.08,648.61,799.97,651.55z"/>
		</g>
		<g>
			<ellipse class="st9" cx="780.35" cy="616.47" rx="34.6" ry="42.69"/>
		</g>
		<g>
			<path class="st8" d="M766.65,583.7c0.96,1.31-4.48,23.27,36.2,28.52c40.68,5.24,16.24-44.12-13.78-45.23
				c-43.34-1.61-49.65,27.53-45.49,38.02C747.75,615.49,766.65,583.7,766.65,583.7z"/>
		</g>
		<g>
			<path class="st8" d="M829.35,556.7c0,0-18.27,12.23-4.22,23.73c14.06,11.51,52.72,16.54,42.17,35.96s-19.68,48.18-0.7,51.78
				c18.98,3.6,30.93,2.16,38.66,17.26c7.73,15.1,42.17,5.75,39.36-12.23c-2.81-17.98,26.71-33.8,14.06-50.34
				c-12.65-16.54-43.58-30.92-51.31-52.5C899.64,548.79,844.11,547.35,829.35,556.7z"/>
		</g>
		<g>
			<path class="st8" d="M798.36,605.22c0,0,16.63,17.53,10.86,35.45c0,0,9.64-10.54,9.86-14.47c0.21-3.93-2.35-18.14-2.35-18.14
				L798.36,605.22z"/>
		</g>
		<g>
			<path class="st9" d="M810.33,622.9c-3.92,3.74-9.4,4.13-12.24,0.86c-2.84-3.27-1.97-8.95,1.95-12.7
				c3.92-3.74,9.4-4.13,12.24-0.86C815.12,613.48,814.25,619.16,810.33,622.9z"/>
		</g>
		<g>
			<path class="st6" d="M936.2,691.29c-0.1,0-0.2-0.02-0.3-0.06c-4.9-1.9-7.82-4.28-8.9-7.3c-1.65-4.6,1.17-9.64,4.17-14.98
				c2.62-4.67,5.34-9.51,4.68-13.84c-0.77-5.12-7.49-6.32-14.61-7.58c-6-1.07-12.2-2.17-14.67-6c-1.17-1.82-1.4-4.14-0.69-6.88
				c0.78-3.03,1.75-5.74,2.68-8.36c4-11.27,7.16-20.17-10.51-40.55c-22.66-26.14-41.43-27.4-58.33-24.87
				c-1.97,0.3-6.98,2.88-6.96,5.17c0.01,1.18,1.63,4.14,16.29,5.98c0.28,0.06,20.84,4.85,30.73,27.03
				c5.27,11.81-2.22,24.46-8.24,34.62c-4.04,6.82-7.53,12.7-6.44,16.65c0.4,1.43,1.4,2.57,3.07,3.48c4.1,2.23,8.7,3.47,13.15,4.68
				c11.44,3.1,23.28,6.3,24.77,26.91c0.03,0.45-0.31,0.85-0.76,0.88c-0.46,0.05-0.85-0.31-0.88-0.76
				c-1.4-19.45-12.16-22.36-23.55-25.44c-4.54-1.23-9.23-2.5-13.51-4.82c-2.06-1.12-3.36-2.63-3.87-4.49
				c-1.28-4.62,2.38-10.79,6.61-17.93c6.13-10.34,13.07-22.07,8.15-33.1c-9.56-21.43-29.31-26.03-29.51-26.08
				c-11.81-1.48-17.62-3.96-17.66-7.58c-0.04-3.65,6.19-6.5,8.36-6.82c17.37-2.6,36.64-1.32,59.82,25.42
				c18.3,21.11,15,30.41,10.82,42.18c-0.92,2.59-1.87,5.27-2.63,8.22c-0.6,2.31-0.44,4.14,0.48,5.58c2.07,3.23,7.92,4.27,13.57,5.27
				c7.38,1.31,15.01,2.67,15.95,8.96c0.74,4.89-2.12,9.98-4.88,14.9c-2.81,5-5.46,9.72-4.05,13.61c0.91,2.54,3.51,4.61,7.95,6.32
				c0.42,0.16,0.64,0.64,0.47,1.07C936.84,691.09,936.53,691.29,936.2,691.29z"/>
		</g>
		<g>
			<path class="st6" d="M803.17,599.27c-0.01,0-0.01,0-0.02,0c-15.64-0.33-23.43-12.65-23.75-13.17c-0.24-0.39-0.12-0.89,0.27-1.13
				c0.39-0.24,0.89-0.12,1.13,0.27c0.07,0.12,7.66,12.08,22.38,12.39c0.46,0.01,0.82,0.39,0.81,0.84
				C803.98,598.91,803.62,599.27,803.17,599.27z"/>
		</g>
		<g>
			<path class="st15" d="M869.69,910.86l-0.41-1.09c0.32-0.12,7.99-2.94,12.24,0.07l-0.68,0.95
				C877.1,908.14,869.76,910.84,869.69,910.86z"/>
		</g>
		<g>
			<path class="st15" d="M874.42,923.2l-0.43-1.09c0.31-0.12,7.69-2.98,14.41,0.01l-0.47,1.07
				C881.65,920.4,874.49,923.18,874.42,923.2z"/>
		</g>
		<g>
			<path class="st15" d="M878.08,933.94l-0.41-1.09c0.38-0.14,9.44-3.49,13.7,0.1l-0.75,0.89
				C886.88,930.69,878.17,933.91,878.08,933.94z"/>
		</g>
		<g>
			<path class="st11" d="M674.77,973.67c0,0,30.9-4.3,77.29-0.87c71.86,5.31,132.89,21.95,132.89,21.95l-22.81,3.83l-142.83,5.66
				l-28.75-23.58L674.77,973.67z"/>
		</g>
		<g>
			<path class="st16" d="M761.25,644.09c0,0,11.82,0.27,23.64-3.88c0,0,0.98,11.65-11.82,12.43
				C765.62,653.09,761.25,644.09,761.25,644.09z"/>
		</g>
		<g>
			<path class="st6" d="M761.25,644.09c0,0,2.86,2.37,9.53,2.34c6.67-0.03,14.11-6.22,14.11-6.22S770.64,644.12,761.25,644.09z"/>
		</g>
		<g>
			<g>
				<path class="st17" d="M777.01,616.88c-0.23-0.06-0.43-0.23-0.52-0.47c-0.16-0.4,0.03-0.86,0.44-1.02
					c0.24-0.09,5.53-2.82,10.19,2.27c0.29,0.32,0.29,0.81-0.03,1.11c-0.32,0.3-0.75,0.22-1.11-0.03c-3.61-2.43-8.26-1.97-8.46-1.89
					C777.34,616.92,777.17,616.92,777.01,616.88z"/>
			</g>
		</g>
		<g>
			<path class="st17" d="M783.24,625.53c0.06,1.88-1,3.43-2.36,3.48s-2.51-1.44-2.57-3.32c-0.06-1.88,1-3.43,2.36-3.48
				C782.02,622.16,783.18,623.65,783.24,625.53z"/>
		</g>
		<g>
			<g>
				<path class="st17" d="M748.91,620.98c-0.24,0.03-0.48-0.05-0.66-0.23c-0.3-0.31-0.3-0.81,0.01-1.11
					c0.18-0.18,4.04-4.72,10.29-1.78c0.39,0.18,0.58,0.64,0.4,1.04c-0.18,0.4-0.61,0.49-1.04,0.4c-4.27-0.87-8.39,1.32-8.55,1.47
					C749.24,620.89,749.08,620.96,748.91,620.98z"/>
			</g>
		</g>
		<g>
			<path class="st17" d="M757.97,626.61c0.77,1.71,0.39,3.55-0.86,4.11c-1.24,0.56-2.88-0.38-3.65-2.09
				c-0.77-1.71-0.39-3.55,0.86-4.11C755.57,623.96,757.2,624.89,757.97,626.61z"/>
		</g>
		<g>
			
				<rect x="696.8" y="747.35" transform="matrix(0.4718 -0.8817 0.8817 0.4718 -282.7267 1024.4291)" class="st8" width="33.63" height="1.65"/>
		</g>
	</g>
	<g>
		<path class="st0" d="M1203.79,1279.08c-2.51,0-4.84-1.61-5.64-4.14c-0.98-3.12,0.74-6.44,3.86-7.43
			c32.96-10.42,63.05-28.37,89.44-53.35c24.85-23.53,45.48-52.86,59.66-84.8c27.96-62.99,29.43-130.96,4.02-186.49
			c-40.49-88.5-233.57-321.26-235.52-323.6c-2.09-2.51-1.74-6.24,0.77-8.33c2.51-2.09,6.25-1.74,8.33,0.77
			c0.49,0.59,49.45,59.55,102.83,128.79c71.84,93.19,117.04,159.62,134.35,197.45c26.82,58.61,25.37,130.13-3.97,196.21
			c-14.81,33.36-36.37,63.99-62.34,88.59c-27.69,26.22-59.32,45.08-94.01,56.04C1204.98,1278.99,1204.38,1279.08,1203.79,1279.08z"
			/>
	</g>
	<g>
		
			<rect x="1168.92" y="626.35" transform="matrix(0.8126 -0.5828 0.5828 0.8126 -128.2847 864.5547)" class="st0" width="222.84" height="10.85"/>
	</g>
	<g>
		
			<rect x="1263.9" y="738.41" transform="matrix(0.8289 -0.5594 0.5594 0.8289 -173.9967 918.7433)" class="st0" width="302.23" height="10.85"/>
	</g>
	<g>
		
			<rect x="1373.24" y="580.56" transform="matrix(0.7595 -0.6505 0.6505 0.7595 -101.6527 1057.021)" class="st0" width="10.85" height="170.84"/>
	</g>
	<g>
		
			<rect x="1333.21" y="846.96" transform="matrix(0.8263 -0.5632 0.5632 0.8263 -224.9828 975.1377)" class="st0" width="271.01" height="10.85"/>
	</g>
	<g>
		<path class="st0" d="M1437.7,1070.76c-30.6,0-62.89-4.37-90.88-17.49c-89.75-42.09-258.28-59.52-259.98-59.69l1.09-10.79
			c6.98,0.71,172.08,17.8,263.49,60.67c88.54,41.52,225.99-8.51,227.37-9.02l3.77,10.17c-1.45,0.54-36.01,13.22-82.43,20.8
			C1481.85,1068.39,1460.23,1070.76,1437.7,1070.76z"/>
	</g>
	<g>
		<path class="st18" d="M1249.36,983.59c0,0,79.38,43,90.07,32.11c10.69-10.89-14.11-92.31-24.39-89.57
			C1304.75,928.87,1248.2,975.19,1249.36,983.59z"/>
	</g>
	<g>
		<path class="st18" d="M1531.57,839.13c0,0-139.05,81.77-135.11,94.14c3.94,12.37,12.74,80.16,12.29,98.53
			c-0.45,18.37,166.8-13.29,171.93-23.1c5.13-9.81,0-196.2,0-196.2L1531.57,839.13z"/>
	</g>
	<g>
		<path class="st18" d="M1244.51,940.34l44.37-32.1c8.62-6.24,10.3-18.41,3.7-26.75l-106.94-135.07c-5.34-6.74-14.59-8.97-22.42-5.4
			l-35.4,16.15c-10.39,4.74-14.14,17.6-7.93,27.18l97.97,151.03C1223.68,944.34,1235.84,946.61,1244.51,940.34z"/>
	</g>
	<g>
		<path class="st18" d="M1094.69,964.53c0,0,112.67,18.9,112.05,9.87c-0.61-9.03-96.27-160.07-106.14-159.5
			C1090.74,815.46,1094.69,964.53,1094.69,964.53z"/>
	</g>
	<g>
		<path class="st18" d="M1314.12,627.59c0,0-96.15,61.64-90.24,71.5c5.92,9.86,54.23,99.61,72.73,95.17
			c18.5-4.44,105.61-57.69,99.78-70.51C1390.55,710.92,1320.53,619.7,1314.12,627.59z"/>
	</g>
	<g>
		<path class="st18" d="M1386.27,794.42c0,0-68.49,40.46-63.17,47.19c5.32,6.73,25.04,35.66,34.25,34.34
			c9.2-1.32,80.14-44.05,76.89-51.28C1430.98,817.43,1393.62,789.99,1386.27,794.42z"/>
	</g>
	<g>
		<path class="st18" d="M1489.67,730.86c0,0-88.28,47.19-83.68,55.04c4.6,7.86,31.56,28.9,41.75,26.6
			c10.19-2.3,66.07-33.8,64.76-40.73C1511.19,764.84,1489.67,730.86,1489.67,730.86z"/>
	</g>
	<g>
		<path class="st18" d="M1421.78,551.23c0,0-55.23,43.28-50.62,49.88c4.6,6.6,55.88,86.81,69.69,86.81
			c13.81,0,108.48-58.45,108.48-68.34c0-9.9-53.56-76.3-59.65-76.3C1483.58,543.27,1421.78,551.23,1421.78,551.23z"/>
	</g>
	<g>
		<path class="st18" d="M1156.82,601.11c0,0,38.7,54.87,49.92,52.76c11.22-2.11,126.11-90.38,124.64-97.77
			c-1.48-7.4-194.28-6.41-192.31,5.92C1141.04,574.34,1156.82,601.11,1156.82,601.11z"/>
	</g>
	<g>
		<path class="st18" d="M1119.34,641.5c0,0,57.86,58.58,40.76,69.26c-17.09,10.68-69.03,19.89-72.32,6.08
			C1084.5,703.03,1073.98,608.9,1119.34,641.5z"/>
	</g>
	<g>
		<path class="st18" d="M1108.09,1019.91c0,0,72.39,10.92,107.9,19.61c35.5,8.69,129.82,39.26,126.06,48.13
			c-3.77,8.88-77.56,141.87-154.57,134.55c-77.01-7.33-99.49-19.1-100.08-51.54C1086.8,1138.23,1073.17,1009.37,1108.09,1019.91z"/>
	</g>
	<g>
		<path class="st18" d="M1548.34,1075.1c0,0-99.61,22.59-124.26,22.01c-24.66-0.58-26.6,37.88-40.91,61.55
			c-14.32,23.67-38.97,71.27,3.44,76.07c42.41,4.8,156.36-60.19,156.36-60.19s38.23-1.52,40.01-26.73
			C1584.74,1122.6,1569.59,1070.44,1548.34,1075.1z"/>
	</g>
	<g>
		<g>
			<path class="st8" d="M1063.95,1493.05h-5.1c-2.99,0-5.49-2.28-5.77-5.26l-1.1-11.95c-0.31-3.39,2.36-6.32,5.77-6.32h6.21
				c3.2,0,5.79,2.59,5.79,5.79v11.95C1069.74,1490.46,1067.15,1493.05,1063.95,1493.05z"/>
		</g>
		<g>
			<path class="st8" d="M1198.17,1493.05h-5.1c-2.99,0-5.49-2.28-5.77-5.26l-1.1-11.95c-0.31-3.39,2.36-6.32,5.77-6.32h6.21
				c3.2,0,5.79,2.59,5.79,5.79v11.95C1203.96,1490.46,1201.37,1493.05,1198.17,1493.05z"/>
		</g>
		<g>
			<g>
				<path class="st19" d="M1170.37,1218.47h-96.5l6.52-57.51c1.48-13.07,12.54-22.71,25.67-22.32l47.91,1.27
					c9.2,0.24,16.4,7.64,16.4,16.84V1218.47z M1085.89,1207.72h73.73v-50.97c0-3.34-2.61-6.02-5.95-6.1l-47.91-1.27
					c-0.13,0-0.27,0-0.4,0c-7.36,0-13.48,5.43-14.31,12.79L1085.89,1207.72z"/>
			</g>
		</g>
		<g>
			<g>
				<path class="st20" d="M1200.02,1475.32l-142.36,4.57c-21.65,0.69-39.94-15.92-41.31-37.54l-12.63-198.53
					c-1.47-23.1,16.87-42.65,40.02-42.65h162.63c22.77,0,40.97,18.93,40.07,41.68l-7.64,193.96
					C1237.98,1457.84,1221.05,1474.64,1200.02,1475.32z"/>
			</g>
			<g>
				<g>
					<path class="st8" d="M1072.36,1450.33c-1.25,0-2.27-0.99-2.3-2.25l-5.24-217.92c-0.03-1.27,0.98-2.33,2.25-2.36
						c1.27-0.07,2.33,0.97,2.36,2.25l5.24,217.92c0.03,1.27-0.98,2.33-2.25,2.36C1072.4,1450.33,1072.38,1450.33,1072.36,1450.33z"
						/>
				</g>
			</g>
			<g>
				<g>
					<path class="st8" d="M1127.68,1450.33c-1.25,0-2.27-0.99-2.3-2.25l-5.24-217.92c-0.03-1.27,0.98-2.33,2.25-2.36
						c1.27-0.07,2.33,0.97,2.36,2.25l5.24,217.92c0.03,1.27-0.98,2.33-2.25,2.36C1127.72,1450.33,1127.7,1450.33,1127.68,1450.33z"
						/>
				</g>
			</g>
			<g>
				<g>
					<path class="st8" d="M1186.17,1450.33c-1.25,0-2.27-0.99-2.3-2.25l-5.24-217.92c-0.03-1.27,0.98-2.33,2.25-2.36
						c1.27-0.07,2.33,0.97,2.36,2.25l5.24,217.92c0.03,1.27-0.98,2.33-2.25,2.36C1186.21,1450.33,1186.19,1450.33,1186.17,1450.33z"
						/>
				</g>
			</g>
		</g>
	</g>
	<g>
		<g>
			<g>
				<g>
					<path class="st8" d="M1453.97,541.03c-48.68,2.91-72.52,39.6-75.86,88.28c-3.33,48.18,48.68,118.44,74.37,149.94
						c7.17,8.87,20.65,8.87,27.89,0.14c24.91-30.16,74.3-95.87,74.3-142.85C1554.67,587.79,1514.43,537.41,1453.97,541.03z
						 M1460.15,685.58c-28.1-1.14-49.03-21.15-49.03-49.25c0-28.1,11.85-48.25,52.23-55.14c34.56-5.89,51.09,25.55,53.29,53.58
						C1519.26,668.76,1498.68,687.21,1460.15,685.58z"/>
				</g>
			</g>
			<g>
				<g>
					<path class="st8" d="M1457.27,791.87c-5.51,0-10.7-2.39-14.27-6.6c-24.23-28.3-80.36-99.43-78.15-148.62
						c1.12-25.29,7.89-46.8,19.59-62.21c12.9-17,31.34-26.62,54.8-28.59l0,0c26.43-2.22,51.62,6.1,70.94,23.43
						c19.94,17.89,32.22,44.19,32.85,70.36c0.5,20.59-8.25,47.1-26.02,78.77c-14.74,26.28-32.59,50.57-44.97,66.32
						c-3.51,4.44-8.77,7.05-14.44,7.15C1457.49,791.87,1457.38,791.87,1457.27,791.87z M1439.37,547.35
						c-23.02,1.94-41.1,11.36-53.73,28c-11.51,15.17-18.18,36.39-19.28,61.37c-2.19,48.65,53.67,119.41,77.79,147.58
						c3.35,3.95,8.26,6.17,13.44,6.07c5.22-0.09,10.06-2.49,13.29-6.58c21.63-27.52,71.81-96.64,70.66-144.12
						c-0.62-25.76-12.72-51.66-32.35-69.27C1490.17,553.34,1465.38,545.15,1439.37,547.35L1439.37,547.35z M1450.97,691.73
						c-0.67,0-1.34-0.01-2.01-0.02l0,0c-13.91-0.23-26.66-5.15-35.9-13.86c-9.37-8.84-14.72-21.24-15.05-34.92
						c-0.78-32.4,15.09-50.02,51.48-57.14c12.42-2.43,23.4-0.2,32.61,6.63c12.26,9.08,20.8,26.39,22.85,46.3
						c1.62,15.94-1.82,28.65-10.23,37.79C1485.55,686.48,1470.45,691.73,1450.97,691.73z M1458.9,586.34
						c-2.94,0-5.98,0.31-9.12,0.92c-45.53,8.9-50.79,34.4-50.27,55.63c0.32,13.27,5.5,25.3,14.58,33.86
						c8.97,8.46,21.36,13.24,34.89,13.46h0c20.03,0.37,35.45-4.72,44.64-14.71c8.11-8.81,11.42-21.13,9.84-36.62
						c-2-19.49-10.32-36.41-22.25-45.25C1474.67,588.78,1467.19,586.34,1458.9,586.34z"/>
				</g>
			</g>
		</g>
		<g>
			<g>
				<path class="st12" d="M2307.98,618.74c-58.02,3.47-86.45,47.2-90.42,105.22c-3.98,57.43,58.03,141.17,88.64,178.73
					c8.54,10.57,24.62,10.57,33.24,0.17c29.69-35.95,88.56-114.27,88.56-170.27C2428,674.49,2380.04,614.43,2307.98,618.74z
					 M2315.34,791.04c-33.5-1.35-58.45-25.21-58.45-58.7c0-33.5,14.12-57.52,62.25-65.72c41.19-7.02,60.9,30.45,63.52,63.86
					C2385.8,771,2361.26,792.99,2315.34,791.04z"/>
			</g>
		</g>
		<g>
			<g>
				<path class="st12" d="M2307.08,911.63c-0.05,0-0.1,0-0.15,0c-6.75-0.04-13.05-3.07-17.29-8.32
					c-15.87-19.46-38.7-49.5-57.38-82.04c-22.63-39.43-33.22-72.19-31.48-97.38c2.06-30.12,10.76-55.58,25.15-73.62
					c15.88-19.9,38.15-30.85,66.19-32.52l0,0c31.59-1.89,61.39,8.76,83.93,29.98c23.26,21.91,37.14,53.63,37.14,84.85
					c0,55.16-55.63,130.75-88.79,170.9C2320.12,908.67,2313.81,911.63,2307.08,911.63z M2292.25,619.73
					c-27.46,1.64-49.25,12.33-64.77,31.78c-14.14,17.72-22.69,42.8-24.73,72.52c-4.01,57.88,60.5,143.79,88.43,178.04
					c3.87,4.78,9.61,7.55,15.77,7.59c0.04,0,0.09,0,0.13,0c6.14,0,11.9-2.7,15.82-7.43c15.16-18.36,37.06-46.7,55.32-77.49
					c21.9-36.93,33.01-67.94,33.01-92.15c0-30.69-13.65-61.87-36.52-83.41C2352.57,628.33,2323.29,617.87,2292.25,619.73
					L2292.25,619.73z M2304.95,792.14c-1.79,0-3.6-0.04-5.45-0.12l0,0c-16.59-0.67-31.66-6.91-42.44-17.58
					c-10.93-10.82-16.96-25.78-16.96-42.11c0-38.69,19.45-59.26,63.07-66.69c14.9-2.54,27.94,0.44,38.74,8.86
					c14.37,11.19,24.06,32.09,25.93,55.89c1.47,19.07-3,34.14-13.31,44.81C2343.81,786.34,2326.74,792.14,2304.95,792.14z
					 M2313.16,666.74c-3.11,0-6.33,0.28-9.64,0.85c-22.81,3.89-38.7,11.43-48.59,23.04c-8.64,10.15-12.84,23.8-12.84,41.71
					c0,15.8,5.81,30.25,16.37,40.7c10.43,10.32,25.03,16.36,41.13,17.01l0,0c23.81,1,42.33-4.6,53.55-16.21
					c9.89-10.24,14.19-24.81,12.76-43.29c-1.83-23.26-11.24-43.63-25.17-54.49C2332.76,669.86,2323.52,666.74,2313.16,666.74z"/>
			</g>
		</g>
		<g>
			<path class="st12" d="M1365.03,921.86c-1.31,0-2.63-0.11-3.95-0.32c-6.53-1.05-12.26-4.59-16.13-9.97
				c-56.27-78.17-55.34-83.38-54.78-86.5c0.23-1.29,0.93-2.39,1.97-3.09l94.63-63.85c1.81-1.22,4.26-0.74,5.48,1.06
				c1.22,1.81,0.74,4.26-1.06,5.48l-92.83,62.64c1.82,4.82,11.21,21.59,53.01,79.65c2.64,3.66,6.54,6.07,10.98,6.79
				c4.4,0.71,8.81-0.34,12.41-2.96c28.63-20.8,104.77-75.2,193.21-130.82c89.39-56.21,142.41-55.83,189.18-55.49
				c5.28,0.04,10.74,0.08,16.06,0.03c20.08-0.17,45.31,0.29,69.71,0.73c33.65,0.61,71.66,1.31,78.78-0.36
				c1.73-3.35,2.03-18.4,2.25-29.5c0.61-30.89,1.37-69.34,20.4-75.31c13.23-4.15,39.92-5.6,66.42-3.6
				c21.89,1.65,48.88,5.99,53.23,17.24c2.38,6.15,0.32,23.84-3.82,57.18c-5.08,40.86-12.76,102.62-2.36,115.26
				c1.1,1.34,2.06,1.57,2.78,1.62c3.18,0.22,7,0.52,11.34,0.86c33.48,2.64,103.14,8.12,133.79-3.89c2.03-0.8,4.32,0.21,5.11,2.23
				c0.79,2.03-0.2,4.32-2.23,5.11c-32.33,12.67-100.61,7.29-137.28,4.41c-4.31-0.34-8.11-0.64-11.27-0.86
				c-3.22-0.23-6.09-1.77-8.32-4.48c-11.63-14.14-6.85-61.19,0.62-121.24c2.84-22.86,6.07-48.78,4.29-53.36
				c-1.67-4.32-16.92-9.98-46.47-12.21c-25.19-1.9-51.29-0.56-63.46,3.26c-13.61,4.27-14.37,42.58-14.87,67.94
				c-0.49,24.51-0.92,34.54-7,36.64c-6.38,2.21-35.34,1.8-82.06,0.95c-24.35-0.44-49.53-0.9-69.5-0.73
				c-5.38,0.05-10.87,0.01-16.18-0.03c-47.93-0.35-97.49-0.71-184.92,54.28c-88.24,55.49-164.21,109.76-192.78,130.52
				C1375.15,920.25,1370.17,921.86,1365.03,921.86z"/>
		</g>
	</g>
	<g>
		<g>
			<g>
				<g>
					<path class="st8" d="M2279.41,1454.53c0,0-66.17,2.07-74.32-12.73c-29.99-54.42,1.18-180.63,36.59-212.21
						s61.6,23.52,61.6,23.52L2279.41,1454.53z"/>
				</g>
				<g>
					<path class="st19" d="M2311.67,1272.04c0,0-12.1-44.44-38.99-30.55c-26.89,13.89-25.54,212.23,6.72,213.05
						C2311.67,1455.34,2325.12,1334.53,2311.67,1272.04z"/>
				</g>
				<g>
					<path class="st21" d="M2302.64,1288.81c0,0-7.35-34.45-23.7-23.69c-16.34,10.77-15.52,164.54,4.09,165.17
						S2310.81,1337.26,2302.64,1288.81z"/>
				</g>
			</g>
			<g>
				<g>
					<path class="st8" d="M2023.16,1515.56c0,0-88.5,5.91-97.64-13.18c-29-60.59-57.74-225.44,44.32-278.93
						c88.32-46.3,112.28,70.88,112.28,70.88L2023.16,1515.56z"/>
				</g>
				<g>
					<path class="st19" d="M2065.97,1290.5c0,0-16.05-54.8-51.73-37.68c-35.67,17.13-33.89,261.74,8.92,262.74
						C2065.97,1516.56,2083.81,1367.56,2065.97,1290.5z"/>
				</g>
				<g>
					<path class="st21" d="M2053.99,1311.18c0,0-9.76-42.49-31.44-29.21s-20.6,202.92,5.42,203.69
						C2053.99,1486.44,2064.83,1370.93,2053.99,1311.18z"/>
				</g>
			</g>
			<g>
				<path class="st8" d="M1483.8,1301.68c0,0-3.59-10.54-11.14-20.11l0,0c0,0-34.76-58.56-81.73-24.99
					c-46.98,33.57-30.35,212.84-20.23,228.86c10.12,16.02,70.29,10.22,70.29,10.22C1483.8,1496.51,1501.64,1368.1,1483.8,1301.68z"
					/>
			</g>
			<g>
				<path class="st12" d="M1456.85,1042.38c0,0-145.92,60.45-133.41,199.08c0,0-13.55,2.08-18.76,29.18
					c-5.21,27.1,21.89,154.26,41.69,157.39c19.8,3.13,589.93,19.8,604.53,11.47c14.59-8.34,29.18-28.14,28.14-76.09
					c-1.04-47.95,12.13-147.82,54.2-143.58c35.97,3.62,44.59,122.42,35.97,197.27c-4.28,37.12,48.46-15.12,94.32-19.29
					c45.86-4.17,75.93,2.75,78.02-23.31c2.09-26.06-4.6-137.32,35.07-139.05c37.48-1.64,40.24,75.16,40.24,75.16
					c4.17-5.21,9.27-64.47-2.2-90.78c-11.47-26.31,5.21-133.67-21.89-149.3c-27.1-15.63-7.3-177.19-162.6-208.46
					c-155.3-31.27-471.11-19.46-532.61,14.76C1536.06,911.06,1456.85,1042.38,1456.85,1042.38z"/>
			</g>
			<g>
				<path class="st8" d="M1717.22,1224h-218.63c-10.38,0-20.14-4.04-27.48-11.38l-4.44-4.44c-5.77-5.77-13.43-8.94-21.58-8.94
					h-20.06v-8.34h20.06c10.38,0,20.14,4.04,27.48,11.38l4.44,4.44c5.77,5.77,13.43,8.94,21.58,8.94h218.63
					c5.11,0,10.19-1.3,14.67-3.76l29.58-16.22c5.71-3.13,12.17-4.78,18.68-4.78h29.3v8.34h-29.3c-5.11,0-10.19,1.3-14.67,3.76
					l-29.58,16.22C1730.19,1222.34,1723.73,1224,1717.22,1224z"/>
			</g>
			<g>
				<path class="st8" d="M2026.2,873.44c9.88,0.91,16.73,10.23,14.76,19.95c-3.45,17.01-8.13,45.17-8.78,75
					c-1.04,47.95,23.97,77.13-55.24,82.34s-511.61,7.09-508.48-7.5s112.41-153.71,143.68-163.44
					C1639.92,871.15,1946.12,866.07,2026.2,873.44z"/>
			</g>
			<g>
				<path class="st8" d="M1396.74,1364.8c0,13.82-10.15,28.49-25.88,28.49s-25.88-14.67-25.88-28.49
					c0-13.82,12.76-26.75,28.49-26.75S1396.74,1350.98,1396.74,1364.8z"/>
			</g>
			<g>
				<path class="st8" d="M1896.52,1364.8c0,13.82-10.15,28.49-25.88,28.49s-25.88-14.67-25.88-28.49
					c0-13.82,12.76-26.75,28.49-26.75C1888.98,1338.05,1896.52,1350.98,1896.52,1364.8z"/>
			</g>
			<g>
				<path class="st8" d="M1304.67,1270.64c0,0-2.78,21.89,40.3,27.62c43.08,5.73,80.6-4.69,91.03,30.75
					c10.42,35.44-10.42,68.79,58.37,78.17c68.79,9.38,244.66,19.8,254.7-8.34s-10.8-75.04,32.97-83.38
					c43.78-8.34,143.84,2.08,167.81-11.47c23.97-13.55,25.01-30.23,10.42-41.69c-14.59-11.47-558.67-10.42-589.41-10.42
					S1304.67,1248.76,1304.67,1270.64z"/>
			</g>
			<g>
				<polygon class="st0" points="1483.95,1292.51 1722.63,1279.4 1722.63,1334.22 1479.25,1334.22 				"/>
			</g>
			<g>
				<path class="st8" d="M2196.96,1111.67c2.55,9.15-0.44,17.98-6.67,19.72s-13.36-4.27-15.92-13.41s0.44-17.98,6.67-19.72
					C2187.28,1096.52,2194.41,1102.52,2196.96,1111.67z"/>
			</g>
			<g>
				
					<ellipse transform="matrix(0.9632 -0.2687 0.2687 0.9632 -213.3056 651.3953)" class="st8" cx="2273.07" cy="1104.96" rx="11.73" ry="17.2"/>
			</g>
			<g>
				<path class="st8" d="M2251.56,1038.91c0,0,0.55-79.91-44.61-112.57c-45.17-32.66-110.48-47.25-122.99-37.52
					c-12.51,9.73-14.59,137.58-3.47,150.09C2091.6,1051.42,2239.89,1051.42,2251.56,1038.91z"/>
			</g>
			<g>
				<path class="st19" d="M2112.44,1073.13c0,0-20.32-19.28-9.9-51.59c10.42-32.31,90.68-10.42,99.02,5.73
					c8.34,16.16-24.49,43.78-46.38,48.47c-21.89,4.69-17.2,44.3-33.87,42.21c-16.68-2.08-29.92-13.55-21.73-20.85
					C2107.75,1089.81,2122.87,1079.38,2112.44,1073.13z"/>
			</g>
			<g>
				
					<ellipse transform="matrix(0.7775 -0.6289 0.6289 0.7775 -321.4394 1431.5676)" class="st4" cx="1862.47" cy="1170.06" rx="60.78" ry="39.76"/>
			</g>
			<g>
				
					<ellipse transform="matrix(0.7775 -0.6289 0.6289 0.7775 -425.0577 1138.6835)" class="st4" cx="1396.74" cy="1170.06" rx="60.78" ry="39.76"/>
			</g>
			<g>
				<path class="st19" d="M2000.05,952.77c0,0,13.27-49.76,5.9-58.36c-7.37-8.6-71.87-14.13-71.87-5.53
					c0,8.6,25.36,13.5,32.03,29.79C1972.78,934.96,1996.3,968.68,2000.05,952.77z"/>
			</g>
		</g>
		<g>
			<g>
				<polygon class="st0" points="2069.74,1161.65 2100.12,1162.11 2099.65,1192.6 2069.2,1197.48 				"/>
			</g>
			<g>
				<polygon class="st0" points="2102.52,1223.45 2099.65,1192.6 2128.24,1188.47 2132.58,1220.13 				"/>
			</g>
			<g>
				<polygon class="st0" points="2128.71,1157.83 2128.24,1188.47 2157.62,1180.9 2156.57,1152.6 				"/>
			</g>
			<g>
				<polygon class="st0" points="2160.45,1214.42 2157.62,1180.9 2187.36,1174.28 2190.61,1204.04 				"/>
			</g>
			<g>
				<polygon class="st0" points="2188.17,1145.53 2187.36,1174.28 2212.26,1169 2214.52,1142.63 				"/>
			</g>
			<g>
				<polygon class="st0" points="2213.58,1204.39 2212.26,1169 2249.01,1164.37 2250.69,1200.23 				"/>
			</g>
		</g>
		<g>
			<g>
				<g>
					<path class="st8" d="M1813.38,843.12l20.73-41.95c3.28-6.64,8.92-10.78,15.13-11.1l122.12-6.38
						c8.04-0.42,15.57,5.58,18.89,15.05l12.08,34.41c3.11,8.85-1.82,18.64-9.35,18.58l-34.46,1.82
						C1955.67,853.52,1811.87,846.18,1813.38,843.12z"/>
				</g>
				<g>
					<path class="st19" d="M1776.2,845.07l20.73-41.95c3.28-6.64,8.92-10.78,15.13-11.1l122.12-6.38
						c8.04-0.42,15.57,5.58,18.89,15.05l12.08,34.41c3.11,8.85-1.82,18.64-9.35,18.58l-176.48-1.46
						C1776.48,852.19,1774.69,848.12,1776.2,845.07z"/>
				</g>
			</g>
			<g>
				<polygon class="st0" points="1814.73,801.98 1837.6,804.58 1835.55,822.62 1812.32,823.18 				"/>
			</g>
			<g>
				<polygon class="st0" points="1835.99,841.12 1835.55,822.62 1857.33,822.36 1858.83,841.46 				"/>
			</g>
			<g>
				<polygon class="st0" points="1859.39,804.23 1857.33,822.36 1879.9,820.13 1880.69,803.27 				"/>
			</g>
			<g>
				<polygon class="st0" points="1904.47,800.37 1902.41,818.49 1924.98,816.26 1925.77,799.4 				"/>
			</g>
			<g>
				<polygon class="st0" points="1880.16,840.21 1879.9,820.13 1902.69,818.48 1903.48,836.37 				"/>
			</g>
		</g>
	</g>
</g>
</svg>
